/* XPM */
static char *result[] = {
/* columns rows colors chars-per-pixel */
"64 64 198 2 ",
"   c #76383F",
".  c #7C3A3C",
"X  c #5F364E",
"o  c #543655",
"O  c #5A3652",
"+  c #573956",
"@  c #5A3A54",
"#  c #553D5A",
"$  c #593F59",
"%  c #6A3747",
"&  c #6D3846",
"*  c #64374B",
"=  c #653B4E",
"-  c #6C3C49",
";  c #733A42",
":  c #793F44",
">  c #703F4B",
",  c #633D52",
"<  c #3D785A",
"1  c #4D4B57",
"2  c #57415D",
"3  c #59455E",
"4  c #5A485F",
"5  c #6C404E",
"6  c #7C4244",
"7  c #74424A",
"8  c #79474B",
"9  c #74494F",
"0  c #7C4A4C",
"q  c #664253",
"w  c #6A4453",
"e  c #644A5E",
"r  c #6D4A58",
"t  c #724650",
"y  c #734C54",
"u  c #784F51",
"i  c #6B525E",
"p  c #7B5452",
"a  c #7A5855",
"s  c #74585E",
"d  c #7B5C5D",
"f  c #7F675F",
"g  c #544261",
"h  c #5A4760",
"j  c #5B4B63",
"k  c #574C68",
"l  c #5B4E69",
"z  c #5D5164",
"x  c #57516E",
"c  c #5D526A",
"v  c #5E596D",
"b  c #5B5D74",
"n  c #614D62",
"m  c #635266",
"M  c #695662",
"N  c #6B5B63",
"B  c #625569",
"V  c #695468",
"C  c #625B6B",
"Z  c #6D5C69",
"A  c #70596E",
"S  c #605D70",
"D  c #695D71",
"F  c #526966",
"G  c #586E71",
"H  c #5E6579",
"J  c #5C7B74",
"K  c #65636E",
"L  c #6A626A",
"P  c #6E6C6F",
"I  c #7B6965",
"U  c #736D6C",
"Y  c #76716E",
"T  c #7E796F",
"R  c #646372",
"E  c #6C6672",
"W  c #656A75",
"Q  c #6B6C73",
"!  c #656C7A",
"~  c #6B6F7C",
"^  c #6B7176",
"/  c #6A747A",
"(  c #6D7B7D",
")  c #737474",
"_  c #797573",
"`  c #777D76",
"'  c #7B7A73",
"]  c #71747A",
"[  c #717C7A",
"{  c #7D7C7D",
"}  c #823C3A",
"|  c #85423D",
" . c #8A453E",
".. c #8D483F",
"X. c #834442",
"o. c #844946",
"O. c #8C4B43",
"+. c #8C4B44",
"@. c #844D4A",
"#. c #914E42",
"$. c #8D534B",
"%. c #88534C",
"&. c #955244",
"*. c #995645",
"=. c #9E5C47",
"-. c #925549",
";. c #945B4D",
":. c #9B5B49",
">. c #875C53",
",. c #8D5E54",
"<. c #925D50",
"1. c #A05F4B",
"2. c #97624F",
"3. c #9E644F",
"4. c #8C6357",
"5. c #84625D",
"6. c #8C655B",
"7. c #8E6E5F",
"8. c #946454",
"9. c #9C6652",
"0. c #9E6854",
"q. c #94695B",
"w. c #9E705D",
"e. c #A4644C",
"r. c #A7684F",
"t. c #A46550",
"y. c #A36A53",
"u. c #AA6C52",
"i. c #AE7256",
"p. c #A4765E",
"a. c #AD785D",
"s. c #B07457",
"d. c #B27659",
"f. c #B3785A",
"g. c #886B64",
"h. c #926D66",
"j. c #986A61",
"k. c #867265",
"l. c #82746B",
"z. c #9B7866",
"x. c #816D74",
"c. c #857C77",
"v. c #927978",
"b. c #A57B63",
"n. c #A47972",
"m. c #4C8E5D",
"M. c #4B8B62",
"N. c #50856B",
"B. c #678677",
"V. c #72847F",
"C. c #7C807A",
"Z. c #848074",
"A. c #888679",
"S. c #968576",
"D. c #AE8267",
"F. c #B5876D",
"G. c #A18B78",
"H. c #A1907D",
"J. c #696F80",
"K. c #6C7481",
"L. c #707684",
"P. c #757D83",
"I. c #7F7F84",
"U. c #758681",
"Y. c #7B8485",
"T. c #7B8B84",
"R. c #7B8A85",
"E. c #808287",
"W. c #888386",
"Q. c #818C87",
"!. c #8A8D85",
"~. c #828D8A",
"^. c #8B8E8B",
"/. c #85928B",
"(. c #89958D",
"). c #8A9A8E",
"_. c #999488",
"`. c #969A8C",
"'. c #9C9989",
"]. c #868B91",
"[. c #928B93",
"{. c #8B9592",
"}. c #8F9B92",
"|. c #939A91",
" X c #979898",
".X c #A38C85",
"XX c #A99680",
"oX c #A69F92",
"OX c #9CA499",
"+X c #A6A08B",
"@X c #A4A395",
"#X c #A3A29A",
"$X c #B3A994",
"%X c #A4ABA1",
"&X c #B4A8A5",
"*X c #BDB1A6",
"=X c #BAB1A9",
"-X c #CEBAA6",
/* pixels */
"V.V.V.V.V.V.V.V.V.V.V.V.V.V.V.V.U.U.V.V.V.V.V.V.V.V.V.V.V.V.V.V.V.V.V.V.V.V.V.V.V.V.V.V.V.V.V.V.V.V.V.V.V.V.V.V.V.V.V.V.V.V.V.V.",
"V.V.V.V.V.V.V.V.V.V.V.V.V.V.V.V.K.U.V.V.V.V.V.V.V.V.V.V.V.V.V.V.V.V.V.C.V.V.V.V.V.V.V.V.V.V.V.V.V.V.V.V.V.V.V.V.V.V.V.V.V.V.V.V.",
"V.V.V.V.V.V.V.V.V.V.V.V.V.V.V.U.B.U.U.U.V.V.V.V.V.V.( H v C v K L v v F W ( V.V.V.V.V.V.V.V.V.V.V.V.V.V.V.V.V.V.V.V.V.V.V.V.V.V.",
"V.V.V.V.V.V.V.V.V.V.V.V.V.V.V.V.U.U.( U.V.V.V.V.( H h # o o o o o o o o # j K J B.B.V.V.V.V.V.V.V.V.V.V.V.V.V.V.V.V.V.V.V.V.V.V.",
"V.V.V.V.V.U.V.V.V.V.V.V.V.V.V.( / / K.U.V.V.[ H 3 # 2 H P ^ G P ) ^. X&X^.z 2 1 F J [ U.V.V.V.V.V.V.( V.V.V.( ( ~ R ( ( V.V.V.V.",
"V.V.V.V.V.V.V.V.V.V.V.V.V.V.V.( / ^ / B.V.^ 3 2 4 H r %.8.w.D.p.b.D.F.F.H.'.{ j # j Y.(./.V.V.V.V.( / V.V.V.( / K Q /.~.U.V.V.V.",
"V.V.V.V.V.V.V.V.V.V.V.V.V.V.V.V.V.V.V.V.V.v # n f 6 -.3.u.f.d.r.e.e.e.e.y.y.p.l.4 # b V.V.V.V.V.V.( ( V.V.V.V.V.( Q.U.V.V.V.V.V.",
"V.V.V.V.V.V.V.V.V.V.V.V.V.V.V.V.V.V.V.V./ 3 4 I e.i.i.s.f.f.f.s.d.d.d.d.d.d.d.a.l.3 3 ( V.V.V.V.V.V.V.V.V.V.V.V.( / V.V.V.V.V.V.",
"V.V.V.V.V.V.V.V.V.V.V.V.V.V.V.V.V.V.V.V.v 2 U O.f.f.f.f.f.f.f.f.f.f.f.f.f.f.f.f.;.c # S V.V.V.V.V.U.(.U.V.V.U.( ( ( V.V.V.V.V.V.",
"V.V.V.V.V.V.V.V.V.V.V.V.V.V.V.V.V.V.V.( 2 2 Y | t.u.i.u.d.f.f.f.f.f.f.f.s.i.i.e.| c # 4 V.V.V.V.V.P.T.U.V.V.V.U.U.V.V.V.V.V.V.V.",
"V.V.V.V.V.V.V.V.V.V.V.V.V.V.U.V.V.V.V.^ 2 q Y | :.r.t.u.s.d.f.f.f.f.f.f.i.e.e.:.+.c X 3 / V.V.V.V.( ].U.V.V.U.U.V.V.V.V.V.V.V.V.",
"V.V.V.V.V.V.U.V.V.V.V.V.V.V.V.V.V.V.V.c @ 8 ) y e.f.f.f.f.f.f.d.f.f.f.f.f.f.f.u.g.C ; + v V.V.V.V.( [ }.(.T.U.U.V.V.V.V.V.V.V.V.",
"V.V.V.V.V.V.V.V.V.V.V.V.V.V.V.V.V.V.V.3 + %.~ I.y t.f.f.f.f.d.r.e.e.e.e.e.:...k.W 4   o 2 / W K W v c K Q ] / / V.V.V.V.V.V.V.V.",
"V.V.V.V.V.V.V.V.V.V.V.V.V.V.V.V.V.V.V.2 @ -.6./.Y.y =.u.d.d.d.i.i.i.i.i.e.*.f [ j ;   o 3 V.V.V.V.^ ) T.V.V.U.U.V.V.U.V.V.V.V.V.",
"V.V.V.V.V.V.V.V.V.V.V.V.V.V.V.V.V.V.W $ : *.:.h.].oX'.,.$.+.$.t.3.:.O.O.5.' [ m ; . }   2 / V.V.U.( ^.T.V.V.V.V.V.V.V.V.V.V.V.V.",
"V.V.V.V.V.V.V.V.V.V.V.V.V.V.V.V.V.V.j o -.=.=.:.5.] %X=X*XoX`.`.C.` ) ^ [ W 4 ; } . .   o c V.V.U.( ~.U.V.V.V.V.V.V.V.V.V.V.V.V.",
"V.V.V.V.V.V.V.V.V.V.U.V.V.V.V.V.V.V.4 + -...e.....*.s D _ ' ' ' ) ) P C B 9 | } ..} .   o z V.V.V.( R.U.U.V.V.V.V.V.V.V.T.T./.(.",
"V.V.V.V.V.V.V.V.V.V.V.V.V.V.V.V.V.V.4 + -.2.e.=...u.#.| } | | | | | | } | #.=.| ..} }   o j V.V.V.( U.U.V.V.V.V.U.B.V.V.T.U.U.U.",
"V.V.V.V.V.V.V.V.V.V.V.V.V.V.V.V.V.V.4 + ..=.=...*.u...1.#.*.=.=.=.=.&. .=.=.=.0 =. .}   o z V.V.U.U.U.U.V.V.V.V.( ( U.V.U.U.U.U.",
"V.V.U.V.V.V.V.V.V.V.V.V.V.V.V.V.V.V.4 + | =.r.....u.1.1.=.=.1.=.=.1.&...=.=.=.w &.} .   o z V.V.K.U.B.P.V.V.V.V.P.( V.( ( U.U.B.",
"V.V.V.V.V.V.V.V.V.V.V.V.V.V.V.V.V.V.4 o 9 ..2...#.1.1.*.=.=.=.=.=.=.....=.=.1.5 -.} . q o c V.V.V.V.V.V.V.V.V.V.V.V.U.K.U.U.U.K.",
"V.V.V.V.V.V.V.V.V.V.V.V.V.V.V.V.V.V.v # x i e...X.=.1.1.#.*.=.=.=.=.=.=.=.1.=.= 6 . e 2 # R V.V.V.V.V.V.V.V.V.V.V.V.V.U.U.B.U.U.",
"V.V.V.V.V.V.V.V.V.V.V.V.V.V.V.V.V.V.( 3 w v k.2.+.=.1.1.| &.=.=.=.=.=.=.:.:.=.q : e 2 % 3 ( V.V.V.V.V.V.V.V.V.V.V.V.U.U.U.U.V.B.",
"V.V.V.V.V.V.V.V.V.V.V.V.V.V.V.V.V.V.V.4 X 0 C.+XoX_ 6.:.| *.=.=.=.=.=.=.:.d ) ^ z 2 ; O j V.V.V.V.V.V.V.V.V.V.V.V.V.B.U.P.B.U.P.",
"V.V.V.V.V.U.V.V.V.V.V.V.V.V.V.V.V.V.V.R #   0 Q !.#X=XW.6.9.y.0.0.3.2.>.Q / ) R 3     $ R V.V.V.V.V.V.V.V.V.V.U.V.V.V.V.V.V.V.V.",
"V.U.V.V.V.V.V.V.V.V.V.V.V.V.V.V.V.V.V.( 2 = &.X.X.8 V E.|.|.|.|.`.(.[ / W n 5 X..   O 3 V.V.V.V.V.V.V.V.V.V.V.V.V.V.V.V.V.V.V.V.",
"V.V.V.V.V.V.V.V.V.V.V.V.V.V.V.V.V.V.V.V.4 @ &.=.&.} } r B m m M U m m m y } q $.|   + j V.V.V.V.V.V.V.V.V.V.V.V.V.V.V.V.V.U.V.V.",
"V.V.V.V.V.V.V.V.V.V.V.V.V.U.V.V.V.V.V.V.W # 6 =.1.#.#.#. .} |  . . .}  .&.o.t +.} O # ! V.V.V.V.V.V.V.V.V.V.V.V.V.V.V.V.V.V.V.V.",
"V.V.V.V.V.V.V.V.V.V.V.V.V.V.V.V.V.V.V.V.( v e %.=.&.O.*.=.| *.=.=.*.&.=.$.- X.} & h C V.V.V.V.V.V.V.V.V.V.V.V.V.V.V.V.V.V.V.V.V.",
"V.V.V.V.V.V.V.V.V.V.V.V.V.V.V.V.V.V.V.V.V.V.! 4 >.S.%.#.1.| *.=.=.=.=.=.8 i i = j / V.U.V.V.V.V.V.V.V.V.V.V.V.V.V.V.V.V.V.V.V.V.",
"V.V.V.V.V.V.V.V.V.V.V.V.V.V.V.V.V.V.V.V.V.V.V.K h I._.,.&.&...*.=.=.*.6 M H c # G V.V.V.V.V.V.V.V.V.V.V.V.V.V.V.V.V.V.V.V.V.V.V.",
"V.V.V.V.V.V.V.V.V.V.V.V.V.V.V.V.V.V.V.V.V.V.V.[ C c J.W.'.XX_.' T ' Y K b b g K V.V.V.V.V.U.V.V.V.V.V.V.V.V.V.V.V.V.V.V.V.V.V.V.",
"V.V.U.U.V.V.V.V.V.V.V.V.V.V.V.V.V.V.V.V.V.V.V.V.( ( ( U.K.~ ! ! H H H H W ( / ( V.V.V.V.V.V.V.V.V.V.V.V.V.V.V.V.V.V.V.V.V.V.V.V.",
"V.V.U.[ ! V.V.V.V.V.V.V.V.V.V.V.V.V.V.V.V.V.V.V.V.V.U.( / / / ^ / / ( ^ ( V.V.V.V.V.V.V.V.V.V.V.V.V.V.V.V.V.V.V.V.V.V.V.V.V.V.V.",
"V.V.V.( ! V.V.V.V.V.V.V.V.V.V.V.V.V.V.V.V.V.V.V.V.( W j 2 2 2 # 2 2 # # k Q ( V.V.V.V.V.V.V.V.V.V.V.V.V.V.V.V.V.V.V.V.V.V.V.V.V.",
"V.V.V.B.! V.V.V.V.V.V.V.V.V.V.V.V.V.V.V.V.V.V.( W h # 2 4 3 4 4 4 m M A m 2 k Q ( V.V.V.V.V.V.V.V.V.V.V.V.V.V.V.V.V.V.V.V.V.[ V.",
"V.V.V.( H V.V.V.V.V.V.V.V.V.V.V.V.V.V.V.V.V.R k # 4 h U l.c.c.Z.A.+X$X-X@X^ m # c Q V.V.V.V.V.V.V.V.V.V.V.V.V.V.V.V.V.V.V.V.( Y.",
"V.V.U.B./ V.V.V.V.V.V.V.V.V.U.V.V.V.V.V.V.! o 2 C s 8 &.e.s.d.u.u.u.u.i.D.H.S.Z # # ! V.V.V.V.V.V.V.V.V.V.V.V.V.V.V.V.V.V.V.( / ",
"V.V.U.P.U.V.V.V.V.V.V.V.V.V.V.V.V.V.V.V.[ h 2 L 6.:.e.t.s.f.d.u.u.r.r.r.r.r.i.z.L # c ( V.V.V.V.V.V.V.V.V.V.V.V.V.V.V.V.V.U.( / ",
"V.V.V.V.V.V.V.V.V.V.V.V.V.V.V.V.V.V.V.V.W 3 L >.i.f.f.f.f.f.f.f.f.f.f.f.f.f.f.a.7.j 2 ! V.V.V.V.V.V.V.V.V.V.V.V.V.V.V.V.V.U.( ( ",
"V.V.V.V.V.V.V.V.K.V.V.V.V.V.V.V.V.V.V.[ 4 3 Y ..f.f.f.f.f.f.f.f.f.f.f.f.a.f.f.i.-.l # j V.V.V.V.V.V.V.V.V.V.U.U.V.V.V.V.V.U.P.U.",
"V.V.V.V.V.V.U.V.U.U.V.V.V.V.V.V.V.V.V.[ 2 2 Y . &.1.t.1.s.f.f.f.f.f.f.f.i.e.e.&.. c # 3 V.U.V.V.V.V.V.V.V.K.U.U.V.V.V.V.U.B.V.V.",
"V.V.V.V.V.V.V.V.U.U.U.U.V.V.V.V.V.V.V.H $ 8 U  .u.s.s.s.d.f.f.f.f.f.f.f.s.i.i.u.8.B & $ W V.V.V.V.V.V.V.V.V.P.B.V.V.V.V.V.V.V.V.",
"V.V.V.V.V.V.V.V.B.P.U.B.V.V.V.V.V.V.V.3 O 0 ^ L $.i.f.f.f.f.f.s.i.s.s.i.i.i.u.9.Y c ; + j V.V.V.V.V.V.V.V.V.U.U.V.V.V.V.V.V.V.V.",
"V.V.V.V.V.U.U.U.U.U.B.P.V.U.V.V.V.V.V.3 @ $.) {.A $.u.d.d.d.d.r.e.e.e.e.e.#.o.Y v ,   o 3 V.V.V.V.V.V.U.B.U.U.U.V.V.V.V.V.V.V.V.",
"V.V.V.V.B.M.m.m.N.U.U.U.V.V.V.V.V.V./ 2 = *.8.Z.{.x.q.9.t.r.r.u.i.u.t.t.8.8.' ^ q   . X 3 ( V.V.V.V.V.V.U.U.P.B.V.V.V.V.V.V.V.V.",
"V.V.V.V.K.G < < / U.T.U.V.V.U.V./ V.C $ X.=.=.2.c. X%X.Xn.h.7.z.7.4.a a Y ( W q   } }   + K V.V.V.V.V.V.U.( B.U.V.V.V.V.V.P.V.U.",
"V.V.U.U.U.U.G U.(.T.T.R.V.V.( U./ V.4 @ -.=.=.*.$.N c. XOX|.).).V.V.B.! ! M - .  .} }   o j V.V.V.V.V.V.U.U.U.V.V.V.V.V.V.U.U.B.",
"V.V.V.V.B.P.K.P.U.V.V.V.V.V.V.V.U.U.2 @ -.=.=...&.e.6 9 u p p p p p p 7 7 o.&.} ..} .   o z V.V.V.V.V.V.V.V.V.V.V.V.V.V.V.V.V.V.",
"V.V.V.V.U.U.B.K.V.V.V.V.V.V.V.V.T.U.j o -.=.=.&.&.u.*.&.| ....=.*.&... .&.*.1.| ..} }   o z V.V.V.V.V.V.V.V.V.V.V.V.V.V.V.V.V.V.",
"V.V.V.V.P.U.U.B.V.V.V.V.V.V.V.V.Y.U.j O X.:.=.&.#.u.=.=.*.=.=.=.=.=.*...=.1.1.7 2. .. . o j V.V.V.V.V.V.V.V.V.V.V.V.V.V.V.V.V.V.",
"V.V.V.V.B.U.U.V.V.V.V.V.V.V.V.V.P.T.3 o 6 &.=.&.#.u.=.=.=.=.=.=.=.=... .=.=.1.q &.} . & o z V.V.V.V.V.V.V.V.V.V.V.V.V.V.V.V.V.V.",
"V.V.V.V.V.V.V.V.V.V.V.V.V.V.V.V.^ |.B # l 0 =.&. .:.=.=.*.=.=.1.=.=.*...=.=.=.q O.| 7 h # z V.V.V.V.V.V.V.V.U.V.V.V.V.V.V.V.V.V.",
"V.V.V.V.V.V.V.V.V.V.( / / W W K l K R # j C <.&. .1.=.=. .&.=.=.=.=.=.=.=.=.=.,   7 j @ 2 / V.U.V.V.V.V.V.V.V.V.V.V.V.V.V.V.U.V.",
"V.V.V.U.V.V.V.V.V.V.V.V.V.V.V.V.R ~.[ 3 - V ` b.j.4.;.3.| &.=.=.=.=.=.=.=.,.4.M w j * % 4 V.V.V.V.V.V.V.V.V.V.V.V.V.V.V.V.V.V.V.",
"V.V.V.V.V.V.V.V.V.V.V.V.V.V.V.V.{ (.V.c @ : I {.#X{..Xh.O.:.=.=.=.=.=.;.5.U ( / c * ; + c V.V.V.V.V.V.V.V.V.V.V.V.V.V.V.V.V.V.V.",
"V.V.V.V.V.V.U.V.V.V.V.V.V.V.V.V.P.T.U./ $ % o.r >.v.[.].S.G.G.G.G.S.k.Y ! R s y & . * 2 ( V.V.V.V.V.V.V.V.V.V.V.V.V.V.V.V.V.V.V.",
"V.V.V.V.V.V.V.V.V.V.V.V.V.V.V.V.P.U.V.( 2 , *.&.+.. > E L.L.L.P.~./ H W M > 5 @.} . O 3 V.V.V.V.V.V.V.V.V.U.V.V.V.V.V.V.V.V.V.V.",
"V.V.V.V.V.V.V.V.V.V.V.V.V.V.V.V.( U.V.( v O O.=.*.O.O.o.8 7 6 8 0 7 7 6 @...w $.| X # v V.V.V.V.V.V.V.V.V.V.V.V.V.V.V.V.V.V.V.V.",
"V.V.V.V.V.V.V.V.V.V.V.V.V.V.V.V.V.V.V.V./ 2 5 :.=.#.#.*.*.} ..*.*.#.| *.&.8 0 | . @ 3 ( V.V.V.V.V.V.V.V.V.V.V.V.V.V.V.V.U.V.V.V.",
"V.V.V.V.V.V.V.V.V.V.V.V.V.V.V.V.V.V.V.V.V./ C r ;.2.O.#.=.| *.=.e.....3.0 5 6 . @ C ( V.V.V.V.V.V.V.V.V.V.V.V.V.V.V.V.V.V.V.V.V.",
"V.V.V.V.V.V.V.V.V.V.V.V.V.V.V.V.V.V.V.V.V.V.( c A !.g.&.=. .&.=.e.=.e.&.u K v # b ( V.V.V.V.V.V.V.V.V.V.V.V.V.V.V.V.V.V.V.V.V.V.",
"V.V.V.V.V.V.V.V.V.V.V.V.V.V.V.V.V.V.V.V.V.V.U.! g E }.k.q.p.4.8.2.8.>.w v H g 4 B.V.V.U.V.V.V.V.V.V.V.V.V.V.V.V.V.V.V.V.V.V.V.V.",
"V.V.V.V.V.V.V.V.V.V.V.V.V.V.V.V.V.V.V.V.V.V.U.U.Q v ! ~.{././.( / ( ( H H H v ^ V.V.V.V.V.V.V.V.V.V.V.V.V.V.V.V.V.V.V.V.V.V.V.V."
};
