/* XPM */
static char *result[] = {
/* columns rows colors chars-per-pixel */
"64 64 181 2 ",
"   c #7C0C0F",
".  c #65061F",
"X  c #6C081A",
"o  c #760B13",
"O  c #7B1514",
"+  c #731119",
"@  c #7A1D1A",
"#  c #77251E",
"$  c #7B211D",
"%  c #5E0425",
"&  c #54022C",
"*  c #5C0729",
"=  c #5B0A2A",
"-  c #5C152D",
";  c #520E36",
":  c #56183A",
">  c #620923",
",  c #7B0726",
"<  c #641426",
"1  c #64192C",
"2  c #771724",
"3  c #5E313F",
"4  c #6E2927",
"5  c #63242E",
"6  c #662A2E",
"7  c #692C2E",
"8  c #772526",
"9  c #6C312E",
"0  c #71352C",
"q  c #7B3728",
"w  c #743B2F",
"e  c #652B36",
"r  c #663336",
"t  c #6B3432",
"y  c #6D3A37",
"u  c #62323D",
"i  c #753531",
"p  c #743C32",
"a  c #7B432F",
"s  c #7B4533",
"d  c #7E4934",
"f  c #764539",
"g  c #7B4C3C",
"h  c #542C4D",
"j  c #5D3445",
"k  c #57324E",
"l  c #5A344A",
"z  c #5B3A4E",
"x  c #532F51",
"c  c #543654",
"v  c #543957",
"b  c #593A53",
"n  c #593A55",
"m  c #553C59",
"M  c #622B42",
"N  c #712B44",
"B  c #653A47",
"V  c #613349",
"C  c #773D46",
"Z  c #3D785A",
"A  c #3A6F62",
"S  c #57415C",
"D  c #59445D",
"F  c #5B495F",
"G  c #68465D",
"H  c #564866",
"J  c #5B4B61",
"K  c #5E5265",
"L  c #57506C",
"P  c #59536F",
"I  c #595570",
"U  c #605767",
"Y  c #655B64",
"T  c #625B6A",
"R  c #715465",
"E  c #586E71",
"W  c #597B73",
"Q  c #65646E",
"!  c #6F706C",
"~  c #666572",
"^  c #696773",
"/  c #666A73",
"(  c #6A6B72",
")  c #656C7A",
"_  c #726D75",
"`  c #6B7276",
"'  c #6A747B",
"]  c #6E7B7C",
"[  c #717B77",
"{  c #71747A",
"}  c #707E7C",
"|  c #861009",
" . c #8B110D",
".. c #820E13",
"X. c #8D0E12",
"o. c #8E0D18",
"O. c #940F13",
"+. c #990F16",
"@. c #881715",
"#. c #801C16",
"$. c #841518",
"%. c #921A17",
"&. c #9D101E",
"*. c #A00E1C",
"=. c #A6111F",
"-. c #8A2012",
";. c #892816",
":. c #812219",
">. c #922D15",
",. c #933E1E",
"<. c #9B1424",
"1. c #AC0E26",
"2. c #AF0E28",
"3. c #B50E2C",
"4. c #A21225",
"5. c #833A24",
"6. c #8D3C22",
"7. c #853F2B",
"8. c #854128",
"9. c #824B31",
"0. c #874A36",
"q. c #855134",
"w. c #8A5532",
"e. c #8E5934",
"r. c #84533A",
"t. c #8B5B3B",
"y. c #925E35",
"u. c #AD532E",
"i. c #B95A35",
"p. c #8E603D",
"a. c #936136",
"s. c #94643A",
"d. c #97683C",
"f. c #996B3E",
"g. c #A45C4B",
"h. c #8E6241",
"j. c #926844",
"k. c #9A6E40",
"l. c #9D7444",
"z. c #BA6C4C",
"x. c #A07746",
"c. c #A07947",
"v. c #A37D4A",
"b. c #AB6255",
"n. c #8A5D6B",
"m. c #B86964",
"M. c #B17F6F",
"N. c #C74D50",
"B. c #C16441",
"V. c #CD776B",
"C. c #368E4F",
"Z. c #3A8557",
"A. c #4C8E5D",
"S. c #4B8B62",
"D. c #50856B",
"F. c #5E8472",
"G. c #678777",
"H. c #72847F",
"J. c #A5814D",
"K. c #6E6B81",
"L. c #747C82",
"P. c #758581",
"I. c #7A8485",
"U. c #778882",
"Y. c #7B8C84",
"T. c #798488",
"R. c #818C87",
"E. c #838C8B",
"W. c #8B8C8A",
"Q. c #84928A",
"!. c #88968D",
"~. c #8E9A90",
"^. c #919690",
"/. c #919C94",
"(. c #AD9387",
"). c #9FAA9D",
"_. c #AFAEAA",
"`. c #F0A697",
"'. c #E0B1A9",
"]. c #D6D5C8",
"[. c #D4D6D4",
/* pixels */
"H.H.H.H.H.H.H.H.H.H.H.H.H.H.H.H.H.H.H.H.H.H.H.H.H.H.H.H.H.P.H.H.H.H.H.H.H.H.H.H.H.H.H.H.H.H.H.H.H.H.H.H.H.H.H.H.H.H.H.H.H.H.H.H.",
"H.H.H.H.H.H.H.H.H.H.H.H.H.H.H.H.H.H.H.H.H.H.H.H.H.H.H.H.H.H.H.H.H.H.H.H.H.H.H.H.H.H.H.H.H.H.H.H.H.H.H.H.H.H.H.H.H.H.H.H.H.H.H.H.",
"H.H.H.H.H.H.H.P.H.H.H.H.H.H.H.H.H.H.H.H.H.H.H.H.H.H.H.H.H.H.H.H.H.H.H.H.H.H.H.H.H.H.H.H.H.H.H.H.H.H.H.H.H.H.H.H.H.H.H.H.H.H.H.H.",
"H.H.H.H.H.H.H.H.H.H.H.H.H.H.H.H.H.H.H.P.H.H.H.H.H.H.H.H.H.H.H.H.H.H.H.H.H.G.G.F.G.F.H.P.H.H.H.H.H.H.H.H.H.H.H.H.H.H.H.H.H.H.H.H.",
"H.H.H.H.H.H.H.H.H.H.H.H.H.H.H.] ] ] ' ] H.H.H.H.H.H.H.H.H.H.H.H.H.H.H.H.H.W Z.C.Z.W H.P.H.H.H.H.H.H.] H.H.H.] ] ) ~ L.] H.H.H.H.",
"H.H.H.H.H.H.H.H.H.H.H.H.H.H.H.] ' ' ' ] H.H.H.H.H.H.H.H.H.H.H.H.H.H.H.H.G.] ` A G.E.Y.!.Q.H.H.H.H.] ' H.H.H.' ] ^ ( Q.Y.P.H.H.H.",
"H.H.H.H.H.H.H.H.H.H.H.H.H.H.H.H.H.H.H.H.H.H.H.H.H.H.H.H.H.H.H.H.H.H.H.H.] P.P.~ !.H.H.H.H.H.H.H.H.] ] H.H.H.H.H.] R.U.H.H.H.H.H.",
"H.H.H.H.H.H.H.H.H.H.H.H.H.H.H.H.H.H.H.H.H.H.H.H.H.H.H.H.H.H.H.H.H.H.H.H.P.P.P.' H.H.H.H.H.H.H.H.H.H.P.H.H.H.H.H.] ' H.H.H.H.H.H.",
"H.P.H.H.H.H.H.H.H.H.H.H.H.H.H.H.H.H.H.H.H.H.H.H.H.H.H.H.H.H.H.H.H.H.H.H.H.H.H.' H.H.H.H.H.H.H.H.H.P.!.H.H.H.H.H.] ] H.H.H.H.H.H.",
"H.H.H.H.H.H.H.H.H.H.H.H.H.H.H.H.H.H.H.H.H.H.H.H.H.H.H.H.H.H.H.H.H.H.H.P.H.H.H.H.H.H.H.H.H.H.H.H.H.] E.H.H.H.H.H.P.H.H.H.H.H.H.H.",
"H.H.H.H.H.H.H.H.H.H.H.P.H.H.H.H.H.H.H.H.H.H.H.H.H.H.H.H.H.H.H.H.H.H.H.H.H.H.H.H.H.H.H.H.H.H.H.H.H.] E.P.H.H.H.H.H.H.H.H.H.H.H.H.",
"H.H.H.H.H.H.H.H.H.H.H.H.H.H.H.H.H.H.H.H.H.H.H.H.H.H.H.H.H.H.H.H.H.H.H.H.H.H.H.H.H.H.H.H.H.H.H.H.H.] ` ).!.Y.Y.H.H.H.H.H.H.H.H.H.",
"H.H.H.H.H.H.H.H.H.H.H.H.H.H.H.H.H.H.H.H.H.H.H.H.H.H.H.H.H.H.H.H.H.H.H.H.H.H.H.H.H.H.H.H.) ' ) Q / K K ( ( { K.] H.H.H.H.H.H.H.H.",
"H.H.H.H.H.H.H.H.H.H.H.H.H.H.H.H.H.H.H.H.H.H.H.H.H.H.H.H.H.H.H.H.H.H.H.H.H.H.H.H.H.H.H.H.H.H.H.H.P.) { Y.H.H.H.H.H.H.H.H.H.H.H.H.",
"H.H.H.H.H.H.H.H.H.H.H.H.H.H.H.H.H.H.H.H.H.H.H.H.H.H.H.H.H.H.H.H.H.H.H.H.H.H.H.H.H.H.H.H.H.H.H.H.H.] W.Q.H.H.H.H.H.H.H.H.H.H.H.H.",
"H.H.H.H.H.H.H.H.H.H.H.H.H.H.H.H.H.H.H.H.H.H.H.H.H.H.] F F Q H.Q H F F ` H.H.H.H.H.H.H.H.H.H.H.H.H.] E.H.H.H.H.H.H.H.H.H.H.H.H.H.",
"H.H.H.H.H.H.H.H.H.H.H.H.H.H.H.H.H.H.H.H.H.H.H.H.[ F D c c m F S c c c D J ` H.G.H.H.H.H.H.H.H.H.H.] Y.P.H.H.H.H.H.H.H.H.Y.Y.Q.!.",
"H.H.H.H.H.H.H.H.H.H.H.H.H.H.H.H.H.H.H.H.H.H.] K D c k r r 3 k j r r r k c S F ] H.H.H.H.H.H.H.H.H.] I.P.H.H.H.H.H.] H.H.Y.P.P.P.",
"H.H.H.H.H.H.H.H.H.H.H.H.H.H.H.H.H.H.H.H.H.G.F c z r y w.w.d r a w.w.e.p r l z F ] H.H.H.H.H.H.H.H.H.H.H.H.H.H.H.] ' P.H.H.H.P.H.",
"H.H.H.H.H.H.H.H.H.H.H.P.H.H.H.H.H.H.H.H.H.K v u g q.w.l.v.f.w.e.f.v.c.y.9.t 3 c F ` H.H.H.H.H.H.H.H.H.H.H.H.H.H.] H.P.] H.H.H.H.",
"H.H.H.H.H.H.H.H.H.H.H.H.H.H.H.H.H.H.H.H.H.` S c l 9 a a.s.a.y.d.c.v.s.q.a 9 j z c F [ H.H.H.H.H.H.H.H.H.H.H.H.H.H.H.H.H.H.H.H.H.",
"H.H.H.H.H.H.H.H.H.H.H.H.H.H.H.H.H.H.H.H.` F k j y s s.J.J.v.d.e.s.s.d s w.9.q.g u m K H.H.H.H.H.H.H.H.H.H.H.H.H.H.H.H.H.H.H.H.H.",
"H.H.H.H.H.H.H.H.H.H.H.H.H.H.H.H.H.H.H.H.T v 3 r q.l.v.J.J.c.q.r.l.v.J.J.d.d y j c D H.H.H.H.H.H.H.H.H.H.H.H.H.H.H.H.H.H.P.G.H.] ",
"H.H.H.H.H.H.H.H.H.H.H.H.H.H.H.H.H.H.H.H.` S c z f a.a.l.l.j.s.a p p.l.l.J.l.a.f l S ` H.H.H.H.H.H.H.H.H.H.H.H.H.H.H.P.P.P.P.P.] ",
"H.H.H.H.H.H.H.H.H.H.H.H.H.H.H.H.H.H.` / D k j g h.k.w.9.d w w 9.w w a w.x.e.f.w.p l D ` H.H.H.H.H.H.P.P.H.H.H.H.H.H.H.H.H.H.H.H.",
"H.H.H.H.H.H.H.H.H.H.H.H.H.H.H.H.H.` F c l e t r.s 9.w.r.q.9.d f.a.s.t.w.f.9.a d f V m Q H.H.H.H.P.P.] P.H.H.H.H.P.H.H.H.H.H.H.H.",
"H.H.P.H.H.H.H.H.H.H.H.H.H.H.H.H.H.T c l 0.r.s 0 a 9.k.v.f.p.t.J.f.l.J.a.a w.g.8.k m Q H.H.H.H.H.G.P.G.P.H.H.H.H.G.P.H.H.H.H.H.H.",
"H.H.H.H.H.H.H.H.H.H.H.H.H.H.H.H.( F l g j.r.i ,.g.y.f.p.w.l.a.x.f.x.l.y.0 w.`.u.z D H.H.H.H.H.H.L.P.H.H.H.H.H.H.L.P.H.H.H.H.H.H.",
"H.H.H.H.H.H.H.H.H.H.H.H.H.H.H.H.T c u j.r.9 + >.i.9.w.w s l.e.f.f.s.y.0.g.q.z.0.n / H.H.H.H.H.H.G.P.P.] H.H.H.H.H.H.H.H.P.L.P.H.",
"H.H.H.H.H.H.H.H.H.H.H.H.H.H.H./ S l g s.p @ &. .>.,.w 7 p w.9.f.t.9.s b.B.C B m / H.H.H.H.H.H.H.P.P.P.P.H.H.H.H.H.H.H.H.G.P.H.H.",
"H.H.H.H.H.H.H.H.H.H.H.H.H.H.H.Q c 3 h.r.9 #.1.=.=. .q 6.p 9.w y.s 9.i u.0.c v S ] G.H.H.H.H.H.H.H.H.H.H.H.H.H.H.H.H.H.H.H.H.H.H.",
"H.H.H.H.H.H.H.H.H.H.H.H.H.P.H.Q c 3 h.g 7 O 1.3.2. .O + $ 5.6.9.w 9 - @ G P m v L ] H.H.H.H.H.H.H.H.H.H.H.H.H.H.H.P.H.H.H.H.H.H.",
"H.H.H.P.] H.H.H.H.H.H.H.P.P.P.Q c j h.d 6 O X.2.1....   | @.:.a a @ ..B W._.K.L m L H.H.H.H.H.H.H.H.H.H.H.H.H.H.H.H.H.H.H.H.H.H.",
"H.H.H.] ) H.H.H.H.H.H.H.P.P.G.Q v j d p 7 <   @.  % % X.1.1.=.# :.*.1.G /.].[.T.I m K ] H.H.H.H.H.H.H.H.H.H.H.H.H.H.H.H.H.H.H.H.",
"H.H.H.] ) P.H.H.H.H.H.H.H.H.H.] U c : p 0 6 = = * & % O.3.3.3.&.&.3.+.M { ).].[.T.L m K H.H.H.H.H.H.H.H.H.H.H.H.H.H.H.H.H.H.H.H.",
"H.H.P.] ) H.H.H.H.H.H.H.H.H.H.H.Q m c : i w 6 6 6 5 < O.3.3.3.3.3.3.o.* k { _.].~.I v J H.H.H.H.H.H.H.H.H.H.H.H.H.H.H.H.H.H.] H.",
"H.H.H.H.E P.} H.H.H.H.H.H.H.H.H.} T m c : i 5 5 5 5 4 %.2.3.3.3.3.3., & * V W.^.L.H m K H.H.H.H.H.H.H.H.H.H.H.H.H.H.H.H.H.H.] I.",
"H.H.H.] ) H.P.P.H.H.P.H.H.H.H.H.P.H.T m c : ; ; ; ; 7 8.%.2.3.3.3.3.@.%   o.N V H v K P.H.H.H.H.H.H.H.H.H.H.H.H.H.H.H.H.H.H.] ' ",
"H.H.H.H.H.H.H.H.H.H.H.H.H.H.H.H.H.H.H.T J v c v c h = 0 8.%.4.=.1.%.# > X.1.3.$.k F H.H.H.H.H.H.H.H.H.H.H.H.H.H.H.H.H.H.H.P.] ' ",
"H.H.H.H.H.H.H.H.H.H.H.H.H.H.H.H.P.H.H.H.P.T L J v x - + 8 5.5.;.-.6.@ 8 <.3.2.$.k D H.H.H.H.H.H.H.H.H.H.H.H.H.H.H.H.H.H.H.P.] ] ",
"H.H.H.H.H.H.H.H.H.H.H.H.H.H.H.H.H.H.H.H.H.H.H.] K v h % | #.q 6.6.#.. D 2 1.4.8 v T H.H.H.H.H.H.H.H.H.H.H.H.H.H.H.H.H.P.H.H.H.H.",
"H.H.H.H.H.H.H.H.H.H.H.H.H.H.H.H.H.H.H.H.H.H.H.H.[ m h % | o % X   | 1 n.m.N.%.l H [ H.H.H.H.H.H.H.H.H.H.H.H.H.H.H.H.H.H.H.H.H.H.",
"H.H.H.H.H.H.H.H.H.H.H.H.H.H.H.H.H.H.H.H.H.H.H.H.] m k < | o & %   O.2 V.`.`.C b T H.H.H.H.H.H.H.H.P.H.H.H.H.H.H.H.H.H.H.H.H.H.H.",
"H.H.H.H.H.H.H.H.H.H.H.H.H.H.H.H.H.H.H.H.H.H.H.H.` m l 0 5.< - X O.2.O.M.(.'.R S } H.H.H.H.H.H.H.H.H.H.H.H.H.H.H.H.H.H.H.H.H.H.H.",
"H.H.P.P.H.P.P.P.P.P.H.H.H.H.H.H.H.H.H.H.H.] ] ] ` ^ c w w.a 1 X *.3.O.R T n.D ~ H.P.H.H.H.H.H.H.H.H.H.G.H.H.H.H.H.H.H.H.H.H.H.H.",
"H.H.P.P.G.S.A.A.D.P.H.H.H.H.H.H.H.H.H.H.H.H.] H.P.} Q j w r l 1 *.3.O.j v m / ] H.H.H.H.H.H.H.H.H.H.P.P.H.H.H.H.H.H.H.H.H.H.H.H.",
"H.H.G.P.K.E Z Z.' P.Y.U.H.H.H.H.' ] H.H.' / K ) } P.H.` ! Y c 6 X.O.$ l v / H.H.H.H.H.H.H.H.H.H.H.H.P.P.H.H.H.H.H.H.H.H.H.H.H.H.",
"H.H.P.P.P.P.E P.!.Y.Y.U.H.H.H.H.' P.H.P.P.P./ ~.R.Y.H.H.H./ v 3 4 7.0 l m ' P.H.H.H.H.H.H.H.H.H.H.H.P.] H.H.H.H.H.H.H.H.H.H.H.H.",
"H.H.H.H.H.H.] P.P.G.P.P.] H.H.H.L.H.H.H.H.H.' P.P.H.H.H.H.H.I j a 9.t z / ] L.G.H.H.P.P.P.G.] P.H.H.H.H.H.H.H.H.H.G.H.H.H.H.H.H.",
"H.H.H.H.H.H.] ' P.P.P.P.P.H.H.H.Y.P.H.H.H.H.' H.H.H.H.H.H.H.H.Y S a S / H.P.P.P.H.H.H.P.P.P.P.P.H.H.H.H.H.H.H.H.P.P.H.H.H.H.H.H.",
"H.H.H.H.H.H.H.] P.P.P.G.H.H.H.H.I.U.H.P.H.H.H.H.H.H.H.H.H.H.H.] ! G.] H.H.H.P.P.H.H.L.G.L.G.P.P.H.H.H.H.H.H.H.H.P.P.P.H.H.H.H.H.",
"H.H.H.H.H.H.P.H.L.G.P.L.H.H.H.H.L.Y.H.P.H.H.H.H.H.H.H.H.H.H.H.H.H.H.H.H.H.H.P.L.H.H.P.P.P.P.G.H.H.H.H.H.H.H.H.H.P.] H.H.H.H.H.H.",
"H.H.H.H.H.H.H.H.G.P.G.P.H.P.P.P.' ~.!.Y.P.P.H.H.H.H.H.H.H.H.H.H.H.H.H.H.H.H.] E H.H.H.H.H.H.H.H.H.H.H.H.H.G.H.H.H.H.H.H.H.H.H.H.",
"H.H.H.H.H.H.H.H.P.P.L.) E / ~ ~ J ^ _ { L.' H.H.H.H.H.H.H.P.H.H.H.H.H.H.H.H.] ' H.H.H.H.H.H.H.H.H.H.H.H.P.P.H.H.H.H.H.H.H.H.H.H.",
"H.H.H.H.H.H.H.H.P.P.H.H.P.P.P.] ~ Y.H.H.G.P.H.H.H.H.H.H.H.H.H.H.H.H.H.H.H.H.L.G.H.H.H.H.H.H.H.H.H.P.P.H.P.H.P.H.H.H.H.H.H.H.H.H.",
"H.H.H.H.H.H.H.H.P.P.P.] P.P.G.P.L.Q.H.P.P.P.H.H.H.H.H.H.H.H.H.H.H.H.H.H.H.P.P.P.H.H.H.H.H.H.H.H.G.P.P.L.H.H.] P.H.H.H.H.H.H.H.H.",
"H.H.H.H.H.L.P.P.] P.H.H.H.H.G.P.L.U.P.H.H.H.H.H.H.H.H.H.H.H.H.H.H.H.H.H.H.H.H.H.P.] P.P.P.L.H.H.H.H.H.H.H.H.H.H.H.G.P.P.P.H.H.H.",
"H.H.H.H.H.P.P.G.H.H.H.H.H.H.P.P.I.U.P.H.H.H.H.P.H.H.H.H.H.H.H.H.H.H.H.H.H.H.H.H.P.P.P.G.H.P.H.H.H.H.H.H.H.H.H.H.P.P.G.H.H.H.H.H.",
"H.H.P.P.H.H.H.H.H.H.H.H.H.H.P.] ] P.H.H.H.H.] ] H.H.H.H.H.H.H.H.H.H.H.H.H.H.H.H.G.P.G.P.H.H.H.H.H.H.H.H.H.H.H.H.P.H.H.H.H.H.H.H.",
"H.H.P.G.H.H.H.H.H.H.H.H.H.H.P.P.H.H.H.H.H.H.' H.H.H.H.H.H.H.H.H.H.H.H.H.H.H.H.H.L.P.P.P.H.H.H.H.P.G.H.H.H.H.H.H.P.L.H.H.P.H.H.H.",
"H.H.H.P.H.H.H.H.H.H.H.H.H.H.H.H.H.H.H.H.H.H.H.H.H.H.H.H.H.H.H.H.H.H.H.H.H.H.H.H.G.P.P.] H.H.H.H.P.] P.P.H.H.H.H.H.H.H.H.] H.H.H.",
"H.H.H.H.H.H.H.H.H.H.H.H.H.H.H.H.H.H.H.H.H.H.H.H.H.H.H.H.` _ ` ' H.H.H.H.H.H.H.H.H.H.P.P.H.H.H.H.P.P.P.G.H.H.H.H.H.H.H.P.P.H.H.H.",
"H.H.H.H.H.H.H.H.H.H.H.H.H.H.H.H.H.H.H.H.H.H.H.H.H.H.H.H.H.H.H.H.H.H.H.H.H.H.H.H.H.H.H.H.H.H.H.H.H.H.P.L.H.H.H.H.H.H.] P.P.G.H.H.",
"H.H.H.H.H.H.H.H.H.H.H.H.H.H.H.H.H.H.H.H.H.H.H.H.H.H.H.H.H.H.H.H.H.H.H.H.H.H.H.H.H.H.H.H.H.H.H.H.H.H.H.P.H.H.H.H.H.H.P.P.P.H.H.H."
};
