/* XPM */
static char *result[] = {
/* columns rows colors chars-per-pixel */
"64 64 205 2 ",
"   c #7F1613",
".  c #7A271E",
"X  c #5D162D",
"o  c #550D32",
"O  c #5B1933",
"+  c #741E27",
"@  c #601E31",
"#  c #5F313F",
"$  c #6B252E",
"%  c #6A2C2E",
"&  c #762623",
"*  c #71212C",
"=  c #6E342E",
"-  c #74342D",
";  c #733A2F",
":  c #7D3D2A",
">  c #682B34",
",  c #702837",
"<  c #693131",
"1  c #62343D",
"2  c #723B32",
"3  c #793839",
"4  c #7C432F",
"5  c #7F482F",
"6  c #7B4531",
"7  c #7F4932",
"8  c #774438",
"9  c #521E43",
"0  c #532145",
"q  c #592641",
"w  c #5D3243",
"e  c #5A344E",
"r  c #5B364E",
"t  c #532F51",
"y  c #543453",
"u  c #563956",
"i  c #5B3854",
"p  c #543B58",
"a  c #613441",
"s  c #6F3240",
"d  c #633E51",
"f  c #3D785A",
"g  c #3A6F62",
"h  c #57405B",
"j  c #5B425C",
"k  c #6C4245",
"l  c #734A47",
"z  c #725055",
"x  c #574764",
"c  c #5E4C62",
"v  c #554A68",
"b  c #5E5365",
"n  c #5C5169",
"m  c #5B5C75",
"M  c #644962",
"N  c #605767",
"B  c #645669",
"V  c #625B69",
"C  c #635770",
"Z  c #586E71",
"A  c #597B73",
"S  c #64626D",
"D  c #666572",
"F  c #696773",
"G  c #666B75",
"H  c #6A6B73",
"J  c #656B7A",
"K  c #746674",
"L  c #736B75",
"P  c #6A7076",
"I  c #69737B",
"U  c #6E7B7C",
"Y  c #71747B",
"T  c #7E7478",
"R  c #707E7C",
"E  c #89150D",
"W  c #92170D",
"Q  c #9D0F1A",
"!  c #841713",
"~  c #841515",
"^  c #941419",
"/  c #9C131D",
"(  c #A10F1D",
")  c #A51B1D",
"_  c #9D2B0E",
"`  c #872E1A",
"'  c #97361B",
"]  c #A53A17",
"[  c #891E28",
"{  c #9D1220",
"}  c #B40E2B",
"|  c #A91528",
" . c #B5152A",
".. c #BA1C39",
"X. c #89202D",
"o. c #883522",
"O. c #963A25",
"+. c #A92420",
"@. c #9A421C",
"#. c #AA4618",
"$. c #B64E1D",
"%. c #86462E",
"&. c #9A4825",
"*. c #984E2C",
"=. c #824C32",
"-. c #8D4F3D",
";. c #8A5430",
":. c #8F5932",
">. c #865438",
",. c #85553C",
"<. c #8B5C3D",
"1. c #925E34",
"2. c #935B39",
"3. c #B6562A",
"4. c #B1443B",
"5. c #966136",
"6. c #95653B",
"7. c #96693D",
"8. c #996C3E",
"9. c #B8613A",
"0. c #C7651D",
"q. c #C34D26",
"w. c #87344E",
"e. c #844843",
"r. c #8B5E40",
"t. c #935847",
"y. c #895A5A",
"u. c #BC5743",
"i. c #8D6040",
"p. c #9A6E40",
"a. c #9C7243",
"s. c #A47946",
"d. c #A37D4A",
"f. c #AE6555",
"g. c #8E6F75",
"h. c #976A77",
"j. c #B6776B",
"k. c #B97E74",
"l. c #C8414A",
"z. c #D2545A",
"x. c #CA6846",
"c. c #CC6D4B",
"v. c #D16F49",
"b. c #C76559",
"n. c #CA785B",
"m. c #D67754",
"M. c #C87B65",
"N. c #D56F79",
"B. c #368E4F",
"V. c #3A8557",
"C. c #4C8E5D",
"Z. c #53876A",
"A. c #678777",
"S. c #72847F",
"D. c #A5814D",
"F. c #D98565",
"G. c #CE8B75",
"H. c #E58D79",
"J. c #E19679",
"K. c #577988",
"L. c #6E7681",
"P. c #6E7880",
"I. c #747B82",
"U. c #7B7F87",
"Y. c #8E7B84",
"T. c #AD7C86",
"R. c #D57686",
"E. c #758581",
"W. c #7A8285",
"Q. c #798984",
"!. c #7B8C84",
"~. c #7B8389",
"^. c #838987",
"/. c #828C8B",
"(. c #96878C",
"). c #99868A",
"_. c #84928A",
"`. c #88968D",
"'. c #8E9B91",
"]. c #909792",
"[. c #969D97",
"{. c #9EA69B",
"}. c #A0AB9F",
"|. c #9F9FA3",
" X c #9BA7AA",
".X c #B4BAAB",
"XX c #A9ABB6",
"oX c #D5908A",
"OX c #E59C89",
"+X c #E19C92",
"@X c #EB9F92",
"#X c #EAA18F",
"$X c #EDA496",
"%X c #F3A998",
"&X c #DFABA1",
"*X c #C1BDB9",
"=X c #E9B6AE",
"-X c #F5BAAA",
";X c #FCC3B6",
":X c #F4C6BC",
">X c #FFC9BD",
",X c #BBC2C0",
"<X c #D6D3C3",
"1X c #DCDBD1",
"2X c #E2E0D7",
/* pixels */
"S.S.S.S.S.S.S.S.S.S.S.S.S.S.S.S.S.S.S.S.S.S.S.S.S.S.S.S.S.S.S.S.S.S.S.S.S.S.S.S.S.S.S.S.S.S.S.S.S.S.S.S.S.S.S.S.S.S.S.S.S.S.S.S.",
"S.S.S.S.S.S.S.S.S.S.S.S.S.S.S.E.S.S.S.S.S.S.S.S.S.S.S.S.S.S.S.S.S.S.S.S.S.S.S.S.S.S.S.S.S.S.S.S.S.S.S.S.S.S.S.S.S.S.S.S.S.S.S.S.",
"S.S.S.S.S.S.S.S.S.S.S.S.S.S.S.S.S.S.S.E.S.S.S.S.S.S.S.S.S.S.S.S.S.S.S.S.S.A.S.S.S.S.E.E.S.S.S.S.S.S.S.S.S.S.S.S.S.S.S.S.S.S.S.S.",
"S.S.S.S.S.S.S.S.S.S.S.S.S.S.S.S.S.S.S.E.S.S.S.S.S.S.S.S.S.S.S.S.S.S.S.S.S.A.A.A.A.A.S.E.S.S.S.S.S.S.S.S.S.S.S.S.S.S.S.S.S.S.S.S.",
"S.S.S.S.S.S.S.S.S.S.S.S.S.S.S.U I U U U S.S.S.S.S.S.S.S.S.S.S.S.S.S.S.S.S.A V.B.V.A S.E.S.S.S.S.S.A.S.S.S.S.S.I I D U S.S.S.S.S.",
"S.S.S.S.S.S.S.S.S.S.S.S.S.S.S.U I I I U S.S.S.S.S.S.S.S.S.S.S.S.S.S.S.S.S.I P g A./.!.`._.S.S.S.E.U J S.S.S.I I S H /.!.S.S.S.S.",
"S.S.S.S.S.S.S.S.S.S.S.S.S.S.S.S.S.S.S.S.S.S.S.S.S.S.S.S.S.S.S.S.S.S.S.S.S.S.S.F _.E.S.S.S.S.S.S.S.U I S.S.S.S.S.U ^.Q.S.S.S.S.S.",
"S.S.S.S.S.S.S.S.S.S.S.S.S.S.S.S.S.S.S.S.S.S.S.S.S.S.S.S.S.S.S.S.S.S.S.S.S.S.E.I S.S.S.S.S.S.S.S.S.S.E.E.S.S.S.S.U I S.S.S.S.S.S.",
"S.S.S.S.S.S.S.S.S.S.S.S.S.S.S.S.S.S.S.S.S.S.S.S.S.S.S.S.S.S.S.S.S.S.S.S.S.S.S.I S.S.S.S.S.S.S.S.S.S.`.S.S.S.S.S.U U S.S.S.S.S.S.",
"S.S.S.S.S.S.S.S.S.S.S.S.S.S.S.S.S.S.S.S.S.S.S.S.S.S.S.S.S.S.S.S.S.E.S.S.S.S.S.S.S.S.S.S.S.S.S.S.S.U /.S.S.S.S.S.E.E.S.S.S.S.S.S.",
"S.S.S.S.S.S.S.S.S.S.S.S.S.S.S.S.S.S.S.S.S.S.S.S.S.S.U b b V S.R b b b V S.S.S.S.S.S.S.S.S.S.S.S.S.U /.Q.S.S.S.S.S.S.S.S.S.S.S.S.",
"S.S.S.S.S.S.S.S.S.S.S.S.S.S.S.S.S.S.S.S.S.S.S.S.S.S b p u p b b p p p p b b S.E.S.S.S.S.S.S.S.S.S.U U [.`.!.Q.E.S.S.S.S.S.S.S.S.",
"S.S.S.S.S.S.S.S.S.S.S.S.S.S.S.S.S.S.S.S.S.S.A.V b p y # # # y u w # # w y p b b U S.S.S.P I G S G N b F H Y I I S.S.S.S.S.S.S.S.",
"S.S.S.S.S.S.S.S.S.S.S.S.S.S.S.S.S.S.S.S.S.R N h y # # 6 4 6 # 1 6 5 5 6 # # y p b S.S.S.S.S.S.S.S.P Y !.S.S.E.E.S.S.S.S.S.S.S.S.",
"S.S.S.S.S.S.S.S.S.S.S.S.S.S.S.S.S.S.S.S.R N u # 8 6 5 8.a.8.=.7 :.8.a.8.=.6 # # p b S.S.S.S.S.S.S.U /._.S.S.S.S.S.S.S.S.S.S.S.S.",
"S.S.S.S.S.S.S.E.S.S.S.S.S.S.S.S.S.S.S.S.S.S p e k 6 5 6.8.D.8.7 p.D.D.7.:.4 < w y p b S.S.S.S.S.S.R ^.S.S.S.S.S.S.S.S.S.S.S.S.S.",
"S.S.S.S.S.S.S.S.S.S.S.S.S.S.S.S.S.S.S.S.U V u y # < 7 8.a.d.7.2 7 7.p.7 4 4 5 l 8 a u N R S.S.S.S.U /.E.S.S.S.S.S.S.S.S.Q.!._.`.",
"S.S.S.S.S.S.S.S.S.S.S.S.S.S.S.S.S.S.S.R N u # 1 6 7 8.D.D.D.8.=.r.p.a.i.<.;.4 6 k w u S R S.S.S.S.U W.S.S.S.S.S.U U S.S.!.E.E.E.",
"S.S.S.S.S.S.S.S.S.S.S.S.S.S.S.S.S.S.S.R S u w w 6 :.8.8.D.D.D.a.a.D.D.D.D.p.<.6 w u h U S.S.S.S.S.S.S.S.S.S.S.S.U U E.S.S.S.E.E.",
"S.S.S.S.S.S.S.S.S.S.S.S.S.S.S.S.S.S.S.S.U h u # 4 4 :.8.d.8.a.d.a.p.D.D.a.a.8.7.7 # u V R S.S.S.S.S.S.S.S.S.S.S.E.U E.U S.S.S.S.",
"S.S.S.S.S.S.S.S.S.S.S.S.S.S.S.S.S.S.S.U b u 1 6 4 =.7.7.6.5 :.D.d.5.8.d.6.a.=.6.:.6 w u V R S.S.S.S.S.S.S.S.S.S.S.S.S.S.S.S.S.S.",
"S.S.S.S.S.S.S.S.S.S.S.S.S.S.S.S.S.S.S.V u # < 6 5 :.7.:.4 = 4 6.s.*.=.6.:.6.=.6 6 k w u V S.S.S.S.S.S.S.S.S.S.S.S.S.S.S.S.S.S.S.",
"S.S.S.S.S.S.S.S.S.S.S.S.S.S.S.S.S.S.S.V p w w < ; 5 ;.5 @.o.' 5 5.$.@.&.: 4 ;.f.*.r h S R S.S.S.S.S.S.S.S.S.S.S.S.S.S.S.P.E.S.U ",
"S.S.S.S.S.S.S.S.S.S.S.S.S.S.S.S.S.S.S.S.S u r %.k.f.:.&.c.c.3.j.>.c.v.v.&.= 2.OX3.r h U S.S.S.S.S.S.S.S.S.S.S.S.S.S.S.S.E.E.E.A.",
"S.S.S.S.S.S.S.S.S.S.S.S.S.S.S.S.S.S.S.S.R V i e.M.OXt.G.^.y.n.-XoXG.y.^.G.k.t.G.e.p F R E.E.S.S.S.S.S.S.S.S.S.S.S.S.S.S.S.S.S.S.",
"S.S.S.S.S.S.S.S.S.S.S.S.S.S.S.S.S.S.R V N v p i -.n.j.=X XK.&X>X>X&XK. X:X#X4.y.i p R E.S.I.S.S.S.S.S.S.S.S.S.S.S.S.S.S.S.S.S.S.",
"S.S.S.S.S.S.S.S.S.S.S.S.S.S.S.S.S.R V p v v v v e ' x.#X:X*X:X>X>X:X*X:X-Xc.' $ e p N B U S.S.S.S.S.S.S.S.S.S.S.S.S.S.S.S.S.S.S.",
"S.S.S.S.S.S.S.S.S.S.S.S.S.S.S.S.R V p v L.XX|.^.c ! ] H.;X>X>X>X>X>X>X>X@X] E ^ + $ y p V R S.S.E.S.S.S.S.S.S.S.S.S.S.S.S.S.S.S.",
"S.S.S.S.S.S.S.S.S.S.S.S.S.S.S.S.V p v L.,X2X<X}.B ~ W c.%X;X%XF.F.%X>X%Xx.W ( } ( { * y p N A.S.S.S.S.S.S.S.S.S.S.S.S.S.S.S.S.S.",
"S.S.S.S.S.S.S.S.S.S.S.S.S.S.S.I h p m [.1X<X.XU.j   W $.9.#X%XJ.J.%X@Xq.#.W } } } } { * y h I S.S.S.S.S.S.S.S.S.S.S.S.S.S.S.S.S.",
"S.S.S.S.S.E.S.S.S.S.S.S.S.S.S.U h p m _..X.X`.m i ~ ) 0.+.4.b.#X$Xb.4.) ] W } } } } } ~ e p U S.S.S.S.S.S.S.S.S.S.S.S.S.S.S.S.S.",
"S.S.S.S.S.S.S.S.S.S.S.S.S.S.S.S.S p x J I.L V x * {  .#.c.| | l.l.| ( q._ E [ X.X.X.X.& e p b S.S.S.S.S.S.S.S.S.S.S.S.S.S.S.S.S.",
"S.S.S.S.S.S.S.S.S.S.S.S.S.S.S.S.U j y , , $ + + E } } | z.R...} }  .$.] . . : 7 <.<.<.,.a y p n U E.E.S.S.S.S.S.S.S.S.S.S.S.S.S.",
"S.S.S.S.J S.S.S.S.S.S.S.S.S.S.S.U p e ~ Q Q E ~ * / } } ..R.+XF.m.q.#.. 4 =.7.a.8.7.7.<.,.q y p N S.S.S.S.S.S.S.S.S.S.S.S.S.S.S.",
"S.S.S.U J S.S.S.S.S.S.S.S.S.S.S.U p t ~ } } ( ~ w o./ } } ..N.b.u.#.. 5 8.a.7.,.:.:.;.; <.8 q t p U S.S.S.S.S.S.S.S.S.S.S.S.S.S.",
"S.S.S.U J S.S.S.S.S.S.S.S.S.S.S.R S y , | } } , u s o.( } } } } { & 5 8.<.6.;.; ;.:.;.; ;.6.$ 9 u U S.S.S.S.S.S.S.S.S.S.S.S.R S.",
"S.S.S.U J S.S.S.S.S.S.S.S.S.S.S.S.U p a ..z.R.T.j e ` o.O.( } ( ^ - 6.6.; ;.;.= ;.:.;.; ;.;.% o p U S.S.S.S.S.S.S.S.S.S.S.S.I W.",
"S.S.S.S.P S.S.S.S.S.S.S.S.S.S.S.S.S.D i w.@X%X+XM e ! ` 4 o.O.o.& =.a.:.; ;.;.=.:.:.;.- ;.;.% o i U S.S.S.S.S.S.S.S.S.S.S.S.U I ",
"S.S.S.S.S.S.S.S.S.S.S.S.S.S.S.S.S.S.I h M =X$Xh.N T y.y.z o.` ` - 7.7.;.; ;.:.:.:.:.;.=.;.;.% o p U S.S.S.S.S.S.S.S.S.S.S.S.U I ",
"S.S.S.S.S.S.S.S.S.S.S.S.S.S.S.S.S.E.R S j h.Y.C U.~.R S 3 Q Q ~ - a.1.;.; ;.:.:.:.:.;.5 ;.;.% o i U S.S.S.S.S.S.S.S.S.S.S.S.U U ",
"S.S.S.S.S.S.S.S.S.S.S.S.S.S.S.S.S.S.S.R S p p ~.U.~.L.Y.s } } ~ - a.6.;.; ;.:.:.:.:.;.; ;.;.@ 9 u U S.S.S.S.S.S.S.S.S.S.S.S.S.S.",
"S.S.S.S.S.S.S.S.S.S.S.S.S.S.S.S.S.S.S.S.R S M ].L.!.P.[.).w.^ ~ - a.:.;.; ;.;.5 ;.:.;.; ;.; o t h U S.S.S.S.E.S.S.S.S.S.S.S.S.S.",
"S.S.S.S.S.S.S.S.S.S.S.S.S.S.S.S.S.S.S.S.S.R c W.n V ~.P.[.).s , < 3 i.:.; ;.;.; ;.:.;.= ; O 0 p S S.S.S.S.S.S.S.S.S.S.S.S.S.S.S.",
"S.S.S.S.S.S.S.S.S.S.S.S.S.S.S.S.S.S.S.S.S.U j c p p L ~.L.[.(.d < - 3 ;.= ;.;.2 ;.;.4 % X 9 u V U S.S.S.S.S.S.S.S.S.S.S.S.S.S.S.",
"S.S.S.S.S.E.P.E.S.S.S.S.S.S.S.S.S.S.S.S.S.U H S H H h K ~.L.[.(.k ,.- > < ;.;.- ; $ O # 0 p S A.S.S.S.S.S.S.S.S.S.S.S.S.S.S.S.S.",
"S.S.S.S.A.C.C.C.Z.S.S.S.S.S.S.S.S.S.S.S.S.S.U S.S.S.S h K ~.L.[.(.z 3 O O $ $ X O O 0 p b S S.S.S.S.S.S.S.S.S.S.S.S.S.S.S.S.S.S.",
"S.S.S.S.I Z f V.U I.!.Q.S.S.S.S.I S.S.S.I G b G U E.U S j K ~.P.[.(.d e 0 0 9 9 0 p b D S.S.S.S.S.S.S.S.S.S.S.S.S.S.S.S.S.S.S.S.",
"S.S.S.E.E.E.J Q.`.!.!.!.S.S.S.S.J S.S.S.S.S.G '._.!.S.S.S j L /.'.{.(.x V S S S D D S.S.S.S.S.S.S.S.S.S.S.S.S.S.S.S.S.S.S.S.S.S.",
"S.S.S.S.S.S.I P.E.E.S.S.S.S.S.S.S.S.S.S.S.S.I E.S.S.S.S.S.V j L {..X*XB U S.S.S.S.S.S.S.S.S.S.S.S.S.S.S.S.S.S.S.S.S.S.S.S.S.S.S.",
"S.S.S.S.S.E.A.P.S.S.S.S.S.S.S.S.!.S.S.S.S.S.I S.S.S.S.S.S.U S j L Y.g.j U S.S.S.S.S.S.S.S.S.S.S.S.S.S.S.S.S.S.S.S.S.S.S.S.S.S.S.",
"S.S.S.S.U E.A.S.S.S.S.S.S.S.S.S.W.Q.S.S.S.S.R S.S.S.S.S.S.S.S.S S S S S R S.S.S.S.S.S.S.S.S.S.S.S.S.S.S.S.S.S.S.S.S.S.S.S.S.S.S.",
"S.S.S.S.E.E.E.S.S.S.S.S.S.S.S.S.U.!.S.S.S.S.S.S.S.S.S.S.S.S.S.S.S.S.S.S.S.S.S.U S.S.S.S.S.S.S.S.S.S.S.S.S.S.S.S.S.S.S.S.S.S.S.S.",
"S.S.S.S.S.S.S.S.S.S.S.S.S.S.S.S.I '._.!.Q.E.S.S.S.S.S.S.S.S.S.S.S.S.S.S.S.S.S.J S.S.S.S.S.S.S.S.S.S.S.S.S.S.S.S.S.S.S.S.S.S.S.S.",
"S.S.S.S.S.S.S.S.S.S.S.J J G H S c H Y Y U I S.S.S.S.S.S.S.S.S.E.S.S.S.S.S.S.S.I S.S.S.S.S.S.S.S.S.S.S.S.S.S.S.S.S.S.S.S.S.S.S.S.",
"S.S.S.S.S.S.S.S.S.S.S.S.S.S.S.S.S !.S.S.E.S.S.S.S.S.S.S.S.S.S.S.S.S.S.S.S.S.S.S.S.S.S.S.S.S.S.S.S.S.S.S.S.S.S.S.S.S.S.S.S.S.S.S.",
"S.S.S.S.S.S.S.S.S.S.S.S.S.S.S.S.I.`.S.S.S.S.S.S.S.S.S.S.S.S.S.S.S.S.S.S.S.S.S.S.S.S.S.S.S.S.S.S.S.S.S.S.S.S.S.S.S.S.S.S.S.S.S.S.",
"S.S.S.S.S.S.S.S.S.S.S.S.S.S.S.S.I.Q.E.S.S.S.S.S.S.S.S.S.S.S.S.S.S.S.S.S.S.S.S.S.S.S.S.S.S.S.S.S.S.S.S.S.S.S.S.S.S.S.S.S.S.S.S.S.",
"S.S.S.S.S.S.S.S.S.S.S.S.S.S.S.S.I.E.E.S.S.S.S.S.S.S.S.S.S.S.S.S.S.S.S.S.S.S.S.S.S.S.S.S.S.S.S.S.S.S.S.S.S.S.S.S.S.S.S.S.S.S.S.S.",
"S.S.S.S.S.S.S.S.S.S.S.S.S.S.S.S.U E.S.S.S.S.I S.S.S.S.S.S.S.S.S.S.S.S.S.S.S.S.S.S.S.S.S.S.S.S.S.S.S.S.S.S.S.S.S.S.S.S.S.S.S.S.S.",
"S.S.S.S.S.S.S.S.S.S.S.S.S.S.S.S.S.S.S.S.S.S.I S.S.S.S.S.S.S.S.S.S.S.S.S.S.S.S.S.S.S.S.S.S.S.S.S.S.S.S.S.S.S.S.S.S.S.S.S.S.S.S.S.",
"S.S.S.S.S.S.S.S.S.S.S.S.S.S.S.S.S.S.S.S.S.S.S.S.S.S.S.S.S.S.S.S.S.S.S.S.S.S.S.S.S.S.S.S.S.S.S.S.S.S.S.S.S.S.S.S.S.S.S.S.S.S.S.S.",
"S.S.S.S.S.S.S.S.S.S.S.S.S.S.S.S.S.S.S.S.S.S.S.S.S.S.S.S.I I J U S.S.S.S.S.S.S.S.S.S.S.S.S.S.S.S.S.S.S.S.S.S.S.S.S.S.S.S.S.S.S.S.",
"S.S.S.S.S.S.S.S.S.S.S.S.S.S.S.S.S.S.S.S.S.S.S.S.S.S.S.S.S.S.S.S.S.S.S.S.S.S.S.S.S.S.S.S.S.S.S.S.S.S.S.S.S.S.S.S.S.S.S.S.S.S.S.S.",
"S.S.S.S.S.S.S.S.S.S.S.S.S.S.S.S.S.S.S.S.S.S.S.S.S.S.S.S.S.S.S.S.S.S.S.S.S.S.S.S.S.S.S.S.S.S.S.S.S.S.S.S.S.S.S.S.S.S.S.S.S.S.S.S."
};
