/* XPM */
static char *result[] = {
/* columns rows colors chars-per-pixel */
"64 64 195 2 ",
"   c #5D1B3C",
".  c #7A3C3A",
"X  c #5E2541",
"o  c #632543",
"O  c #6C3440",
"+  c #733746",
"@  c #783241",
"#  c #3A6F62",
"$  c #7A4441",
"%  c #7B4C45",
"&  c #7A534D",
"*  c #624357",
"=  c #6A4551",
"-  c #644C5C",
";  c #7B5B55",
":  c #7C5D56",
">  c #77645E",
",  c #7E635D",
"<  c #5E5066",
"1  c #695964",
"2  c #62596A",
"3  c #586E71",
"4  c #597B73",
"5  c #6B656C",
"6  c #786A63",
"7  c #7A746A",
"8  c #666572",
"9  c #696773",
"0  c #666B75",
"q  c #6C6D71",
"w  c #656C7A",
"e  c #726D75",
"r  c #6B7075",
"t  c #69737B",
"y  c #6E7C7D",
"u  c #727471",
"i  c #747B75",
"p  c #71747B",
"a  c #717E7A",
"s  c #95260D",
"d  c #9B2C0E",
"f  c #9D320F",
"g  c #8E2B1B",
"h  c #9D3214",
"j  c #99341F",
"k  c #A5380F",
"l  c #A43B13",
"z  c #882E24",
"x  c #902F23",
"c  c #8A3323",
"v  c #953627",
"b  c #863A34",
"n  c #9A3B34",
"m  c #A03F25",
"M  c #AF4913",
"N  c #AB471B",
"B  c #B44C13",
"V  c #BA5616",
"C  c #BD5B16",
"Z  c #B55519",
"A  c #BE651C",
"S  c #994729",
"D  c #955439",
"F  c #A64A29",
"G  c #A85529",
"H  c #AA562F",
"J  c #B45D31",
"K  c #BF692B",
"L  c #AF6336",
"P  c #B86639",
"I  c #C05F16",
"U  c #C36517",
"Y  c #C46719",
"T  c #C66C19",
"R  c #C86D1A",
"E  c #CB741B",
"W  c #CF791C",
"Q  c #D17C1D",
"!  c #C16323",
"~  c #C66C24",
"^  c #CB772A",
"/  c #C97633",
"(  c #CB7C34",
")  c #984E47",
"_  c #82544D",
"`  c #90504E",
"'  c #845656",
"]  c #A96543",
"[  c #B86A42",
"{  c #B77448",
"}  c #837160",
"|  c #A76B66",
" . c #BA7672",
".. c #C37C49",
"X. c #368E4F",
"o. c #3A8557",
"O. c #4C8E5D",
"+. c #53876A",
"@. c #678777",
"#. c #72847F",
"$. c #D4821E",
"%. c #D48422",
"&. c #D3842A",
"*. c #CE833E",
"=. c #D58A37",
"-. c #DC9637",
";. c #B38367",
":. c #BA8A64",
">. c #BF9371",
",. c #CD8241",
"<. c #CB844D",
"1. c #D18742",
"2. c #D18A44",
"3. c #D4924B",
"4. c #DB9B48",
"5. c #CA8951",
"6. c #CE9255",
"7. c #D99B55",
"8. c #E09F41",
"9. c #DDA056",
"0. c #DCA45C",
"q. c #E1A345",
"w. c #E0A64C",
"e. c #E3AA52",
"r. c #E2AB5D",
"t. c #E6B054",
"y. c #E7B459",
"u. c #CB9066",
"i. c #D89961",
"p. c #C38374",
"a. c #C99878",
"s. c #DAA664",
"d. c #D7A479",
"f. c #D7AE79",
"g. c #E4B266",
"h. c #E3B46B",
"j. c #EABD6A",
"k. c #E6BA76",
"l. c #EEC46D",
"z. c #EBC375",
"x. c #E5C17B",
"c. c #EBC47C",
"v. c #EEC979",
"b. c #F0CB74",
"n. c #F1CD7A",
"m. c #F4D37F",
"M. c #747C82",
"N. c #758581",
"B. c #7A8485",
"V. c #778882",
"C. c #7B8C85",
"Z. c #838C88",
"A. c #838C8B",
"S. c #84938A",
"D. c #88968D",
"F. c #8E9A90",
"G. c #929F93",
"H. c #C78E81",
"J. c #D9A283",
"K. c #DDB289",
"L. c #D9AB95",
"P. c #E0AE81",
"I. c #E6BA87",
"U. c #DAB3A7",
"Y. c #D4B4B3",
"T. c #E8C186",
"R. c #F1CE85",
"E. c #F3D381",
"W. c #F6D884",
"Q. c #F2D38A",
"!. c #F6D98A",
"~. c #EAC699",
"^. c #F7DC94",
"/. c #F5DB98",
"(. c #F8E09D",
"). c #E8C6A9",
"_. c #F4DAA8",
"`. c #E1C3BE",
"'. c #F2DCBA",
"]. c #F8E2A4",
"[. c #F9E5AF",
"{. c #FAE8B7",
"}. c #F6E3BB",
"|. c #FAEABD",
" X c #E2C7C4",
".X c #ECDBD6",
"XX c #FAEBC4",
"oX c #F7E7C8",
"OX c #F9ECD1",
"+X c #FAEFDB",
"@X c #FCF2D8",
"#X c #F7ECE2",
"$X c #FDF6E6",
"%X c #FDF8EA",
"&X c #FCF9F3",
/* pixels */
"#.#.#.#.#.#.#.#.#.#.#.#.#.#.#.#.#.#.#.#.#.#.#.#.#.#.#.#.#.#.#.#.#.#.#.#.#.#.#.#.#.#.#.#.#.#.#.#.#.#.#.#.#.#.#.#.#.#.#.#.#.#.#.#.",
"#.#.#.#.#.#.#.#.#.#.#.#.#.#.#.#.#.#.#.#.#.#.#.#.#.#.#.#.#.#.#.#.#.#.#.#.#.#.#.#.#.N.#.#.#.#.#.#.#.#.#.#.#.#.#.#.#.#.#.#.#.#.#.#.",
"#.#.#.#.#.#.#.N.#.#.#.#.#.#.#.#.#.#.#.#.#.#.#.#.#.#.#.#.#.#.#.#.#.#.#.#.N.N.#.#.@.N.#.N.#.#.#.#.#.#.#.#.#.#.#.#.#.#.#.#.#.#.#.#.",
"#.#.#.#.#.#.#.#.#.#.#.#.#.#.#.#.#.#.#.#.#.#.#.#.#.#.#.#.#.#.#.#.#.#.#.#.#.@.@.+.@.@.#.N.#.#.#.#.#.#.#.#.#.#.#.#.#.#.#.#.#.#.#.#.",
"#.#.#.#.#.#.#.#.#.#.#.#.#.#.#.y y y t #.#.#.#.#.#.#.#.#.#.#.#.#.#.#.#.#.#.4 o.X.o.4 y N.#.#.#.#.#.#.y #.#.#.y y t 8 y y #.#.#.#.",
"#.#.#.#.#.#.#.#.#.#.#.#.#.#.#.y t t t y #.#.#.N.#.#.#.#.#.#.#.N.#.#.#.#.y y r # @.A.C.D.S.#.#.#.#.y t #.#.#.t t 8 q S.C.N.#.#.#.",
"#.#.#.#.#.#.#.#.#.#.#.#.#.#.#.#.#.#.#.#.#.#.#.#.#.#.#.#.#.#.#.#.#.#.#.#.#.#.N.8 D.#.#.#.#.#.#.#.#.y y #.#.#.#.#.y Z.V.#.#.#.#.#.",
"#.#.#.#.#.#.#.#.#.#.#.#.#.#.#.#.#.#.#.#.#.#.#.#.#.#.#.#.#.#.#.#.#.#.#.#.#.N.N.t #.#.#.#.#.#.#.#.#.#.#.#.#.#.#.#.p t #.#.#.#.#.#.",
"#.#.#.#.#.#.#.#.#.#.#.#.#.#.#.#.#.#.#.#.#.#.#.#.#.#.N.#.#.#.#.#.#.#.#.#.#.#.#.w #.#.#.#.#.#.#.#.N.N.D.N.#.#.#.#.y y #.#.#.#.#.#.",
"#.#.#.#.#.#.#.#.#.#.#.#.#.#.#.#.#.#.#.#.#.#.#.#.#.#.#.#.#.#.#.#.#.#.#.#.#.#.#.#.#.#.#.#.#.#.#.#.@.y A.N.#.#.#.#.#.N.#.#.#.#.#.#.",
"#.#.#.#.#.#.#.#.#.#.#.#.#.#.#.#.#.#.#.#.#.#.#.#.#.#.#.#.#.#.#.#.#.#.#.#.#.#.#.#.#.#.#.#.#.#.#.#.N.M.A.V.#.#.#.#.#.#.#.#.#.#.#.#.",
"#.#.#.#.#.#.#.#.#.#.#.#.#.#.#.#.#.#.#.#.#.#.#.#.#.#.#.#.#.#.#.#.#.#.#.#.#.#.#.#.#.#.#.#.#.#.#.#.#.t p G.D.C.V.N.#.#.#.#.#.#.#.#.",
"#.#.#.#.#.#.#.#.#.#.#.#.#.#.#.#.#.#.#.#.#.#.#.#.#.#.#.#.#.#.#.#.#.#.#.#.#.#.#.#.#.#.#.#.w t 0 8 0 2 < 9 q p M.t #.#.#.#.#.#.#.#.",
"#.#.#.#.#.#.#.#.#.#.#.#.#.#.#.#.#.#.#.#.#.#.#.#.#.#.#.#.#.#.#.#.#.#.#.#.#.#.#.#.#.#.#.#.#.#.#.#.#.r t C.#.#.y #.#.#.#.#.#.#.#.#.",
"#.#.#.#.#.#.#.#.#.#.N.#.#.#.#.#.#.#.#.#.#.#.#.#.#.#.#.#.#.#.#.#.#.#.#.#.#.#.#.N.#.#.#.#.#.#.#.#.#.y S.Z.#.#.#.#.#.#.#.#.#.#.#.#.",
"#.#.#.#.#.#.#.#.#.#.#.#.#.#.#.#.#.#.#.#.#.#.#.#.#.#.#.#.#.#.#.#.#.#.#.#.#.#.#.#.#.#.#.#.#.#.#.#.#.y A.#.#.#.#.#.#.#.#.#.#.N.#.#.",
"#.#.#.#.N.#.#.#.#.#.#.#.#.#.#.#.#.#.#.#.#.#.#.#.#.#.#.#.#.#.#.C.C.#.#.#.#.#.#.#.#.#.#.#.#.#.#.#.#.y A.#.#.#.#.#.#.#.#.#.C.Z.S.S.",
"#.#.#.#.#.#.#.#.#.#.#.#.#.#.#.#.#.#.#.#.#.#.#.#.#.#.#.#.#.#.#.#.N.#.#.#.#.#.#.#.#.#.#.#.#.#.#.#.#.y B.#.#.#.#.#.#.y #.#.S.#.#.#.",
"#.#.#.#.#.#.#.#.#.#.#.#.#.#.#.#.#.#.#.#.#.#.#.#.#.#.y ; & & & & & & & & 6 #.#.#.#.#.#.#.#.#.#.#.#.#.#.#.#.#.#.#.y t #.#.#.#.#.#.",
"#.#.#.#.#.#.#.#.#.#.#.#.#.#.#.#.#.#.#.#.#.#.#.#.i 7 7 ` n n n n v v j j D 7 7 i #.#.#.#.#.#.#.#.#.#.#.#.#.#.#.#.y #.#.y #.#.#.#.",
"#.#.#.#.#.#.#.#.#.#.#.#.#.#.#.#.#.#.#.#.#.#.#.#.' v L U..X.X.X.X).z.k.k.6.G c , a #.#.#.#.#.#.#.#.#.#.#.#.#.#.#.#.N.#.#.#.#.#.#.",
"#.#.#.#.#.#.#.#.#.#.#.#.#.#.#.#.#.#.#.#.#.#.a % | U.)._.[.[.[.{.(.W.W.W.z.0.6._ - #.#.#.#.#.#.#.#.#.#.#.#.#.#.#.#.#.#.#.#.#.#.#.",
"#.#.#.#.#.#.#.#.#.#.#.#.#.N.#.#.#.#.#.#.#.i : | Y.&XOXc.7.6.7.7.9.9.9.t.l.E.m.;.& 1 i #.#.#.#.#.#.#.#.#.#.#.#.#.#.#.#.#.#.#.#.#.",
"#.#.#.#.#.#.#.#.#.#.#.#.#.#.#.#.#.#.#.#.i , ) `.&XOXk.=.Z d V V Z C C E q.b.E.R.u.+ 5 y #.#.#.#.#.#.#.#.#.#.#.#.#.#.#.#.#.#.#.y ",
"#.#.#.#.#.#.#.#.#.#.#.#.#.#.#.#.#.#.#.#.' )  X&XoXk.m N B V E Q Q Q Q Q %.8.b.m.n.a.. 2 @.#.#.#.#.#.#.#.#.#.#.#.#.#.#.#.#.#.#.#.",
"#.#.#.#.#.#.#.#.#.#.#.#.#.#.#.#.#.#.i % S ..$XXXd.H l I R ^ e.^ *.e.~ E $.%.8.l.E.z.L . - #.#.#.#.#.#.#.#.N.#.#.#.#.#.#.#.#.#.#.",
"#.#.#.#.#.#.#.#.#.#.#.#.#.#.#.#.#.#.i z J T.}.d.J f I 7.h.k._.i.9.b.2.^ W $.$.q.l.n.w.F $ #.#.#.#.#.#.#.#.#.#.#.#.#.#.#.#.#.#.#.",
"#.#.#.#.#.#.#.#.#.#.#.#.#.#.#.#.#.y 6 c H.+Xc.F d I ^ ).#X&X$X~.c.^.n.1.T Q $.%.w.E.m.*.D u #.#.#.#.#.#.#.#.#.#.#.#.#.#.#.#.#.#.",
"#.#.#.#.#.#.#.N.#.#.#.#.#.#.#.#.#.6 c A K.oX2.k d I Q ^ L.%X/.[ p.@X!.v.3.I W Q 4.m.m.4.G X r #.#.#.#.#.#.#.#.#.#.#.#.#.#.#.#.#.",
"#.#.#.#.#.#.#.#.#.#.#.#.#.#.#.#.#.> g 2.Q.I.N k B R Q E P.$XQ.F  .$X^.W.6.l W $.%.3.b.l.{   q #.#.#.#.#.#.#.#.#.#.#.#.#.#.#.#.#.",
"#.#.#.#.#.#.#.#.#.#.#.#.#.#.#.#.#.> c K./.s.g l U $.$.$.I.$XQ.J p.$X^.W.5.s R $.T K z.W.:.  q #.#.#.#.#.#.#.#.#.#.#.#.#.#.#.#.#.",
"#.#.#.#.#.#.#.#.#.#.#.#.#.#.#.#.#.> x `.XXs.h l U Q $.$.I.$XQ.<.J.@X^.z...f E $.T A z.W.:.  r #.#.#.#.#.#.#.#.#.#.#.#.#.#.#.#.#.",
"#.N.N.@.y #.#.#.N.N.#.#.#.#.#.#.a 6 x  XXXg.Z M U $.$.$.I.$X/.'.'.(.R.[ N E $.$.R ! z.W.:.  r #.#.#.#.#.#.#.#.#.#.#.#.#.#.#.#.#.",
"#.N.N.M.3 #.#.#.N.N.@.#.N.#.#.#.N.6 x K./.h.V B U $.$.$.r.[.Q.a.L.|.!.i.P B E $.R ! j.W.:.  q #.#.#.#.#.#.#.#.#.#.#.#.#.#.#.#.#.",
"#.#.@.M.w N.#.N.M.#.#.#.@.N.#.#.N.> g 3.b.j.! V U $.$.$.r.].n.J p.$X^.W.5.s E E ^ *.b.z.{   0 #.#.#.#.#.#.#.#.#.#.#.#.#.#.#.#.#.",
"#.#.N.M.w M.#.#.#.#.#.#.M.N.#.#.M.6 c ! t.l.=.C U $.Q -.T.@XQ.<.J.+X^.v.{ d T A ,.Q.E.4.H X r N.#.#.#.#.#.#.#.#.#.#.#.#.#.#.y #.",
"#.#.#.y 3 N.N.#.#.#.@.N.#.#.#.#.#.y > G 3.W.j.~ U $.&.~.'.^.!.'.'.^.R.[ l B E A u.OXQ.P b q #.#.#.#.#.#.#.#.#.#.#.#.#.#.#.#.t C.",
"#.#.#.y 0 N.N.#.#.#.N.N.#.#.#.#.#.#.i S K y.n.r.( R %.i.u...c.a.d.z.{ N M T U =.~.+Xg.S . a #.#.#.#.#.#.#.#.#.#.#.#.#.#.#.#.y t ",
"#.#.#.#.N.y #.#.#.#.#.#.#.#.N.M.#.#.@.$ F / n.W.r.^ Q Y M N 5.G J 5.h B U E / k.}.'.P . * @.#.#.#.#.#.#.#.#.#.#.#.#.#.#.#.#.y t ",
"#.#.#.#.#.#.#.#.#.#.#.#.#.#.#.N.#.#.#.i % F h.E.E.j.-.Q W Y l A Z h M Y R / T.oXoXf.+ 1 y a #.#.#.#.#.#.#.#.#.#.#.#.#.#.#.N.y y ",
"#.#.#.#.#.#.#.#.#.#.#.#.#.#.N.@.#.#.#.#.u ' H h.W.m.l./ T W T W W U B V ( x.OX|.a.+ 5 y #.#.#.#.#.#.#.#.#.#.#.#.#.#.#.#.#.#.#.#.",
"#.#.#.#.#.#.#.#.#.#.#.#.#.#.#.#.#.#.#.#.#.7 & ] 0.W.m.0.w.t.t.t.t.e.7.d.).XX}.>.' 1 a #.#.#.#.#.#.#.#.#.#.#.#.#.#.#.#.#.#.#.#.#.",
"#.#.#.#.#.#.#.#.#.#.#.#.#.#.#.#.#.#.#.#.#.#.y $ ] s.g.v.W.W.W.W.W.W.W.XX.XY.a._ * #.#.#.#.#.#.#.#.#.#.#.#.#.#.#.#.#.#.#.#.#.#.#.",
"#.#.#.#.#.#.#.#.#.#.#.#.#.#.#.#.#.#.#.#.#.#.#.#.& j J 0.x.z.z.x.x.x.x.I.;.o o 1 a #.#.#.#.#.#.#.#.#.#.#.#.#.#.#.#.#.#.#.#.#.#.#.",
"#.#.#.#.#.N.N.N.#.#.#.#.#.#.#.#.#.#.#.#.#.i t @.u 6 } D F v v b . @ O + = 9 5 t #.#.#.#.#.#.#.#.#.#.#.#.#.#.#.#.#.#.#.#.#.#.#.#.",
"#.#.#.#.@.O.O.O.+.N.#.#.#.#.#.#.#.#.#.#.#.#.y a #.N.a ; % % % = * + < X 1 #.#.#.#.#.#.#.#.#.#.#.#.#.#.#.#.#.#.#.#.#.#.#.#.#.#.#.",
"#.#.#.#.y 3 # o.y N.C.V.#.#.#.#.w #.M.#.t 0 2 9 p V.#.#.#.#.#.#.N.N.N.N.N.#.#.#.#.#.#.#.#.#.#.#.#.#.#.#.#.#.#.#.#.#.#.#.N.#.#.#.",
"#.#.#.#.#.N.w V.D.C.C.C.#.#.#.#.w #.N.N.N.N.0 F.C.Z.#.#.#.#.#.#.N.N.N.N.#.#.#.#.#.#.#.#.#.#.#.#.#.#.#.#.#.#.#.#.#.#.#.#.#.#.#.#.",
"#.#.#.#.N.#.y M.@.N.#.#.#.#.#.#.M.#.#.#.#.#.t N.#.#.#.#.#.#.#.#.#.#.#.#.#.#.N.N.#.#.#.#.#.N.#.N.#.#.#.#.#.#.#.#.#.#.#.#.#.#.#.#.",
"#.#.#.#.y N.y y N.N.#.#.#.#.#.#.C.V.#.#.#.#.t #.#.#.#.#.#.#.#.#.#.#.#.#.#.#.#.N.#.#.#.#.#.#.#.y #.#.#.#.#.#.#.#.#.#.#.#.#.#.#.#.",
"#.#.#.#.N.#.@.y #.#.#.#.#.#.#.#.B.V.#.#.#.#.#.#.#.#.#.#.#.#.#.#.#.#.#.#.#.#.N.N.#.#.#.#.#.#.N.N.#.#.#.#.#.#.#.#.#.#.#.#.#.#.#.#.",
"#.#.#.#.N.N.N.#.#.#.#.#.#.#.N.#.M.C.#.N.#.#.#.#.#.#.#.#.#.#.#.#.#.#.#.#.#.#.@.y #.#.#.#.#.#.N.N.#.N.#.#.#.#.#.#.#.#.#.#.#.#.#.#.",
"#.#.#.#.#.#.#.#.#.#.#.#.#.@.N.N.t F.D.C.N.N.N.N.#.#.#.#.#.#.#.#.#.#.#.#.#.#.y w #.#.#.#.#.#.#.@.#.#.#.#.#.#.#.#.#.#.#.#.#.#.#.#.",
"@.#.#.#.#.#.#.#.#.#.y t w 8 8 8 < 9 e p M.t y N.#.#.#.#.#.#.#.#.#.#.#.#.#.#.#.w #.#.#.#.#.#.#.#.#.#.#.#.#.#.#.#.#.#.#.#.#.#.#.#.",
"N.N.y #.#.#.#.#.#.#.#.#.#.#.#.y 8 C.@.N.N.@.@.N.#.#.#.#.#.#.N.#.#.#.#.#.#.#.#.#.#.#.#.#.#.#.#.#.#.#.#.#.#.#.#.#.#.#.#.#.#.#.#.#.",
"N.N.N.#.#.#.#.#.#.#.#.#.#.#.#.N.M.S.M.N.N.N.M.N.#.#.#.#.#.#.#.#.#.#.#.#.#.#.#.#.#.#.#.#.#.#.#.#.#.#.#.#.#.#.#.#.#.#.#.#.#.#.N.#.",
"#.#.#.#.#.#.#.#.#.#.#.#.#.#.#.#.M.V.N.N.N.N.N.N.#.#.#.#.#.N.N.N.#.#.#.#.#.#.#.#.N.N.N.#.#.#.#.#.#.#.#.#.#.#.#.#.#.#.#.#.#.#.#.#.",
"#.#.#.#.#.#.#.#.N.#.#.#.#.#.#.#.N.N.N.N.M.@.@.N.#.#.#.#.#.y N.N.#.#.#.#.#.#.#.#.@.N.N.#.#.#.#.#.#.#.#.#.#.#.#.#.#.#.#.#.#.#.#.#.",
"#.#.#.#.#.#.#.#.#.#.#.#.#.#.#.#.t N.#.#.N.N.M.y #.@.#.#.#.#.N.@.#.#.#.#.#.#.#.#.#.#.#.#.#.#.#.#.#.#.#.#.#.#.#.#.#.#.#.#.#.#.#.#.",
"#.#.N.#.#.#.#.#.#.#.#.#.#.#.#.#.#.#.#.#.N.@.w N.N.N.#.#.#.#.N.N.#.#.#.#.#.#.N.#.#.#.#.#.#.#.#.#.#.#.#.#.#.#.#.#.#.#.#.#.#.#.#.#.",
"#.#.#.#.#.#.#.#.#.#.#.#.#.#.#.#.#.#.#.#.#.#.M.@.N.N.N.#.N.@.N.N.#.#.#.#.#.#.#.#.#.#.#.#.#.#.#.#.#.#.#.#.#.#.#.#.#.#.#.#.#.#.#.#.",
"#.#.#.#.#.#.#.#.#.#.#.#.#.#.#.#.#.#.#.#.#.N.N.#.N.y #.#.w w w t #.#.#.#.#.#.#.#.#.#.#.#.#.#.#.#.#.#.#.#.N.#.#.#.#.#.#.#.#.#.#.#.",
"#.#.#.#.#.#.#.#.#.#.#.#.#.#.#.#.#.#.#.#.#.#.#.#.#.#.#.#.#.#.#.#.#.#.#.#.#.#.#.#.#.#.#.#.#.#.#.#.#.#.#.#.#.#.#.#.#.#.#.#.#.#.#.#.",
"#.#.#.#.#.#.#.#.#.#.#.#.#.#.#.#.#.#.#.#.#.#.#.#.#.#.#.#.#.#.#.#.#.#.#.#.#.#.#.#.#.#.#.#.#.#.#.#.#.#.#.#.#.#.#.#.#.#.#.#.#.#.#.#."
};
