/* XPM */
static char *result[] = {
/* columns rows colors chars-per-pixel */
"64 64 150 2 ",
"   c #5F374E",
".  c #5E3B52",
"X  c #553F5E",
"o  c #5A3E59",
"O  c #6B3746",
"+  c #66374A",
"@  c #673C4D",
"#  c #693E4D",
"$  c #753C43",
"%  c #633E55",
"&  c #3D785A",
"*  c #56435F",
"=  c #5B425C",
"-  c #6D434E",
";  c #784446",
":  c #72444C",
">  c #794649",
",  c #754A4E",
"<  c #7B4B4C",
"1  c #7C504E",
"2  c #634155",
"3  c #6A4453",
"4  c #6F4B56",
"5  c #624459",
"6  c #654C5E",
"7  c #684A5B",
"8  c #734D53",
"9  c #755256",
"0  c #7B5452",
"q  c #7A5856",
"w  c #71575D",
"e  c #765B5C",
"r  c #7A5D5B",
"t  c #78625F",
"y  c #574965",
"u  c #5B4D63",
"i  c #564C6A",
"p  c #5F5567",
"a  c #55506F",
"s  c #5C546A",
"d  c #5F5B6D",
"f  c #555371",
"g  c #5B5A74",
"h  c #5D5E79",
"j  c #624E63",
"k  c #6A4B60",
"l  c #645664",
"z  c #695362",
"x  c #675B67",
"c  c #6E5E63",
"v  c #625469",
"b  c #625B6C",
"n  c #6C5C6D",
"m  c #625D74",
"M  c #715E72",
"N  c #586E71",
"B  c #5F617B",
"V  c #65636E",
"C  c #6B656D",
"Z  c #6D6B6E",
"A  c #746564",
"S  c #786462",
"D  c #776A67",
"F  c #766D6A",
"G  c #786A6A",
"H  c #75726E",
"J  c #646473",
"K  c #6A6473",
"L  c #666A73",
"P  c #6A6C73",
"I  c #65667F",
"U  c #646C7A",
"Y  c #6A6B7C",
"T  c #746673",
"R  c #736D76",
"E  c #6B7275",
"W  c #66727B",
"Q  c #6A757B",
"!  c #6D7C7D",
"~  c #737572",
"^  c #747A75",
"/  c #72747A",
"(  c #7C777C",
")  c #737E7A",
"_  c #7F7D7F",
"`  c #855652",
"'  c #875955",
"]  c #885854",
"[  c #88655F",
"{  c #93605C",
"}  c #8B6762",
"|  c #816D67",
" . c #8F6B64",
".. c #8C726A",
"X. c #9E746E",
"o. c #837A75",
"O. c #8F7870",
"+. c #A0766F",
"@. c #3B835D",
"#. c #4C8E5D",
"$. c #4C8A62",
"%. c #50856B",
"&. c #6D837D",
"*. c #69887A",
"=. c #72847F",
"-. c #6D7681",
";. c #717385",
":. c #747C83",
">. c #777989",
",. c #797B8A",
"<. c #817F80",
"1. c #758581",
"2. c #7A8486",
"3. c #778882",
"4. c #7B8B85",
"5. c #7D858A",
"6. c #7F8C88",
"7. c #7F9087",
"8. c #858584",
"9. c #888786",
"0. c #808C87",
"q. c #888688",
"w. c #838C8A",
"e. c #8E8E8A",
"r. c #84938B",
"t. c #8B948D",
"y. c #8A9A8F",
"u. c #90978B",
"i. c #8E8E97",
"p. c #8A9691",
"a. c #8D9B92",
"s. c #919B93",
"d. c #9A9D96",
"f. c #969E9A",
"g. c #9D9B9A",
"h. c #AE8981",
"j. c #A89E9E",
"k. c #94A295",
"l. c #9CA89B",
"z. c #AAA09E",
"x. c #A1AA9D",
"c. c #A1A2A2",
"v. c #A9AAA6",
"b. c #ACA9A9",
"n. c #AAB3A4",
"m. c #AFB3A8",
"M. c #B6B1AA",
"N. c #BAB7AD",
"B. c #B3B9AA",
"V. c #BBBCB1",
/* pixels */
"=.=.=.=.=.=.=.=.=.=.=.=.=.=.=.=.=.=.=.Q =.=.=.=.=.=.=.=.=.=.=.Q =.=.=.=.=.=.=.=.=.=.=.=.=.=.=.=.=.=.=.=.=.=.=.=.=.=.=.=.=.=.=.=.",
"=.=.=.=.=.=.=.=.=.=.=.=.=.=.=.=.=.=.W ! =.=.=.=.=.=.=.=.=.=.=.=.=.=.=.1.=.=.=.=.=.=.=.=.=.=.=.=.=.=.=.=.=.=.=.=.=.=.=.=.=.=.=.=.",
"=.=.=.=.=.=.=.=.=.=.=.=.=.=.=.=.=.=.=.=.=.=.=.=.=.=.=.=.=.=.=.=.=.=.=.=.=.=.=.=.=.=.=.=.=.=.=.=.=.=.1.1.=.=.=.=.=.=.=.=.=.=.=.=.",
"=.=.=.=.=.=.=.=.=.=.=.=.=.=.=.=.=.=.=.=.=.=.1.=.=.=.=.=.=.=.=.=.=.=.=.=.=.=.=.=.=.=.=.=.=.=.=.=.=.=.=.=.=.=.=.=.=.=.=.=.=.=.=.=.",
"=.=.=.=.=.=.=.=.=.=.=.=.=.=.=.=.=.=.=.=.=.=.=.=.=.=.=.=.=.=.=.=.=.=.=.=.=.=.=.=.=.=.=.=.=.=.=.=.=.=.=.=.=.=.=.=.=.=.=.=.=.=.=.=.",
"=.=.=.=.=.=.=.=.=.=.=.=.=.=.=.=.=.=.=.=.=.=.=.=.=.=.=.=.=.=.=.=.=.=.=.=.=.=.=.=.=.=.=.=.=.=.=.=.! =.=.=.=.=.=.=.=.=.=.=.=.=.=.=.",
"=.=.=.=.1.=.=.=.=.=.=.=.=.=.=.1.=.=.=.=.=.=.=.=.=.=.=.=.=.=.=.=.=.=.=.=.=.=.=.=.&.1.=.=.=.=.=.=.=.=.=.=.=.! Q =.=.=.=.=.=.=.=.=.",
"=.=.=.=.=.=.=.=.=.=.=.=.=.=.=.=.=.=.=.=.=.=.=.=.=.=.=.=.=.=.=.=.=.=.=.=.=.=.=.=.1.=.=.=.=.=.=.=.=.=.=.=.=.=.=.2.=.=.=.=.=.=.=.=.",
"=.=.=.=.=.=.=.=.=.=.=.=.=.=.=.=.=.=.=.=.=.=.=.=.=.=.=.=.=.=.=.=.=.=.=.=.=.=.=.=.=.=.=.=.=.=.=.=.=.=.=.=.=.=.=.=.=.=.=.=.=.=.=.=.",
"=.=.=.=.=.=.=.=.=.=.=.=.=.=.=.=.=.=.=.=.=.=.=.=.=.=.=.=.=.=.=.=.=.=.=.=.=.=.=.=.=.=.=.=.=.=.=.=.=.=.=.=.=.=.=.=.=.=.=.=.=.=.=.=.",
"=.=.=.=.=.=.=.=.=.=.=.=.=.=.=.=.=.=.=.=.=.=.=.1.=.=.=.=.=.=.=.=.=.=.=.=.=.=.=.=.=.=.=.=.=.=.=.=.=.=.=.=.=.=.=.=.=.=.=.&.=.=.=.=.",
"=.=.=.=.=.=.=.=.=.=.=.=.=.=.=.=.=.=.=.=.=.=.=.=.=.=.=.=.=.=.=.=.=.=.=.=.=.=.=.=.=.=.=.=.=.=.=.=.=.=.&.=.=.=.=.=.=.=.=.Q #.=.=.=.",
"=.=.1.&.=.=.=.=.=.=.=.=.=.=.=.=.=.=.=.=.=.=.=.=.=.=.=.=.=.=.=.=.=.1.1.! 1.1.=.=.=.=.=.1.&.1.=.=.=.=.=.=.=.=.=.=.=.=.=.Q *.&.=.=.",
"=.=.=.1.=.=.=.=.=.=.=.=.=.=.=.=.=.=.=.=.=.=.=.=.=.=.=.=.=.=.=.=.1.&.) U 1.&.=.=.=.=.=.=.=.=.=.=.=.=.=.=.=.=.=.=.=.=.=.=.=.=.=.=.",
"=.=.=.=.=.=.=.=.=.=.=.=.1.=.=.=.=.=.=.=.=.=.=.=.=.=.=.=.=.=.=.=.=.=.&.U &.=.=.1.=.=.=.=.=.=.=.=.=.=.=.=.=.=.=.=.=.=.=.=.=.=.=.=.",
"=.=.=.=.=.=.=.=.=.=.=.=.=.=.=.=.=.=.=.=.=.=.=.=.=.=.=.=.=.=.=.=.=.=.=.U 1.=.1.&.=.=.=.=.=.=.=.=.=.=.=.=.=.=.=.=.=.=.=.=.=.=.=.=.",
"=.=.=.=.=.=.=.=.=.=.=.=.=.=.=.=.=.=.=.=.=.=.=.=.=.=.=.=.=.=.=.6.r.=.=.=.=.=.=.=.=.=.=.=.=.=.=.=.=.! 0.1.=.=.=.=.=.=.=.=.4.0.w.r.",
"=.=.=.=.=.=.=.=.=.=.=.=.=.=.=.=.=.=.=.=.=.=.=.=.=.=.=.=.=.=.=.=.=.=.=.=.=.=.=.=.=.=.=.=.=.=.=.=.=.! 2.=.=.=.=.=.) ! =.=.r.&.1.1.",
"=.=.=.=.=.=.=.=.=.=.=.=.=.=.=.=.=.=.=.=.=.=.=.=.=.=.=.=.=.=.=.=.=.=.=.=.=.=.=.=.=.=.=.=.=.=.=.=.=.=.&.=.=.=.=.=.-.! 1.=.=.=.=.=.",
"=.=.=.=.=.=.=.=.=.=.=.=.=.=.=.=.=.=.=.=.=.=.=.=.=.=.=.=.=.=.=.=.=.=.=.=.=.=.=.=.=.=.=.=.=.=.=.=.=.=.=.=.=.=.=.=.=.&.=.! =.=.=.=.",
"=.=.=.=.=.=.=.=.=.=.=.=.=.=.=.=.=.=.=.=.=.=.=.=.=.=.=.=.=.=.=.=.=.=.=.=.=.=.=.=.=.=.=.=.=.=.=.=.=.=.=.=.=.=.=.=.=.=.=.=.=.=.=.=.",
"=.=.=.=.=.=.=.=.=.=.=.=.=.=.=.=.=.=.=.=.=.=.=.=.=.=.=.=.=.=.=.=.=.=.=.=.=.=.=.=.=.=.=.=.=.=.=.=.=.=.=.=.=.=.=.=.=.=.=.=.=.=.=.=.",
"=.=.=.=.=.=.=.=.=.=.=.=.=.=.=.=.=.=.=.=.=.=.=.=.=.=.=.=.=.=.=.=.! Q =.=.=.=.=.=.=.=.=.=.=.=.=.=.=.=.=.=.=.=.=.=.=.=.=.=.=.=.=.! ",
"=.=.=.=.=.=.=.1.=.=.=.=.=.=.=.=.=.=.=.=.=.=.=.=.=.=.=.=.=.=.=.&.! ! =.=.=.=.=.=.=.=.=.=.=.=.=.=.=.=.=.=.=.=.=.=.=.=.=.=.1.=.=.=.",
"=.=.=.=.=.=.=.=.=.=.=.=.=.=.=.=.=.=.=.=.=.=.=.=.=.=.=.=.=.=.=.=.=.=.=.=.=.=.=.=.=.=.=.=.=.=.=.=.1.=.=.=.=.=.=.=.=.=.=.=.=.=.=.=.",
"=.=.=.=.=.=.=.=.=.=.=.=.=.=.=.=.=.P =.=.=.=.=.=.E =.=.=.1.1.E ! =.=.=.=.=.) E =.=.=.=.=.=.P =.=.=.=.=.=.=.=.=.=.=.=.=.=.=.=.=.=.",
"=.=.=.=.=.=.=.=.1.&.=.=.=.=.=.=.b b r.=.=.=.D x p 0.=.=.~ c s :.3.=.=.) A v J 6.=.=.=.&.V b 0.=.=.=.=.=.=.=.=.=.=.=.=.=.=.=.=.=.",
"=.=.=.=.=.=.=.=.=.=.=.=.=.=.=.&.* -.B.r.=.=.<   m m.y.=.D O y g.l.3.=.^ $ X 5.n.6.=.=.e o I B.r.=.=.=.=.=.=.=.=.=.=.=.=.=.=.=.=.",
"=.=.=.=.=.=.=.1.=.=.=.=.=.=.r = i B >.J L t # y g >.Y 6 , = f ;.;.b ~ 8 . a I >.b E =.5 i h ,.L V =.=.=.=.=.=.=.=.=.1.&.=.=.=.=.",
"=.=.=.=.=.=.=.=.=.=.=.=.=.=.~ Z 3 * s Q ! ^ E 8 o y W E H c % X L Q ) ~ C 9 J d Q ) =., : * . 4 Q =.=.=.=.=.=.=.=.=.=.1.=.=.=.=.",
"=.=.=.=.=.=.=.=.=.=.=.=.=.=.=.H : g ! =.=.=.=.> . P 1.=.&.t + V =.=.=.=.~ < L b =.=.=.H ; y = 1 =.=.=.=.=.=.=.=.=.=.=.=.=.=.=.=.",
"=.=.=.=.=.=.=.=.=.=.=.=.=.=.&.< . J =.=.=.=.=.< = ) =.=.=.t + 9.:.U ! =.~ ' o.b =.=.=.) , b C j =.=.=.=.=.=.=.=.=.=.=.=.=.=.=.=.",
"=.=.=.=.! =.=.=.=.=.=.=.=.=.) ; = 1.=.=.=.=.=.< b a.1.=.=.t + j.t.=.=.=.H ` _ l ) =.=.=.~ < ~ u 1.=.1.=.=.=.=.=.=.=.=.=.=.=.=.=.",
"=.=.=.=.U =.=.=.=.=.=.=.=.=.) ; j k.=.=.=.=.~ , R r.1.=.=.t 7 b.p.1.=.=.H < V 2 A =.=.=.^ ` e.u 1.=.=.=.=.=.=.=.=.=.=.=.=.=.=.=.",
"=.=.=.! U =.=.=.=.=.=.=.=.=.) ; z x.=.1.=.=.< 2 g.-.&.1.=.t 7 b.a.=.=.=.~ 9 C C V =.=.=.^ ` u.u =.=.=.=.=.=.=.=.1.=.=.=.=.=.=.=.",
"=.=.1.! U =.=.=.=.=.=.=.=.=.) > M V.=.=.=.=.< % M.6.=.=.=.t - g.r.1.=.=.=.1.r.( V =.=.=.) | t.s =.=.=.=.=.=.=.=.=.=.=.=.=.=.! 1.",
"=.=.=.! U =.=.=.=.=.=.=.=.=.) > / V.=.=.=.=.< % M.6.=.=.=.t + 9.0.=.=.=.=.=.4.P J =.=.=.1.4.s.b F =.=.=.=.=.=.=.=.=.=.=.=.=.Q 2.",
"=.=.=.=.P =.=.=.=.=.=.=.=.=.) > Y v.=.=.=.=.< % M.6.=.=.=.t + / 3.=.=.=.=.=.1.J L &.=.=.1.1.2.j q =.=.=.=.=.=.=.=.=.=.=.=.=.! Q ",
"=.=.=.=.=.=.=.=.=.=.=.=.1.=.0 7 q.-.=.=.=.1.~ j M.6.=.=.=.t + 8.6.=.=.=.=.=.=.W W 1.&.1.=.! U V l =.=.=.=.=.=.=.=.=.=.=.&.1.Q Q ",
"=.=.=.=.=.=.=.=.=.=.=.=.1.) > k m.) =.=.=.=.p = d.1.=.=.=.t + 8.7.=.=.=.=.&.=.U W =.1.&.1.~ r 8.l =.=.=.=.=.=.=.=.=.=.=.1.1.! ! ",
"=.=.=.=.=.=.=.=.=.=.=.=.=.=.> k N.1.=.=.=.=.d y u.1.1.&.1.t + P =.=.=.=.=.! P U W 1.1.1.=.~ ] e.p =.=.=.=.=.=.=.=.=.=.=.=.&.1.=.",
"=.=.=.=.=.=.=.=.=.1.=.=.=.=.> 7 M.1.=.=.=.=.9 % a.4.1.1.=.t + Z =.=.=.=.=.H } 2.W 1.&.1.=.~ { z.p =.=.=.=.=.=.=.=.=.=.=.=.1.=.=.",
"=.=.=.=.=.=.=.=.=.=.=.=.=.=.; j l.1.1.=.=.=.< v p.3.=.=.=.t + L =.=.=.=.=.F  .5.W &.1.&.=.~ { z.d =.=.=.=.=.=.=.=.=.=.=.=.=.=.=.",
"=.=.=.=.=.=.=.=.=.=.=.=.=.) < K m.1.=.=.=.=.< v 1.1.=.=.=.t + J =.=.=.=.=.~ ..5.W 1.&.1.=.~ ` w.U =.=.=.=.=.=.=.=.=.=.=.=.=.=.=.",
"=.=.=.=.=.=.=.=.=.=.=.=.=.) < J k.1.=.=.=.! < v s.4.=.=.=.t + L =.=.=.=.=.=.t.5.W 1.=.=.=.~ 0 :.b ~ =.=.=.=.=.=.=.=.=.=.=.=.=.=.",
"=.=.=.=.&.$.#.#.%.1.=.=.=.=.> m r.=.=.=.=.=.< v w.1.=.=.=.t + d &.=.=.=.1.^ H :.U 1.=.=.=.~ ' p.6 t =.=.=.1.=.=.=.=.=.=.=.=.=.=.",
"=.=.=.=.Q N & @.Q ) 4.3.=.S 3 J U &.=.=.W P > C U 1.=.=.=.t + d &.=.=.=.=.F 8 U A ~ 1.=.=.) G :.l A =.=.=.=.=.=.=.=.=.=.=.=.=.=.",
"=.=.=.=.=.=.U 3.r.6.0.4.=.< . Q U 1.=.=.1.S @ ~ ! 6.=.=.=.t + d ! 1.=.=.=.) e A l Z &.1.=.=.~ w V b =.=.=.=.=.=.=.=.=.=.=.=.=.=.",
"=.=.=.=.=.=.! :.=.=.=.=.=.< = r.=.=.=.=.=.0   E 1.&.1.&.=.t + i Q =.=.=.1.1.S r p P =.=.=.=.H ' ( V =.=.=.=.=.=.=.=.=.=.=.=.=.=.",
"=.=.=.=.=.=.! ! =.=.=.=.=.< 2 u.w.3.=.=.=.0 @ q.3.1.=.1.=.t + i Q =.=.=.=.1.D r l P =.=.=.=.H 1 L b =.=.=.=.=.=.=.=.=.=.=.=.=.=.",
"=.=.=.=.=.=.=.=.=.=.=.=.=.< 5 s.0.3.=.=.=.0 @ t.4.=.=.=.=.t + V &.1.=.=.=.=.D ..T L =.=.=.=.H 1 V V =.=.=.=.=.=.=.=.=.=.=.=.=.=.",
"=.=.=.=.=.=.=.=.=.=.=.=.=.< v k.2.4.=.=.=.0 . p.4.=.=.=.=.t + K =.=.=.=.=.=.D O.R W =.=.=.=.H 1 U J ) =.=.=.=.=.=.=.=.=.=.=.=.=.",
"=.=.=.=.=.=.=.=.=.=.=.=.=.< b p.Q a.t.4.4.q j a.4.&.=.=.=.t + L =.=.=.=.=.=.! 0.:.Q 1.=.=.=.H 1 W 7 D &.=.=.=.=.=.=.=.=.=.=.=.=.",
"=.=.=.=.=.=.=.=.=.1.&.W F : m W p V / / ;.8 j r.3.=.=.=.=.t @ Q 1.=.=.=.1.&.! r.:.Q =.=.1.=.H , W 7 F =.=.=.=.=.=.=.=.=.=.=.=.=.",
"=.=.=.=.=.=.=.=.=.=.=.=.<   E U J 7.=.=.=.0 l Q 1.=.=.=.=.t 7 p.6.=.=.=.&.1.1.y.2.! =.1.=.=.^ 9 C d C =.=.=.=.=.=.=.=.=.=.=.=.=.",
"=.=.=.=.=.=.=.=.=.=.=.1.1 % E =.( y.=.=.=.0 v Q =.=.=.=.=.t 7 2.3.1.=.=.1.&.1.7.7.D ^ =.=.=.=.F q l V &.=.=.=.=.=.=.=.=.=.=.=.=.",
"=.=.=.=.=.=.=.=.=.=.=.=.< . E =.:.3.=.=.F - V U ! 1.=.=.=.t 7 2.4.=.=.=.=.=.=.Q ! 7 ~ =.=.=.=.D q b C =.=.=.=.=.=.=.=.=.=.=.=.=.",
"=.=.1.=.=.=.=.=.=.=.=.=.1 . E =.2.3.=.=.r + E Q =.&.1.=.=.S 7 c.y.=.=.=.=.=.=.A o.x P 1.=.=.=.F [ E V =.=.=.=.=.1.=.=.=.=.=.=.=.",
"=.=.=.=.=.=.=.=.=.=.=.=.< j ! 1.! =.=.=.r + L =.=.=.=.=.=.t 7 b.p.=.=.=.=.=.=.) y.n E =.=.=.=.F  .2.W =.=.=.=.=.=.=.=.=.=.=.=.=.",
"=.=.=.=.=.=.=.=.=.=.=.=.1 s ! =.=.=.=.=.r 7 Q &.=.=.=.=.=.t 7 b.p.=.=.=.=.=.=.=.a.n E =.=.=.=.F +.i.E =.=.=.=.=.=.=.=.=.=.=.=.=.",
"=.=.=.=.=.=.=.=.=.1.1.&.1 v ! =.=.=.=.=.t 6 Q =.=.=.=.=.=.t 7 b.p.=.=.=.=.=.=.=.k.n E =.=.=.=.F X.i.8 R =.=.=.=.=.=.=.=.=.=.=.=.",
"=.=.=.=.=.=.=.=.=.&.1.^ , b Q =.=.=.=.=.e 6 :.1.=.=.=.=.Q w 7 b.a.=.=.=.=.=.=.=.a.n E &.=.=.=.G q Q 8 F 1.=.=.=.=.=.=.=.=.=.=.=.",
"=.=.=.=.=.=.=.=.=.=.=.q @ L U ! =.=.=.=.r 6 f.6.=.=.=.=.=.t 7 b.y.=.=.=.=.=.=.=.a.K E =.=.=.=.H 4 q.T P =.=.=.=.=.=.=.=.=.=.=.=.",
"=.=.=.=.=.=.=.=.=.=.=.q   E =.=.=.=.=.=.e 6 v.r.=.=.=.=.=.t 7 b.a.=.=.=.=.=.=.=.y.Y ! =.=.=.=.:.S h.<.P =.=.=.=.=.=.=.=.=.=.=.=."
};
