/* XPM */
static char *result[] = {
/* columns rows colors chars-per-pixel */
"64 64 92 1 ",
"  c #533C5C",
". c #63374B",
"X c #653A4C",
"o c #693B4B",
"O c #733A43",
"+ c #3D785A",
"@ c #5D425A",
"# c #6D434D",
"$ c #71434B",
"% c #674454",
"& c #62455A",
"* c #654C5E",
"= c #724B51",
"- c #6B515E",
"; c #795453",
": c #725359",
"> c #755B5C",
", c #795D5B",
"< c #544463",
"1 c #594662",
"2 c #5C4D64",
"3 c #554D6C",
"4 c #594F6A",
"5 c #5E5265",
"6 c #57516E",
"7 c #5B5068",
"8 c #575673",
"9 c #595370",
"0 c #5D5D74",
"q c #635367",
"w c #6B5767",
"e c #665669",
"r c #625C6B",
"t c #725E60",
"y c #586E71",
"u c #5D6378",
"i c #64636E",
"p c #69656D",
"a c #6B6A6E",
"s c #756664",
"d c #786260",
"f c #766967",
"g c #736B6B",
"h c #75716D",
"j c #636372",
"k c #696773",
"l c #696D75",
"z c #656B7A",
"x c #6A6F7C",
"c c #736F76",
"v c #6B7275",
"b c #6A747B",
"n c #6E7C7D",
"m c #747672",
"M c #737B76",
"N c #7E7B75",
"B c #72767B",
"V c #727D7B",
"C c #845552",
"Z c #3B835D",
"A c #4C8E5D",
"S c #4C8A62",
"D c #50856B",
"F c #6D837D",
"G c #69887A",
"H c #72847F",
"J c #6C6C81",
"K c #747C82",
"L c #758681",
"P c #7A8585",
"I c #778882",
"U c #7B8C85",
"Y c #838D8B",
"T c #8F8E8C",
"R c #918D81",
"E c #84928B",
"W c #88958D",
"Q c #969184",
"! c #898894",
"~ c #8E9B91",
"^ c #989790",
"/ c #919B94",
"( c #999994",
") c #959C99",
"_ c #A69C96",
"` c #93A295",
"' c #99A699",
"] c #9FA1A0",
"[ c #A1A1A2",
"{ c #ABADA6",
"} c #B7A7A1",
"| c #B4AAA6",
/* pixels */
"HHHHHHHHHHHHHHHHHHHbLHHHHHHHHHFbHHHHHHHHHHHHHHHHLHHHHHHHHHHHHHHH",
"HHHHHHHHHHHHHHHHHFznLHHHHHHHHHLHHHHHHHHHHHHHHHHHFLHHHHHHHHHHHHHH",
"HHHHHHHHHHHHHHHHHHHHHHHHHHHHHHHHHLHHHHHHHHHHHHHHHHLHHHHHHHHHHHHH",
"HHHHHHHHHHHHHHHHHHHHHHHHHHHHHHHHHHHHHHHHHHHHHHHHHHHHHHHHHHHHHHHH",
"HHHHHHHHHHHHHHHHHLHHHHHHHHHHHHHHHHHHHHHHHHHHHHLLHHHHHHHHHHHHHHHH",
"HHHHHHHHHHHHHHHHHHHHHHHHHHHHHHHHHHHHHHHHHHHHHLFFnHHHHHHHHHHHHHHH",
"HHHHHHHLHHHHHHHHHHHHHHHHHHHHHHHHHHHHHHHHHHHHHHHHHHHHHnbHHHHHHHHH",
"HHHHHHHHHHHHHHHHHHHHHHHHHHHHHHHHHHHHHHHHHHHHHHHHHHHHHHHPHHHHHHHH",
"HHHHHHLHHLHHHHHHHHHHHHHHHHHHHHLFHHHHHHHHHHHHHHHHHHHHHHHHHHHHHHHH",
"HHHHHLFHHHHHHHHHHHHHHHHHHHHHHHHLHHHHHHHHHHHHHHHHHHHHHHHHHHHHHHHH",
"HHHHHHHHHHHHHHHHHHHHHHHHHHHHHHHHHHHHHHHHHHHHHHHHHHHHHHHHHHHFHHHH",
"HHHHHHHHHHHHHHHHHHHHHHHHHHHHHHHHHHHHHHHHHHHHHHHHHHnHHHHHHHHnAFHH",
"HHHHHHHHHHHHHHHHHHHHHHHHHHHHHHHHHHLnLFHHHHHHHHHHHHHHHHHHHHHnGFHH",
"HHHHHHHHHHHHHHHHLFHHHHHHHHHHHHHHHHFzFLHHHHHHHHHHHHHHHHHHHHHnLHHH",
"HHHHHHHHHHHHHHHHHLHHHHHHHHHHHHHHHHFzLHHHHHHHHHHHHHHHHHHHHHHHHHHH",
"HHHHHHHHHHHHHHHHHHHHHHHHHHHHHHHHHHHzKHHHHHHHHHHHHHHHHHHHHHHHHHHH",
"HHHHHHHHHHHHHHHHHHHHHHHLHHHHHHHUYHHHHHHHHHHHHHHHHnULHHHHHHnLUUEW",
"HHHHHHHHHHHHHHHHHHHHHHLFHHHHHHHHHHHHHHHHHHHHHHHHHnKLHHHHHnLLULLL",
"HHHHHHHLHHHHHHHHHHHHHHHHLHHHHHHHHHHHHHHHHHHHHHHHHHHHHHHHnKFFHHFL",
"HHHHHHLFHHHHHHHHHHHHHHHHFLHHHHHHHHHHHHHHHHHHHHHHHHHHHHHHFVLnHLFL",
"HHHHHHHHHHHHHHHHHHHHHHHHHHHHHHHHHHHHHHHHHHHHHHHHHHHHHHHHHHHHHHHH",
"HHHHHHHHHHHHHHHHHHHHHHHHHHHHHHHHHHHHHHHHHHHHHHHHHHHHHHHHHHHHHHHH",
"HHHHHHHHHHFLHHHHHHHHHHHHHHHHHHHHnnFHHHHHHHHHHHLFHHHHHHHHHHHHHHHn",
"HHHHHHHHHHLHHHHHHHHHHHHHHHHHHHLFnnVHLFLHHHHHHHHLHHHHHHHHHHHHHHLn",
"HHHHHHHHHHHHHHHHHHHHHHHHHHHHHHHHLLHHHHHHHHHHHHHHHHHHHHHHHHHHHHHH",
"HHHHHHHHHHHHHHHHHHHHHHHHHHHHHHHHLnHHHHFLHHHHHHHHHHHHHHHHHHHLHHHH",
"HHHHHHHHLFHHHHHHHHHHHHHHHHHHHHHHFLHHHHLHHHHHHHHHHHHHHHHHHHLFHHHH",
"HHHHHHHHLHHHHHHHHHHHHHHHHHHHHHHHLFHHHHHHHHHHHHHHHHHHHHHHHHFLHHHH",
"HHFLHHHHFLHHHHHHHHHHHHHHHHHHHHHHHHHHHHHHHHHHHHHHHHHHHHHHFLHHHHHH",
"HHLHHHHHHHHHHHHHHHHHHHHHHHLFHHHHHHHHHHHHHHHHHHHHHHHHHHHHLHHHHHHH",
"HHHHHHHHHHHHHHHHHHLHHHHHHHHLHHHHHHHHHHHHHHHHHHHHLFHHHHHHHHHHHHHH",
"HHHHHHHHHHHHHHHHHHFLHHHHHHHHHHHxzznHHHHHHHHHHHHHHLHHHHHHHHHHHHHH",
"HHHLnHHHHHHLHHHHHHHHHHHHHHHHHHLnHHFLHHHHHHHHHHHHHHHHHHHHHHHHHHHH",
"HHHnzHHHHHHFHHHHHHHHHHHHHHHHHHHHHHHHHHHHHHHHHHHHHHHHHHHHHHHHHHHH",
"HHHnzHHHHHHLHHHHHHLHHHHHHHHHHHHHHHHHHHHHFLHHHHHHHHHHHHHHHHHHFLHH",
"HHLFzHHHHHHHHHHHHHFLHHHHHHHHHHHHHHHHHHHHLHHHHHHHHHHHHHHHHHHHLVnL",
"HHHnzHHHHHHHHHHHHHHHHHHHHHHHHHHHHHHHHHHHHHHHHHHHHHHHHHHHHHHLHFbP",
"HHHFlHHHHHHHHHHHHHHHHHHHHHHHHHHHHHHHHHHHHHHHHHHHHHHHHHHHHHHFHHKb",
"HHHHHHHHHHHHHHHHHHHHHHHHHHHHHHHHHHHHHHHHHHHHHHHHHHHHHHHLHHnLLFnb",
"HLHHHHHHHHHHHHHHHHHHHHHHHHHHHHHHHHHHHHHHHHHHHHHHHHHHHHLFHHLFLLnn",
"HHHHHHHHHHHHHHHHHHHHHHHHHHHHHHLHHHHHHHHHHHHHHHHHHHHHHHFLHHHHHFLH",
"HHHHHHHHHHHHFLHHHHHHHHHHHHHHHHFLHHHHHHHHHHHHHHHHHHHHHHLHHHHHHLHH",
"HHHHHHHHHHHHLHHHHHHHHHHHHHHLHHHHHLHHHHHHHHHHHHHHHHHHHHHHHHHHHHHH",
"HHHHHHHHHHHHFLHHHHHHHHHHHHHFHHHHHHHHHHHHHHHHHHHHHHHHHHHHHHHHHHHH",
"HHHHHHHHLHHHHHHHHHHHHnnnnLnLHHHHHHHHHHHHHHHHHHHHHHHHHHHHHHHHHHHH",
"HHHHFSAADFHHHHHHHHHHHHnFLLLFHHHHHHHHHHHHHHHHFLHHHHHHHHHHHHHHHHHH",
"HHHHny+ZnKUIHHHHbVHHbzrkKLHHHHHHHHHHHHHHHHHHLHHHHHHHHHHHHHHHHHHH",
"HHHHFHzIWUUUHHLFxLHHHLj~UUHHHHHHHHHHHHHHHHHHHHHHHHHHHHHHHHHHHHHH",
"HHHHHHnKHHHHHHHHnLLHHHbLLLHHHHHHHHHHHHHHHHHHHHHHHHHHHHHHHHHHHHHH",
"HHHHHHnnHHHHHHHHULFLHHbFLFHHHHHHHHHHHHHHHHHHHHHHHHHHHHHHHHHHHHHH",
"HHHHHHHHHHHHHHHHPPHHHHnLHHHHHHHHHHHHHHHHHHHHHHHHHHHHHHHHHHHHHHHH",
"HHHHHHHHHHHHHHHHKUHLHHLFHHHHHHHHHHHHHHHnHHHHHHHHHHHHHHHHHHHHHHHH",
"HHHHHHHHHHHHHHHHx~WUILHHHHHHHHHHHHHHHHVzHHHHHHHHHHHHHHHHHHHHHHHH",
"HHHHHHHHHHFzlkjk2pmBKbHHHHHHHHHHHHHHHHFbHHHHHHHHMMHHHHHHHHHHHHHH",
"HHHHHHHHHHHg>VHFiYLFFHHHHHHHHHHLHHHHHHHHHHHHHHHH;=MHHHHHHHHHHHHH",
"HHHHHHHHHHPVX>VHKWLLMhLFHHHHHHLFHHHHHHHsgHHHHHHHP@=MHHHHHHHHHHHH",
"HHHHHHHHHL'[<ONHKUHHc#hLHHHHHHHLHHHHHHH>#gLLFLL~{8.fHHHHHHHHHHHH",
"HHHHHHHHHrxz6 ;VKIHUE@#mHHHHHHHVHHHHHHUE1$mLLFijJ8@aHHHHHHHHHHHH",
"HHHHHHHHHnl ogMHnHn/]3ofHHHHHLn%sVHHLn~[3osFHHnn57nVHHHHHHHHHHHH",
"HHHHHHHHHHa4-mHHHHru8u7;MHLFHW)<OmHHHr0942=MHHHHnunHHHHHHHHHHHHH",
"HHHHHHHHLniM:VHHHHHb2N,FHHHHlY!3.>VHHHH5.dLLFLLUEjpHHHHHHLHHHHHH",
"HHHHHHHHLLj^CFHHHHHvqR,HHHHHiu &pgHHHH~l.dLFLFLE{*,HHHHHHHHHHHHH",
"HHHHHHLLFL5}CVHHHHLveQ,HHHHHHIp.mLHHHL`Y&dHHFLFU(.,HHHHHHHHHHHHH",
"HHHHHLnFLF2_CHHHHHHb2g,HHHHHH~T.mHHHHL`WwtHHHHLE|.,HHHHHHHHHHHHH"
};
