/* XPM */
static char *result[] = {
/* columns rows colors chars-per-pixel */
"64 64 129 2 ",
"   c #1E1726",
".  c #201724",
"X  c #231927",
"o  c #251A29",
"O  c #291C2D",
"+  c #391F2B",
"@  c #2D1E31",
"#  c #2B232F",
"$  c #2D2633",
"%  c #322135",
"&  c #36253B",
"*  c #3A263C",
"=  c #45232D",
"-  c #4D272F",
";  c #42293F",
":  c #552B35",
">  c #613139",
",  c #7F3D3D",
"<  c #3E2941",
"1  c #422B44",
"2  c #4B2E45",
"3  c #462E4A",
"4  c #4B2F4B",
"5  c #512F44",
"6  c #4C314D",
"7  c #5B3243",
"8  c #54324B",
"9  c #5B344C",
"0  c #4B3252",
"q  c #533554",
"w  c #5A3651",
"e  c #533857",
"r  c #5D3A54",
"t  c #543C5A",
"y  c #653545",
"u  c #6B3746",
"i  c #6A3946",
"p  c #653749",
"a  c #6A3A49",
"s  c #753C43",
"d  c #7B3E41",
"f  c #713C48",
"g  c #55405D",
"h  c #7D4443",
"j  c #76474B",
"k  c #794648",
"l  c #7C4B4B",
"z  c #7B504E",
"x  c #62485C",
"c  c #754C52",
"v  c #794B50",
"b  c #6C5059",
"n  c #775254",
"m  c #7A5554",
"M  c #7B5954",
"N  c #72545D",
"B  c #775D5C",
"V  c #795D5B",
"C  c #7B615F",
"Z  c #574965",
"A  c #594A65",
"S  c #5D5267",
"D  c #5C5368",
"F  c #5C5770",
"G  c #695661",
"H  c #6B5D66",
"J  c #715F62",
"K  c #6E6866",
"L  c #66656E",
"P  c #6A646B",
"I  c #6B696F",
"U  c #756463",
"Y  c #786360",
"T  c #766965",
"R  c #756C69",
"E  c #75716D",
"W  c #666771",
"Q  c #6B6971",
"!  c #666E7A",
"~  c #6D6E7B",
"^  c #677673",
"/  c #697675",
"(  c #6B7A77",
")  c #6B757B",
"_  c #6E7B7B",
"`  c #737571",
"'  c #737A76",
"]  c #7C7C76",
"[  c #737E7A",
"{  c #823D3B",
"}  c #86433D",
"|  c #8A463E",
" . c #8D493F",
".. c #803F40",
"X. c #834341",
"o. c #8B4740",
"O. c #844945",
"+. c #8D4B40",
"@. c #844F4B",
"#. c #914E41",
"$. c #8E5441",
"%. c #8B5847",
"&. c #83524F",
"*. c #8C554C",
"=. c #955343",
"-. c #995644",
";. c #945944",
":. c #9D5B46",
">. c #93594B",
",. c #9C5D48",
"<. c #A15D46",
"1. c #966346",
"2. c #9D6247",
"3. c #996845",
"4. c #9E6448",
"5. c #9F6D49",
"6. c #9E774D",
"7. c #926051",
"8. c #A06549",
"9. c #A16B49",
"0. c #A1704A",
"q. c #A2784B",
"w. c #816665",
"e. c #4D8861",
"r. c #6E847D",
"t. c #69887A",
"y. c #72847F",
"u. c #758580",
"i. c #798584",
/* pixels */
"y.y.y.y.u.r.u.u._ u.u.r.r.y.y.y.r.u.r.) u.u.y.y.y.y.y.y.y.y.r.~ u.u.y.y.y.y.y.y.r.u.r.u.r.y.y.y.y.y.y.y.y.u.r.y.y.y.y.y.u.y.y.y.",
"y.y.y.y.u.r.r.u.r.u.r.u.u.y.y.y.u._ ! r.r.u.y.y.y.y.r.u.y.y.y.y.u.u.y.y.y.y.r.u.u.u.u.r.y.y.y.y.u.r.y.y.y.y.y.y.y.y.y.y.r.y.y.y.",
"y.y.y.y.u.u.y.u.u.u.r.r.y.r.y.y.y.u.y.y.u.y.y.y.y.y.y.y.y.u.y.y.r.r.y.y.y.y.y.y.u.r.u._ y.y.u.y.y.y.i.u.y.y.y.y.u.y.y.y.y.y.y.u.",
"y.y.y.u._ u.y.r.u.r.u.u.y.u.y.y.y.y.y.y.r.y.y.u.u.y.y.y.y.y.y.y.u.r.y.u.u.y.y.y.r.u.u.u.y.y.r.y.u.y.r.u.y.y.y.y.y.y.y.y.y.y.y.y.",
"y.y.y.y.y.y.r.u.u.y.y.y.y.y.y.u.y.y.y.y.u.y.y.y.r.y.y.y.y.y.u.r.y.r.y.y.y.y.y.y.r.u.r.r.r.u.y.u.r.y.y.y.u.y.y.y.y.y.y.y.y.y.y.u.",
"y.y.y.y.u.y.u.u.r.y.y.y.y.y.y.r.y.u.y.y.y.y.y.y.y.y.y.y.y.y.y.y.y.u.y.y.y.y.y.y.u.u.u.u.u.y.y.r.) y.y.y.y.r.y.u.y.y.y.y.y.y.y.y.",
"y.y.y.u.r.u.u.r.y.y.y.y.u.y.y.y.y.y.y.y.y.y.y.y.y.y.u.y.y.y.y.y.y.y.y.y.y.y.y.y.u.r.u.r.r.u.y.y.u.u.r.y.y.y.) _ y.u.y.y.y.y.y.y.",
"y.y.u.r.u.r.r.u.y.y.y.y.y.y.y.y.y.y.y.y.y.y.y.y.y.y.y.y.u.r.y.y.y.y.y.y.y.y.u.y.u._ u.u.r.u.y.y.u.r.y.y.y.y.y.i.y.r.u.y.y.y.y.y.",
"u.r.r.u.r.u.u.r.y.y.y.y.y.y.y.y.y.y.y.y.y.y.y.y.y.y.y.y.y.y.y.y.y.y.y.y.u.u.u.r.u.u._ u.y.y.y.u.y.y.y.y.y.y.y.y.y.y.r.r.r.y.y.y.",
"r.u.u.r.u.u.r.u.u.y.y.u.y.y.y.y.y.y.y.y.y.y.y.y.y.y.y.y.y.y.y.y.u.y.y.y.u.u.r.u.u.r.u.u.y.y.y.y.y.y.y.y.y.y.y.y.y.y.u.u.u.r.y.y.",
"u.u.u.u.r.u.y.y.r.y.y.y.y.y.u.y.y._ _ _ _ ( ( ^ ^ ^ ^ ^ ^ ^ ^ ^ / / ! ^ ^ ^ ^ ^ ^ ) ^ ^ _ _ _ [ [ u.y.y.y.y.y.y.y.y.y.u.r.u.u.r.",
"u.r.r.u.r.u.y.y.y.y.y.y.y.y.r.! Z t 3 * & X X X X X X X X o X X X X X   X   X X   o   o * < 6 t Z F ) y.y.y.y.y.y.u.y.) e.r.y.y.",
"_ y.y.y.y.y.y.y.u.r.r.u.y.) D t 4 * O X X X X X X X X X X X X X X X X X X X X X o     X X X O * 0 t A _ y.y.y.y.y.y.y.) u.( u.u.",
"u.y.y.y.y.y.y.y._ u.u.u.W t 3 < O . X X X X X X X X X X o X X X X X X X X X X X X o X X X X   X O < 0 g ) y.y.y.y.y.y.r.u.u.u.u.",
"T T T T T T y.y.u.u._ S q < O X . X X X X X X X X X X X X X X X X X X X X o X X X X o X X X X X   X O 1 t ) r.u.y.y.r.u.u.u.u.t.",
"+.} %.1.;.} z I u.! Z q < o . X X . X X X X X X X X X X X X X X X X X X X X X X X X X X X X X X . X X O 1 e / y.y.y.r._ r._ r.) ",
"2.| -.9.q.$. .X.H F t 1 o . . X X X X X X X X X X X X o X X X X X X X X X X X X X X X X X X X X X X X . O 3 t ) y.' M l z &.&.&.",
",.#.-.,.5.$.-.=...r q % . X X X X X o X X X X X X X X X X X X o X X X X X X X X X X X X X X X X X X X X X * q Z Q l :.:.-.-.:. .",
":.:.:.:.2.$.=.:.#.u 3 X X X X X X X X X X X X X X X X o X X X X o X X X X X o X X X X o X X X X X X X . . O 3 r s  .0.:.:.:.:.:.",
":.:.:.<.:.#.+.:.:...2 X X X X X X X X X X X X o X X X X X X X X X X X X o X X X X X X X X X X X X X X X X O 0 p } ,.0.:.:.:.:.:.",
"<.:.:.:.:.-.| :.-.X.2 X . X X X X X . o X X X X X X X X X X X X X X X X X X X X X X X X X X X X X X X X . o 6 a =.:. .:.:.-. .:.",
":.:.:.<.:.-.#.-.:.o.7 @ X X X X X X o X X X o X X X X X X X X o X X X X X X X X X X o X X X X X X X X X X % 8 X.:.-.| -.:.=. .<.",
":.:.-.#.:.:.<.:.<.-.d * . X X X X X X X X X X X X X X X X X X X X X X X X X X X X X X X X o X X X X X . X 1 w o.:. .=.:.:. .-.:.",
":.:.-.| :.:.:.:.-.-.s * X X X X X X X X X X X X X o X X X X X X X X X o X o X X X X X X X X X X o X X X X 1 s =.:. .-.:.:. .:.:.",
":.:.-.} :.:.:.:.:.-.d * X X . X X o . o X X X X X X X X X X X X X X X X X X X X X o X X X X X X X X X . X 1 d :.:.-.:.:.-.-.:.:.",
":.:.:.#.:.<.:.:.:.-.X.5 O X X X X X X X X X X X X X X X X X X X X X X X X X X X X X X X X X X X X X X X O 4 ..-.:.} -.:.k -.:.:.",
"-.:.:.:.:.:.2.9.:.:.=.i % . X X X X X X X X X o X o X X X X X X X X X o X X X X X X X X X X X X X X X X * w } -.:.| -.:.c *.:.:.",
"+.:.:.-. .:.8.5.-.:.=.i @ X X X X X X X X X X X X X X X X X X X X X X X X X X X X X X X X X X X X X X X & i =.:.:.-.:.:.>.z =.#.",
"o.:.:.=.| :.9.1. .<.=.i $ . X X X X X X X X X X X X X X X X X X X X X X X X X X X X X X X X X X X X X . & s -.:.:.:.:.=.-.,.3.| ",
"o.:.:.=.| :.8.;.#.<.=.i % X X X X X X X X X X X X X X X X X X X X X X X X X o X X X X X X X X X X X X X & f -.:.<.:.:.-.:.:.2.$.",
"h #.:.:.#.=.:.4.;.=.:.X.5 o X X X X X X X X X X X X X X X X o X X X X X X X X X X X X X X X X X X X X O 8 s -.:.,.:.:.-.:.:.-.o.",
"h #.,.:.#.#.-.:.%.=.:. .9 O X X o X X X X X X X X X X X X X X X X X X X X X X X X X X X X X X X X X . % p #.:.:.<.:.=.#.:.,.#., ",
"..} -.:.=.-. .| c *.<.#.9 O X X X X X X X X o X X X X X X X X X X X X X X X X X X X X X X X X X X . X # a #.,.:.:.:.=.#.:.:.#.h ",
"l , -.<.:.:.1.3.m *.<.| 9 O . X X X X X X X X X X X X X X X X X X o X X X X X X X X X X # X X X X X X % p #.:.:.<.:.#.#.:.:.+.h ",
"V , =.:.:.-.:.9.0.4.:.#.u 1 o X X X X X X X X X X X X X X X X X X X X X o X X X X X o X . X X X X X o 2 p #.:.<.:.:.#.#.:.-.{ l ",
"C ,  .:.:. .-.:.6.:.-.:.X.8 X X X X X X X X X X X X X X X o X X X X X X X X X X X X X X X X X X X X O 8 s -.:.,.:.-.| :.,.-.{ V ",
"' l { :.:. .-.:.2. .-.:.X.2 o X X X X X X X X X X X X X X X X X o X X X X X X X X X X X X X X X X X o 9 | :.:.:.:.-.o.:.,.=.{ w.",
"y.M { ;.:.:.:.:.-.| -.:.} 4 O X X X X X X X X X X X X X X X X X X X X X X X X X X X X X X X X X X X # 9 o.:.:.<.:.=.| :.:.} d U ",
"y.M { =.:.:.:.:.<. .=.:. .p * . X o X X X X X X X X X X X X X X X X X X X X X X X X X X X o X X X . 1 9 | :.:.:.:.| -.:.:.{ c ) ",
"y.T k } :.:.:.:.:.-.| :.:.d 1 . X X X X X X X X X X X o o X X X X X X X X X X X X X X X X X X X X X 3 f =.:.:.:.:.| -.,.#.{ n ) ",
"y.' l } :.:.:.:.:.-. .:.:.d 1 . X X X X X X X X o X X X X X X X X X X X X X X X X X X X X X X X X X 2 X.:. .-.:.:. .-.:.} h R y.",
"y.[ M { -.:.:.:.:.:.-.<.-.d 1   X X X X X o X X X X X X X X X X X X X X X X X X X X X X X X X X X . 3 } :. .-.:.:.:.:.:.} l ' y.",
"y.y.E h +.:.:.<.:.<.:.:.:.d 4 @   X X X X X X X X X X X X o X X X X X X X X X X X X X X X X X X X X 2 } :. .-.:.=.-.<.-.{ l ' y.",
"y.y.' d  .:.:.:.:.:.-.=.-., w &   X X X X X X X X X X X X X X X X X X X X X X X X X X X X X X X X % u  .:. .-.<.=.-.:.+.{ Y y.y.",
"y.y.' l | :.:.:.:.<.=. .8. .p & . X X X X X X X X X X X X X X X X X X X X X X X X X X X X X X X . < d -.<. .:.:.:.:.:. ., ` y.u.",
"y.y.y.R { #.:.-.-.<.=. .8. .u & . X X X X X o X X X o X X X X X X X X X X X X X X X X X X X X X . ; d -. .=.:.:.:.:.-.| l ' y.y.",
"y.y.r.R , #.<.#. .<.-.-.<.-.u & . X X X X X X X X X X X X X o X X X X X X X X X X X X X X X X X . < s -.-. .8.:.:.:.-.{ R y.y.y.",
"y.y.u.[ M } -.:. .=.<.<.8. .h * . X X X X X X X X X X o X X X X o X X X X X # . X X X X X X X o . ; , -. . .:.:.:.:. ., R y.y.y.",
"y.y.u.y.U { -.:. .=.<.,.:.:.+.-   X X X X X X X X X X X X X X X X X X X X X X X X X X X X X X X   : =.=. .:.:.:.:.-.{ h E y.y.y.",
"y.y.y.y.U { -.:. .#.<.:.:.,.#.: o X X X X X X X X X X X X X X X X X X X X X X X X X X X X X X . O > =.=. .:.:.:.:.-.{ B r.y.y.y.",
"y.y.y.y.` l -.:. .#.<.:.:.:.#.y $ . X X X X X X X X X X X X X X X X X X X X X X o X X X X X X   = X.:.-.-.:.:.:.:.:., B y.y.y.y.",
"y.y.y.y.y.M } :. .-.<.:.:.:.=.u @ X X X X X X X X X X X X X X X X X X X X X X X X X X X X X X   =  .:.:.:.:.:.:.=.#.} T y.y.y.y.",
"y.y.y.y.[ n } :.:.:.:.:.:.:.:.} +   X X X X o . X X X X X X X X o X X X X X X X X X X X X X X   = +.:.:.:.:.:.4.1.} l ' y.y.y.y.",
"y.y.y.y.y.R O.:.:.:.:.:.:.:.:.} +   X X X X X . X X X X X X X   X X   X X   X X X . X X X X X   = +.:.:.:.:.:.:.4.} z y.y.y.y.y.",
"y.y.y.y.y.' k  .:.+.-.#.-.:.:.| = $ $ $ $ $ $ $ $ $ $ $ $ $ $ $ $ $ $ $ $ $ $ $ $ $ $ $ $ $ $ # - +.:.:.:.:.:.:.:.} m [ y.y.y.y.",
"y.y.y.y.y.' k | :.} -.#.$.:.:.o.k ] ( ( ( ( _ ) ) ( ( ( ( ( ( ( _ ( ( _ ( ( _ ( ( ( ( ( ( ( / K h | O.-.:.:.:.:.o.h ` y.y.y.y.y.",
"y.y.y.y.u.' l { -.#.=.:.} -.-.k N [ y.y.y.y.y.y.u.y.y.y.u.r.u.u.r.y.y.y.y.y.y.u.u.u.u.r.u.r.u.^ j s v :.:.:.:.:.o.k ` y.y.y.y.y.",
"y.y.y.y.y.[ Y , +.-. . .{ O.c H ~ i.y.y.y.y.y.y.y.y.y.y.u.u.r.r.y.y.y.y.y.y.u.r._ u.r.u.u.u.u._ P x l :.:.=.;.:.| l ` r.y.y.y.y.",
"y.y.y.y.y.y.E h #.:.X.k f b J _ ) i.y.y.y.y.) y.y.y.u.r.r.u.u.u.y.y.y.y.y.y.y.y.u.r.r.u._ r.u._ [ L G &.*.v >.-.h T y.y.y.y.y.y.",
"y.y.y.y.y.y.[ n @.>.l H P ' [ y.y.y.y.y.y.y.) y.y.y.r.r.u.r._ u.y.y.y.y.u.y.y.y.u.r.u.u.u.u.u.r.y._ _ Q U N 7.>.l E y.y.y.y.y.y.",
"y.y.y.y.u.r.u.y.u.r.r.u.y.y.u.y.y.y.y.y.y.y.r.y.y.y.y.y.u.u.r.u.r.u.u.u.r.u.u.r.u.u._ r.y.y.y.y.u.y.y.y.u.y.y.y.y.y.y.y.y.y.y.y.",
"y.y.y.y.r.u.r.y.r.u.u.r.y.y.y.y.y.y.y.y.y.y.y.y.y.y.r.u.! ! ! ) u.u.r._ u.r.r.u.r.u.u.u.y.y.y.y.y.y.y.y.y.y.y.y.y.y.y.y.y.y.y.y.",
"y.y.y.y.r.u.u.r.u.u.y.u.y.y.y.y.y.y.y.y.y.y.y.y.y.y.y.y.y.u.u.r.r.u.u.u.u.u.u.u.u.r.r.u.u.r.y.y.u.y.y.y.y.y.y.y.y.y.y.y.y.y.y.y.",
"y.y.y.y.u.r.u.u.u._ y.y.y.y.y.y.y.y.y.y.y.y.y.r.u.y.y.y.y.y.r.u.r.u.r.u.r.r.u.r.u.r.u.u.r.u.y.y.y.y.y.y.y.y.y.y.y.y.y.y.y.y.y.y."
};
