/* XPM */
static char *result[] = {
/* columns rows colors chars-per-pixel */
"64 64 202 2 ",
"   c #7E0E0E",
".  c #69071D",
"X  c #770B15",
"o  c #6E191F",
"O  c #781C1D",
"+  c #5D0526",
"@  c #54022C",
"#  c #5D082C",
"$  c #5D132E",
"%  c #540E35",
"&  c #590F38",
"*  c #5A1332",
"=  c #55163C",
"-  c #620522",
";  c #650D22",
":  c #681B25",
">  c #601835",
",  c #57223F",
"<  c #5F313F",
"1  c #64242E",
"2  c #6E222C",
"3  c #662B2E",
"4  c #692D2E",
"5  c #782927",
"6  c #6C302D",
"7  c #72362D",
"8  c #7A3529",
"9  c #753B2F",
"0  c #7B3D2C",
"q  c #672B32",
"w  c #6B2931",
"e  c #75203A",
"r  c #6B3434",
"t  c #6F3A34",
"y  c #62323C",
"u  c #6A3A3C",
"i  c #723D33",
"p  c #783C3A",
"a  c #7B432F",
"s  c #7A4533",
"d  c #794636",
"f  c #521E44",
"g  c #552244",
"h  c #592B45",
"j  c #532D4E",
"k  c #5D3243",
"l  c #56344F",
"z  c #58344B",
"x  c #532F51",
"c  c #543555",
"v  c #583751",
"b  c #553A57",
"n  c #5E3B54",
"m  c #563D59",
"M  c #593E5A",
"N  c #6A3D41",
"B  c #623548",
"V  c #3D785A",
"C  c #474143",
"Z  c #57415C",
"A  c #59445E",
"S  c #5C4B5F",
"D  c #744747",
"F  c #7E514A",
"G  c #664757",
"H  c #6B5857",
"J  c #554462",
"K  c #5C4B61",
"L  c #5E5365",
"P  c #59556E",
"I  c #5F5E70",
"U  c #7D4F61",
"Y  c #605567",
"T  c #645D67",
"R  c #615769",
"E  c #6F556E",
"W  c #625A6A",
"Q  c #5A6874",
"!  c #6D6362",
"~  c #65646E",
"^  c #68666C",
"/  c #666670",
"(  c #6A6575",
")  c #676A72",
"_  c #696D73",
"`  c #646B7A",
"'  c #766776",
"]  c #6B7376",
"[  c #6A747C",
"{  c #6E7C7C",
"}  c #76767B",
"|  c #737E7E",
" . c #87150C",
".. c #850C15",
"X. c #870B1C",
"o. c #910E1A",
"O. c #861518",
"+. c #9D2D0D",
"@. c #96391A",
"#. c #A1330E",
"$. c #A03B1C",
"%. c #940D2D",
"&. c #9C0A2C",
"*. c #981422",
"=. c #A80D27",
"-. c #AC0E26",
";. c #B40E2C",
":. c #A71223",
">. c #A01129",
",. c #B41329",
"<. c #AD1332",
"1. c #B01231",
"2. c #862624",
"3. c #893C25",
"4. c #9A2831",
"5. c #93481F",
"6. c #AA4817",
"7. c #85452C",
"8. c #834C31",
"9. c #865132",
"0. c #8A5432",
"q. c #8F5A34",
"w. c #87563B",
"e. c #8D5E3E",
"r. c #925933",
"t. c #B6572A",
"y. c #8F623E",
"u. c #936136",
"i. c #946339",
"p. c #986A3D",
"a. c #BC6538",
"s. c #C3492B",
"d. c #C56A24",
"f. c #C23D45",
"g. c #8B5E41",
"h. c #945647",
"j. c #B45044",
"k. c #8F6442",
"l. c #916542",
"z. c #956941",
"x. c #996E42",
"c. c #9D7444",
"v. c #9F7848",
"b. c #A17947",
"n. c #A27D4A",
"m. c #8C5568",
"M. c #92636E",
"N. c #846777",
"B. c #81757D",
"V. c #B07871",
"C. c #C85546",
"Z. c #D1724F",
"A. c #C77060",
"S. c #CC7565",
"D. c #D07B7E",
"F. c #3B835D",
"G. c #4C8E5D",
"H. c #4C8A62",
"J. c #50856B",
"K. c #6D837D",
"L. c #69887A",
"P. c #72847F",
"I. c #CF8745",
"U. c #D48C73",
"Y. c #6B6F81",
"T. c #6E7381",
"R. c #747D82",
"E. c #757688",
"W. c #857280",
"Q. c #907E88",
"!. c #758681",
"~. c #7A8485",
"^. c #778882",
"/. c #7B8B84",
"(. c #828D8A",
"). c #98878E",
"_. c #84928A",
"`. c #8A958D",
"'. c #8A8793",
"]. c #8E9991",
"[. c #989699",
"{. c #B1998C",
"}. c #9AA59B",
"|. c #A9A19E",
" X c #ABA3A2",
".X c #B5AAA7",
"XX c #B5ACA9",
"oX c #B4B6B3",
"OX c #CF9F97",
"+X c #EB8F81",
"@X c #E69D8C",
"#X c #F19F8E",
"$X c #E09B91",
"%X c #E6A597",
"&X c #DDAEA7",
"*X c #F7B5A6",
"=X c #F9BFB3",
"-X c #C4C7B6",
";X c #D2CFBF",
":X c #C9C4CC",
">X c #DBD8CB",
",X c #E0DFE1",
/* pixels */
"P.P.P.P.P.P.P.P.P.P.P.P.P.P.P.P.P.!.K.[ P.P.P.!.P.P.P.P.P.P.P.[ P.P.P.P.P.P.P.P.P.P.!.K.!.| P.P.P.P.P.P.P.P.P.P.P.P.P.P.P.P.P.P.",
"P.P.P.P.P.P.P.P.P.P.P.P.P.P.P.P.P.K.` P.P.P.P.P.P.P.P.P.P.P.P.P.P.P.P.P.P.P.P.P.P.P.K.!.K.!.P.P.P.P.P.P.P.P.P.P.P.P.P.P.P.P.P.P.",
"P.P.P.P.P.P.P.P.P.P.P.P.P.P.P.P.P.P.P.P.P.P.P.P.P.P.P.P.P.P.P.P.P.P.P.P.P.P.P.P.P.P.P.P.!.!.{ !.P.P.!.!.P.P.P.P.P.P.P.P.P.P.P.P.",
"P.P.P.P.P.P.P.P.P.P.P.P.P.P.P.P.P.P.P.P.P.P.P.P.P.P.P.P.P.P.P.P.P.P.P.P.P.P.P.P.P.P.P.P.K.!.!.K.P.P.!.K.P.P.P.P.P.P.P.P.P.P.P.P.",
"P.P.P.P.P.P.P.P.P.P.P.P.P.P.P.P.P.P.P.P.P.P.P.P.P.P.P.P.P.P.P.P.P.P.P.P.P.P.P.P.K.!.P.P.!.| !.!.P.P.P.P.P.P.P.P.P.P.P.P.P.P.P.P.",
"P.P.P.P.P.P.P.P.P.P.P.P.P.P.P.P.P.P.P.P.P.P.P.P.P.P.P.P.P.P.P.P.P.P.P.P.P.P.P.P.!.{ P.P.K.!.K.K.[ P.P.P.P.P.P.P.P.P.P.P.P.P.P.P.",
"P.P.P.P.P.P.P.!.P.!.P.P.P.P.P.P.P.P.P.P.P.P.P.P.P.P.P.P.P.P.P.P.!.P.P.P.P.P.P.P.P.!.P.P.!.K.P.P.P.P.P.P.P.P.[ { P.P.P.P.P.P.P.P.",
"P.P.P.P.P.P.P.P.P.P.P.P.P.P.P.P.P.!.P.P.P.P.P.P.P.P.P.P.P.P.P.P.P.P.P.P.P.P.P.P.P.P.P.P.P.!.P.P.P.P.P.P.P.P.P.~.P.P.P.P.P.P.P.P.",
"P.P.P.P.P.P.P.P.P.P.P.P.P.P.P.P.P.P.P.P.P.P.P.P.P.P.P.P.P.P.P.P.P.P.P.P.P.P.P.P.P.P.P.P.K.!.P.P.P.P.P.P.P.P.P.P.P.P.P.P.P.P.P.P.",
"P.P.P.P.P.P.P.P.P.P.P.P.P.P.P.P.P.P.P.P.P.P.P.P.P.P.P.P.P.P.P.P.P.P.P.P.P.P.P.P.P.P.P.P.!.{ P.P.P.P.P.P.P.P.P.P.P.P.P.P.P.P.P.P.",
"P.P.P.P.P.P.P.P.P.P.P.P.P.P.P.P.P.P.P.P.P.P.P.P.P.P.P.P.P.P.P.P.P.P.P.P.P.P.P.P.P.P.P.P.P.!.P.P.P.P.K.P.P.P.P.P.P.P.P.K.P.P.P.P.",
"P.P.P.P.P.P.P.P.P.P.P.P.P.P.P.P.P.P.P.P.P.P.P.P.P.P.P.P.P.P.P.P.P.P.P.P.P.P.P.P.P.P.P.P.P.P.P.P.P.P.{ P.P.P.P.P.P.P.P.{ H.K.P.P.",
"P.P.P.P.P.P.P.!.P.P.P.P.P.P.P.P.P.P.P.P.P.P.P.P.P.P.P.P.P.P.P.P.P.P.!.{ !.K.P.P.P.P.!.K.!.P.P.P.P.P.P.P.P.P.P.P.P.P.P.{ L.K.P.P.",
"P.P.P.P.P.P.P.P.P.P.P.P.P.P.P.P.P.P.P.P.P.P.P.P.P.P.P.P.P.P.P.P.P.P.K.` P.!.P.P.P.P.K.!.P.P.P.P.P.P.P.P.P.P.P.P.P.P.P.P.P.P.P.P.",
"P.P.P.P.P.P.P.P.P.P.P.P.P.P.P.P.P.P.P.P.P.P.P.!.P.P.P.P.P.P.P.] P.P.K.` P.P.P.P.P.P.!.| P.P.P.P.P.P.P.P.P.P.P.P.P.P.P.P.P.P.P.P.",
"P.P.P.P.P.P.P.P.P.P.P.P.P.P.P.P.P.P.P.P.P.P.P.P.P.P.P.P.P.K.] A ~ P.| ` P.P.P.P.P.P.K.!.P.P.P.P.P.P.P.P.P.P.P.P.P.P.P.P.P.P.P.P.",
"P.P.P.P.P.P.P.P.P.P.P.P.P.P.P.P.P.P.P.P.P.P.P.P.P.P.] { K._ Z z M ) P.P.P.P.P.P.P.P.P.P.P.P.P.P.P.{ (.P.P.P.P.P.P.P.K.!.^.(._._.",
"P.P.P.P.P.P.P.P.P.P.P.P.P.P.P.P.P.P.P.P.P.P.P.P.K.] K L ~ Z k t < m W ) P.P.P.P.P.P.!.P.P.P.P.P.P.{ ~.P.P.P.P.P.{ | !.K./.!.!.!.",
"P.P.P.P.P.P.P.P.P.P.P.P.P.P.P.P.P.P.P.P.P.P.P.P.] S z z c k s 9.r l c m ) P.P.P.P.P.P.P.P.P.P.P.P.P.K.P.P.P.P.P.{ { !.!.K.!.!.!.",
"P.P.P.P.P.P.P.P.P.P.P.P.P.P.P.P.P.P.P.P.P.P.P.] S z t u l y e.q.s y < k Z ~ P.P.P.P.P.P.P.P.P.P.P.P.P.P.P.P.P.P.P.{ !.{ !.{ !.K.",
"P.P.P.P.!.P.P.P.P.P.P.P.P.P.P.P.P.P.P.P.P.P.P.) c k s 9.t t F H s a 8.s k m ~ P.P.P.P.P.P.P.P.P.P.P.P.P.P.P.P.P.K.!.| !.!.K.!.{ ",
"P.P.P.P.K.!.P.P.P.P.P.P.P.P.P.P.P.P.P.P.P.P.P.) c k w.i.s s n.I.q.q.c.p.s k Z ~ P.P.P.P.P.P.P.P.P.P.P.P.P.P.P.P.!.K.!.K.K.!.!.!.",
"P.P.P.P.P.P.P.P.P.P.P.P.P.P.P.P.P.P.P.P.P.P.P.{ T v N p.n.u.I.v.i.p.i.u.0.s k m / P.P.P.P.P.P.P.P.P.P.P.P.P.P.P.!.{ K.!.!.K.K.{ ",
"P.P.P.P.P.P.P.P.P.P.P.P.P.P.P.P.P.P.P.P.P.P.P.P.! C C s d s i.c.s s 0.a q.8.y c W K.P.P.P.P.P.P.P.P.P.P.P.P.P.P.K.!.!.!.K.!.K.R.",
"P.P.P.P.P.P.P.P.P.P.P.P.P.P.P.P.P.P.P.P.P.P.P.) M k s 9.0.c.v.i.a 9.q.l.s 0.s k m ) !.P.P.P.P.P.P.P.P.P.P.P.P.P.!.P.P.!.K.!.P.P.",
"P.P.P.P.P.P.P.P.P.P.P.P.P.P.P.P.| P.P.P.P.P._ Z z i 9.q.p.v.p.c.q.c.i.v.l.a a k b ~ P.P.P.P.P.P.P.P.P.P.P.P.P.P.P.P.P.P.!.K.P.P.",
"P.P.P.P.P.P.P.P.P.P.P.P.P.P.P.] K ] K.P.P.P.P.~ m l u e.i.d k.I.i.v.c.p.x.6 u l L { P.P.P.P.P.P.P.P.P.P.P.P.P.P.P.P.P.P.P.P.P.P.",
"P.P.P.P.P.P.P.P.P.P.P.P.P.P.{ K L A _ P.P.P.P.P.W c < 8.0.a d n.v.q.u.c.q.u.g.k b ~ P.P.P.P.P.P.P.P.P.P.P.P.P.P.P.P.P.P.P.P.P.P.",
"P.P.!.P.P.P.P.P.P.P.P.P.P.P.K M |.' A ' !.!.P.P.~ c k 7.5.7 9.p.w.0 8.0.t u.y.< c ~ K.P.P.P.!.P.P.P.P.P.P.!.K.P.P.!.{ !.P.P.P.P.",
"P.P.K.!.P.P.P.P.P.P.P.P.P.P.S m `. X' K ] { P.P.) Z k d z D 8.9.0 t.h.0.0 9.a y v L { P.P.!.K.P.P.P.P.P.P.P.!.P.P.K.!.P.P.P.P.P.",
"P.P.P.P.P.P.P.P.P.P.!.P.P.P.K b } Y.XXA J P.P.P.P.W c r K.OXw.8.h.#X%Xr.6.0 8.s N c R { P.P.P.P.P.P.P.P.P.P.P.P.P.P.P.P.P.P.P.P.",
"P.P.P.P.P.P.P.P.P.P.K.!.P.P.I m B.} [.' A _ P.P.P.) Z d S.=XV.h.$X*XU.3.@.9 d b.l.N v Y { P.P.P.P.P.P.P.P.P.P.P.P.P.P.P.P.P.P.P.",
"!.K.K.!.{ P.P.P.P.P.P.P.P.P.P.A M !.T.XXM K !.K.K.!.) M M.$X=X{.@XZ.t.a. .. 4 9.z.y.u v I { P.P.P.P.P.P.P.P.P.P.P.P.P.P.P.P.P.P.",
"K.!.!.{ ` P.P.P.P.P.P.P.P.!.K.~ A ' T.).W.Z ) !.!.!._ J p C.A.A.C.d.I.a.o.. ; 1 i p.d v c ] P.P.P.P.P.P.P.P.P.P.P.P.P.P.P.P.P.P.",
"!.K.!.{ ` !.P.P.P.P.P.P.P.P.P.{ A Z (.E..Xc K !.K.!.L b 2.+.#.#.6.s.C.:.%..   ; 1 d y.D l L { P.P.P.P.P.P.P.P.P.P.P.P.P.P.P.P.P.",
"R.!.!.{ ` K.P.P.P.P.P.P.P.P.!.K.) Z ( T.'.Q.m / !.K.L b O 2 D F $.,.;.;.X.+ .   o t l.d z b ] P.P.P.P.P.P.P.P.P.P.P.P.P.P.P.P.P.",
"K.P.P.{ ` P.P.P.P.P.P.P.P.P.P.P.{ Z S (.E..Xc M / !.L c n B.].oXU <.;.-.X @ .  .O 4 k.d z m ] P.P.P.P.P.P.P.P.P.K.!.K.!.P.P.{ ~.",
"P.P.P.P._ !.P.P.P.P.P.P.!.K.P.P.P.) M W T.'.).c b K m b ~ }.-X>X:Xm.1.-.X @ @ + : 3 k.d z m ] P.P.P.P.P.P.P.P.P.!.{ !.!.P.P.{ [ ",
"P.P.P.P.P.P.P.P.P.P.P.P.{ !.P.P.P.| Z K (.E. XJ J c c J _ oX;X>X,XE <.&.o @.2.+ 3 3 8.9 l m ] P.P.P.P.P.P.P.P.P.!.K.!.K.K.!.{ [ ",
"P.P.P.P.P.P.P.P.P.P.P.P.!.P.P.P.P.!._ M R Y.` T.T.c c f c | (. XW.2.:...e Z.@.3 4 0 4 h m ) | P.P.P.P.P.P.P.P.P.P.!.{ !.!.K.{ { ",
"P.P.P.P.P.P.P.P.P.P.P.P.P.P.P.P.P.P.] m J Q ` (.Q.G v % @ B Y R 5 O.O.3.* i 4 4 4 > g b ) K.P.P.K.!.K.!.P.P.P.P.P.P.P.P.P.P.P.P.",
"P.P.P.P.P.P.P.P.!.K.P.P.P.P.P.P.P.{ K b P ] R.{.%X$Xj.....>.O.* 7.8.3.$ 1 3 3 7 w g b ) | P.P.P.!.| !.P.P.P.P.P.P.P.P.P.P.P.P.P.",
"P.P.P.P.P.P.P.P.K.!.!.K.P.P.P.P.P.P.] A b M M M.#X+Xf.-.;.-...+ 1 5 O + @ % % % g b ) P.P.P.P.P.K.!.P.P.P.P.P.P.P.P.P.P.P.P.P.P.",
"P.P.P.P.P.P.P.P.!.!.{ !.P.P.P.P.P.P.P.] S Z M N.&XD.4.*.-.2.- @ + X =...# j c c b ^ P.P.P.P.P.P.P.P.P.P.P.P.P.P.P.P.P.P.P.P.P.P.",
"P.P.P.P.P.P.P.P.K.!.K.!.K.!.!.K.!.K.!.K.| { / c L [.B.w O G = @ @ # &.-.X.* j c T K.P.P.P.P.P.P.P.P.P.P.P.P.P.P.P.P.P.P.P.P.P.P.",
"P.P.P.P.K.H.G.G.J.!.!.K.!.!.K.!.{ !.K.!.P.P._ Z Z I K c v * @ @ % % & &.-.X.* x L { P.P.P.P.P.P.P.P.P.P.P.P.P.P.P.P.P.P.P.P.P.P.",
"P.P.P.P.{ Q V F.{ R./.^.K.!.!.K.` !.!.{ [ ) I R S c c k q 4 $ * x c x > %.*.X = c ~ P.P.P.P.P.P.P.P.P.P.P.P.K.!.P.P.P.P.!.{ P.P.",
"P.P.P.P.K.P.` ^.`././.~.!.K.!.K.` !.!.!.!.!.) ].{ L L Z r 4 4 y K b c h 2 8 o , c ~ P.P.P.P.P.P.P.P.P.P.P.P.!.K.!.P.P.P.P.!.K.!.",
"P.P.P.P.P.P.{ | !.K.P.P.P.P.P.P.| !.!.K.!.P.[ ^.!.!.K.) H H H R ] R v t 0.9.9 < K _ P.P.P.P.P.P.P.P.P.!.!.K.!.P.P.P.P.P.P.P.P.P.",
"P.P.P.P.P.P.K.{ P.!.P.P.P.P.P.P./.!.K.!.P.P.[ { !.K.K.!.!.K.K.!.P.K.T y a a t A ] P.P.P.P.P.P.P.P.P.!.K.P.P.K.!.P.P.P.P.P.P.P.P.",
"P.P.P.P.P.P.P.P.P.P.P.P.P.P.P.P.~.^.P.P.P.P.{ !.P.P.!.P.P.!.P.P.P.P.| ! ! ! ! [ !.K.P.P.P.P.P.P.P.!.| !.P.P.P.P.P.P.P.P.P.P.P.P.",
"P.P.P.P.P.P.P.P.P.P.P.P.P.P.P.P.R./.P.P.P.P.!.K.P.P.P.P.P.P.P.P.P.P.P.P.P.P.!.{ P.!.P.P.P.P.P.P.P.K.!.K.P.P.P.P.P.P.P.P.P.P.P.P.",
"P.P.P.P.P.P.P.P.!.K.!.K.P.!.P.P.[ ].`.^.^.!.P.P.P.P.P.P.P.P.P.P.P.P.P.P.P.P.{ ` P.P.P.P.K.!.P.P.P.P.P.P.P.P.P.P.P.P.P.P.!.| !.K.",
"P.P.P.P.P.P.P.P.P.!.{ [ ` / / / K ^ } } T.[ P.P.P.P.P.P.K.!.P.P.P.P.P.P.P.P.{ [ P.P.P.P.!.P.P.P.P.P.P.P.P.P.P.P.P.P.P.P.K.!.K.!.",
"P.P.P.P.P.P.P.P.P.P.P.P.P.P.!.{ ~ _.P.P.P.P.P.P.P.P.P.P.!.P.P.P.P.P.P.P.P.P.P.P.P.P.P.P.P.P.P.P.P.P.P.P.P.!.K.P.P.P.P.P.P.P.!.P.",
"P.P.P.P.P.P.P.P.P.P.P.P.P.P.P.!.R.`.P.P.P.P.P.P.P.P.P.P.{ !.P.P.P.P.P.P.P.P.P.P.P.P.P.P.P.P.P.P.P.P.P.P.!.{ !.P.P.P.P.P.P.P.P.P.",
"P.P.P.P.P.P.P.P.P.P.P.P.P.P.P.P.R./.!.K.!.K.P.P.P.P.P.P.P.P.P.P.P.P.P.P.P.P.P.P.P.P.P.P.P.P.P.P.P.P.P.P.P.P.P.P.!.{ P.P.P.P.P.P.",
"P.P.P.P.P.P.P.P.P.P.P.P.P.P.P.P.R.^.!.!.{ !.P.P.P.P.P.P.P.P.P.P.P.P.P.P.P.P.P.P.P.P.P.P.P.P.P.P.P.P.P.P.P.P.P.P.K.!.P.P.P.P.K.!.",
"P.P.P.P.P.P.P.P.P.P.P.P.P.P.P.P.{ !.P.P.!.!.[ P.P.P.P.P.P.P.P.P.P.P.P.P.P.P.P.P.P.P.P.P.P.P.P.P.P.P.P.P.P.P.K.!.!.P.P.P.P.P.!.K.",
"P.P.P.P.P.P.P.P.P.P.P.P.!.P.P.P.P.P.P.P.!.K.[ K.P.P.P.P.P.P.P.P.P.P.P.P.P.P.P.P.P.P.P.P.P.P.P.P.P.P.P.P.P.P.!.P.P.P.P.P.P.P.P.!.",
"P.P.P.P.P.P.P.P.P.P.P.P.K.!.P.P.P.P.P.P.P.P.K.P.P.P.P.P.K.P.P.P.P.P.P.P.P.P.P.P.P.P.P.P.P.P.P.P.P.P.P.P.P.P.P.P.P.P.P.P.P.P.P.P.",
"P.P.P.P.P.P.P.P.P.P.P.P.!.K.P.P.P.P.P.P.P.P.P.P.P.P.P.P.[ [ [ [ P.P.P.P.P.P.P.P.P.P.P.P.P.P.P.P.P.P.P.P.P.P.P.P.P.P.P.P.P.P.P.P.",
"P.P.P.P.K.!.P.P.P.P.P.P.P.P.P.P.P.P.P.P.P.P.P.P.P.P.P.P.P.P.P.P.P.P.P.P.P.P.P.P.P.P.P.P.P.!.P.P.P.P.P.P.P.P.P.P.!.{ P.P.P.P.P.P.",
"P.P.P.P.!.P.P.P.P.P.P.P.P.P.P.P.P.P.P.P.P.P.P.P.P.P.P.P.P.P.P.P.P.P.P.P.!.P.P.P.P.P.P.P.!.K.P.P.P.P.P.P.P.P.P.!.K.!.P.P.P.P.P.P."
};
