/* XPM */
static char *result[] = {
/* columns rows colors chars-per-pixel */
"64 64 213 2 ",
"   c #69071C",
".  c #6C0A1B",
"X  c #720B16",
"o  c #790C15",
"O  c #740C1A",
"+  c #7B1B1B",
"@  c #7D201E",
"#  c #53022D",
"$  c #5A0629",
"%  c #5C122D",
"&  c #530A33",
"*  c #550D36",
"=  c #5B1433",
"-  c #561439",
";  c #620724",
":  c #780628",
">  c #66182B",
",  c #721F26",
"<  c #631734",
"1  c #5F2C3B",
"2  c #68242B",
"3  c #662A2D",
"4  c #692D2D",
"5  c #683622",
"6  c #6D342E",
"7  c #77382B",
"8  c #753C2F",
"9  c #652334",
"0  c #662F32",
"q  c #643036",
"w  c #6A3533",
"e  c #6C3937",
"r  c #62323B",
"t  c #723C33",
"y  c #7C3C33",
"u  c #7C432F",
"i  c #7C4532",
"p  c #7A4735",
"a  c #7A4A3A",
"s  c #521C43",
"d  c #572746",
"f  c #542D4E",
"g  c #5D3344",
"h  c #57344E",
"j  c #59344B",
"k  c #5E3A4A",
"l  c #532F50",
"z  c #543554",
"x  c #553956",
"c  c #5B3A53",
"v  c #553C59",
"b  c #593D5A",
"n  c #633542",
"m  c #713F44",
"M  c #3D785A",
"N  c #3A6F62",
"B  c #57415C",
"V  c #59445D",
"C  c #5A485F",
"Z  c #6C504E",
"A  c #6A4859",
"S  c #685155",
"D  c #785354",
"F  c #554462",
"G  c #5C4B61",
"H  c #405661",
"J  c #5E5365",
"K  c #5A516C",
"L  c #5C5D74",
"P  c #644A64",
"I  c #644B64",
"U  c #605667",
"Y  c #6B576C",
"T  c #625C6A",
"R  c #745768",
"E  c #715C77",
"W  c #586E71",
"Q  c #597B73",
"!  c #65636D",
"~  c #6C6468",
"^  c #666572",
"/  c #666A73",
"(  c #696C72",
")  c #656B7B",
"_  c #696A78",
"`  c #756C77",
"'  c #6B7376",
"]  c #67727B",
"[  c #6A747B",
"{  c #6E7C7C",
"}  c #72747B",
"|  c #79757B",
" . c #707F7C",
".. c #820E0B",
"X. c #84140D",
"o. c #921F0A",
"O. c #880C1A",
"+. c #950F14",
"@. c #9D0F1A",
"#. c #891A18",
"$. c #951219",
"%. c #A30E1F",
"&. c #83281B",
"*. c #9C2D10",
"=. c #97391A",
"-. c #A83B0F",
";. c #A6371B",
":. c #930A2E",
">. c #8A1D2C",
",. c #971225",
"<. c #A60E20",
"1. c #AC0E2A",
"2. c #B40E2B",
"3. c #A91726",
"4. c #B2122C",
"5. c #AB1634",
"6. c #862829",
"7. c #8D3E23",
"8. c #9D3227",
"9. c #BF342B",
"0. c #AA4916",
"q. c #B2521D",
"w. c #8C4527",
"e. c #84482C",
"r. c #934327",
"t. c #834C31",
"y. c #8E4F37",
"u. c #834D3A",
"i. c #865032",
"p. c #8A5431",
"a. c #8D5A34",
"s. c #83533C",
"d. c #895738",
"f. c #8A5B3D",
"g. c #915D34",
"h. c #BB5A24",
"j. c #AC4E30",
"k. c #8F613E",
"l. c #936136",
"z. c #96663A",
"x. c #96683C",
"c. c #996B3E",
"v. c #C15D27",
"b. c #CC7627",
"n. c #972E4C",
"m. c #974C48",
"M. c #895742",
"N. c #B4505C",
"B. c #986647",
"V. c #946A43",
"C. c #996E40",
"Z. c #9D7344",
"A. c #9E7848",
"S. c #A6664C",
"D. c #A07947",
"F. c #A27D4A",
"G. c #A9645C",
"H. c #8B6678",
"J. c #826E7D",
"K. c #AE706B",
"L. c #B77975",
"P. c #C9474D",
"I. c #C56948",
"U. c #E07B6F",
"Y. c #368E4F",
"T. c #3A8557",
"R. c #4C8E5D",
"E. c #53876A",
"W. c #678777",
"Q. c #72847F",
"!. c #A5824D",
"~. c #DA9E59",
"^. c #DEA35A",
"/. c #DD836C",
"(. c #E1876C",
"). c #6A6D82",
"_. c #6D7680",
"`. c #747C82",
"'. c #797A87",
"]. c #8E7D88",
"[. c #758680",
"{. c #7A8485",
"}. c #7B8787",
"|. c #7B8B84",
" X c #848888",
".X c #838C8A",
"XX c #85938B",
"oX c #88968D",
"OX c #8D998F",
"+X c #8C8991",
"@X c #988A95",
"#X c #8D9894",
"$X c #959A97",
"%X c #9BA89A",
"&X c #B1A297",
"*X c #A79EA0",
"=X c #ABA7A3",
"-X c #B5ABA8",
";X c #B5B6AB",
":X c #BCB8B2",
">X c #C38B84",
",X c #C59A98",
"<X c #D49C95",
"1X c #EA9A8D",
"2X c #CBA39C",
"3X c #ECA593",
"4X c #F3A796",
"5X c #EDAEA2",
"6X c #F6B7A8",
"7X c #C8C7B8",
"8X c #D2D0CB",
"9X c #E4E0D5",
"0X c #DDDDE2",
/* pixels */
"Q.Q.Q.Q.Q.Q.Q.Q.Q.Q.Q.Q.Q.Q.Q.Q.Q.Q.Q.Q.Q.Q.Q.Q.Q.Q.Q.Q.Q.Q.Q.[.Q.Q.Q.Q.Q.Q.Q.Q.Q.Q.Q.Q.Q.Q.Q.Q.Q.Q.Q.Q.Q.Q.Q.Q.Q.Q.Q.Q.Q.Q.Q.Q.",
"Q.Q.Q.Q.Q.Q.Q.Q.Q.Q.Q.Q.Q.Q.Q.Q.Q.Q.Q.Q.Q.Q.Q.Q.Q.Q.Q.Q.Q.Q.Q.Q.Q.Q.Q.Q.Q.Q.Q.Q.Q.Q.Q.Q.Q.Q.Q.Q.Q.Q.Q.Q.Q.Q.Q.Q.Q.Q.Q.Q.Q.Q.Q.Q.",
"Q.Q.Q.Q.Q.Q.Q.Q.Q.Q.Q.Q.Q.Q.Q.Q.Q.Q.Q.Q.Q.Q.Q.Q.Q.Q.Q.Q.Q.Q.Q.Q.Q.Q.Q.Q.[.[.Q.Q.Q.Q.Q.Q.Q.Q.Q.Q.Q.Q.Q.Q.Q.Q.Q.Q.Q.[.[._.Q.Q.Q.Q.",
"Q.Q.Q.Q.Q.Q.Q.Q.Q.Q.Q.Q.Q.Q.Q.Q.Q.Q.Q.Q.Q.Q.Q.Q.Q.Q.Q.Q.Q.Q.Q.Q.Q.Q.Q.Q.Q.W.W.E.W.W.Q.Q.Q.Q.Q.Q.Q.Q.Q.Q.Q.Q.Q.Q.Q.W.[.[.Q.Q.Q.Q.",
"Q.Q.Q.Q.Q.Q.Q.Q.[.Q.Q.Q.Q.Q.Q.{ { { { Q.Q.Q.Q.Q.Q.Q.Q.Q.Q.Q.Q.Q.Q.Q.Q.Q.Q.Q R.Y.Y.Q `.[.Q.Q.Q.Q.Q.Q.{ Q.Q.Q.{ { ) ^ { `.Q.Q.Q.Q.",
"Q.Q.Q.Q.Q.Q.Q.Q.Q.Q.Q.Q.Q.Q.[.{ [ ' ) { Q.Q.Q.Q.Q.Q.Q.Q.Q.Q.Q.Q.Q.Q.Q.Q. .[ ) N W..X.XoXXXQ.Q.Q.Q.{ ] Q.Q.Q.{ [ ^ ( XX|.[.[.Q.Q.",
"Q.Q.Q.Q.Q.Q.Q.[.Q.Q.Q.Q.Q.Q.Q.Q.Q.Q.Q.Q.Q.Q.Q.Q.Q.Q.Q.Q.Q.Q.Q.Q.Q.Q.Q.Q.Q.Q.Q.^ oXQ.Q.Q.Q.Q.Q.Q.Q.{ { Q.Q.Q.Q.Q.{  X[.[.Q.Q.Q.Q.",
"Q.Q.Q.Q.Q.Q.Q.Q.Q.Q.Q.Q.Q.Q.Q.Q.Q.Q.Q.Q.Q.Q.Q.Q.Q.Q.Q.Q.Q.Q.Q.Q.Q.Q.Q.Q.Q.Q.Q.] Q.Q.Q.Q.Q.Q.Q.Q.Q.Q.Q.Q.Q.Q.Q.Q.{ { Q.Q.Q.Q.Q.Q.",
"Q.Q.Q.Q.Q.Q.Q.Q.Q.Q.Q.Q.Q.Q.Q.Q.Q.Q.Q.Q.Q.Q.Q.Q.Q.Q.Q.Q.Q.Q.Q.Q.Q.Q.Q.Q.Q.Q.Q.[ Q.Q.Q.Q.Q.Q.Q.Q.Q.Q.oXQ.Q.Q.Q.Q.{ [ Q.Q.Q.Q.Q.Q.",
"Q.Q.Q.Q.Q.Q.Q.Q.Q.Q.Q.Q.Q.Q.Q.Q.Q.Q.Q.Q.Q.Q.Q.Q.Q.Q.Q.Q.Q.Q.Q.Q.Q.Q.Q.Q.Q.Q.Q.Q.Q.Q.Q.Q.Q.Q.Q.Q.Q.{ .XQ.Q.Q.Q.Q.[.[.Q.Q.Q.Q.Q.Q.",
"Q.Q.Q.Q.Q.Q.Q.Q.Q.Q.Q.Q.Q.Q.Q.Q.Q.Q.Q.Q.Q.Q.Q.Q.Q.Q.Q.Q.Q.Q.Q.Q.! / Q.Q.Q.Q.Q.Q.Q.Q.Q.Q.Q.Q.Q.Q.Q.{ .X|.Q.Q.Q.Q.Q.Q.Q.Q.Q.Q.Q.Q.",
"Q.Q.Q.Q.Q.Q.Q.Q.Q.Q.Q.Q.Q.Q.Q.Q.Q.Q.Q.Q.Q.Q.Q.Q.Q.Q.Q.Q.Q.Q.{ ! v C / Q.Q.Q.Q.Q.Q.Q.Q.Q.Q.Q.Q.Q.[.{  .$XoX|.{.[.Q.Q.Q.Q.Q.Q.Q.Q.",
"Q.Q.Q.Q.Q.Q.Q.Q.Q.[.Q.Q.Q.Q.Q.Q.Q.Q.Q.Q.Q.Q.Q.Q.Q.Q.Q.Q.Q.Q.! v j h C ' Q.Q.! Q.Q.Q.Q.Q.) ] / ! / J J ( ( [ [ [ Q.Q.Q.Q.Q.Q.Q.Q.",
"Q.Q.Q.Q.Q.Q.Q.Q.Q.Q.Q.Q.Q.Q.Q.Q.Q.Q.Q.Q.Q.Q.Q.Q.Q.Q.Q.{ / ! x j t r h C ! ! B ! { Q.Q.Q.Q.Q.Q.Q.[.) } |.Q.Q.[.[.Q.Q.Q.Q.Q.Q.Q.Q.",
"Q.Q.Q.[.Q.Q.Q.Q.Q.Q.Q.Q.Q.Q.Q.Q.Q.Q.Q.Q.Q.Q.Q.Q.Q.Q.{ ! x x h q i u r z x z h x ! { Q.Q.Q.Q.Q.Q.Q.{ .X.XQ.Q.Q.Q.Q.Q.Q.Q.Q.Q.Q.Q.",
"Q.Q.Q.Q.Q.Q.Q.Q.Q.Q.Q.Q.Q.Q.Q.Q.Q.Q.Q.Q.Q.Q.Q.Q.Q.{ ! z z h h e i.l.i r z j q j x T Q.Q.Q.Q.Q.Q.Q.{ .XQ.Q.Q.[.Q.Q.Q.Q.Q.Q.Q.Q.Q.",
"Q.Q.Q.Q.Q.Q.Q.Q.Q.Q.Q.Q.Q.Q.Q.Q.Q.Q.Q.Q.Q.Q.Q.Q.Q.J B j q w 6 i a.c.f.q j w t.q j v ! Q.Q.Q.Q.Q.Q.{ .XQ.Q.Q.Q.Q.Q.Q.Q.Q.|.|.XXoX",
"Q.Q.Q.Q.Q.Q.Q.Q.Q.Q.Q.Q.Q.Q.Q.Q.Q.Q.Q.Q.Q.Q.[.W.J v g t i.i.i.8 V.!.f.0 w i.p.6 j z T Q.Q.Q.Q.Q.Q.{ {.Q.Q.Q.Q.Q.{ Q.Q.Q.|.[.[.[.",
"Q.Q.Q.Q.Q.Q.Q.Q.Q.Q.Q.Q.Q.Q.[.Q.Q.Q.Q.Q.Q.Q.{ J v g t a.D.c.g.p.Z.!.c.i.p.a.Z.p j z J Q.Q.Q.Q.Q.Q.Q.Q.Q.Q.Q.Q.Q.{ { [.[.[.[.[.[.",
"Q.Q.Q.Q.Q.Q.Q.Q.Q.Q.Q.Q.Q.Q.Q.Q.Q.Q.Q.Q.Q. .L v g t i.g.c.c.c.l.A.!.c.l.Z.c.a n z J ' Q.Q.Q.Q.Q.Q.Q.Q.Q.Q.Q.Q.Q.Q.{ [.{ [.[.`.W.",
"Q.[.Q.Q.Q.Q.Q.Q.Q.Q.Q.Q.Q.Q.Q.Q.Q.Q.Q.Q.Q.{ B z r u g.p.t.p.d.t.C.A.z.d.f.s.q j z ! Q.Q.Q.Q.Q.Q.Q.Q.Q.Q.Q.Q.Q.Q.Q.Q.Q.Q.{ W.[.`.",
"Q.Q.Q.Q.Q.Q.Q.Q.Q.Q.Q.Q.Q.Q.Q.Q.Q.Q.Q.Q.{ ! v g w t.p.i a p.u 6 k.c.x.a.8 8 8 g z J ' Q.Q.Q.Q.Q.Q.Q.Q.Q.Q.Q.Q.Q.Q.Q.Q.Q.[.[.[.[.",
"Q.Q.Q.Q.Q.Q.Q.Q.Q.Q.Q.Q.Q.Q.Q.Q.Q.Q.Q.Q.' v z q t.p.i d.D.g.g.8 i.Z.!.Z.l.g.p.8 g z J { Q.Q.Q.Q.Q.Q.Q.Q.Q.Q.Q.Q.Q.Q.[.[.[.W.W._.",
"Q.Q.Q.Q.Q.Q.Q.Q.Q.Q.Q.Q.Q.Q.Q.Q.Q.Q.Q.Q.{ V z r i u s.F.D.z.D.l.Z.c.c.A.Z.l.i.i.e g B T Q.Q.Q.Q.Q.Q.{ { Q.Q.Q.Q.Q.Q._.[.[.[.[.`.",
"Q.Q.Q.Q.Q.Q.Q.Q.Q.Q.Q.Q.Q.Q.Q.Q.Q.Q.Q.Q.Q.( B j e 6 s.Z.z.D.F.z.A.!.d.i z.C.t k z x T { Q.Q.Q.Q.Q. .T U { Q.Q.Q.Q.Q.Q.Q.Q.Q.Q.Q.",
"Q.Q.Q.Q.Q.[.Q.Q.Q.Q.Q.Q.Q.[.Q.Q.Q.Q.Q.Q.' C x r M.k.a.x.Z.l.l.Z.!.c.t.8 g.p.w h x T { Q.Q.Q.Q.Q.Q.T B c J { Q.Q.Q.Q.Q.Q.Q.Q.Q.Q.",
"Q.Q.Q.Q.Q.Q.Q.Q.Q.Q.Q.Q.Q.Q.Q.Q.Q.Q.Q.Q.' v h q x.c.i i l.p.u g.D.x.i 7 0.p.w h z ! Q.Q.Q.Q.Q.Q.T b J.+Xx J W.[.Q.Q.Q.Q.Q.Q.Q.Q.",
"Q.Q.Q.Q.Q.Q.Q.Q.Q.Q.Q.Q.Q.Q.Q.Q.Q.Q.Q.Q.' v x q d.l.u u p.u 7.y l.l.u 5 5 t.w h z ! Q.Q.Q.Q.Q.T b J.=X+Xx B { Q.Q.Q.Q.Q.Q.Q.Q.Q.",
"Q.Q.Q.Q.Q.Q.Q.Q.Q.Q.Q.Q.Q.Q.Q.Q.Q.Q.Q.' U z g q i p.e.w.l.K.I.y t.t.y.H.H p g z J ' Q.Q.[.`.! B J.@X$X} z B { Q.Q.Q.Q.Q.Q.Q.Q.Q.",
"Q.Q.Q.Q.Q.Q.Q.Q.Q.Q.Q.Q.Q.Q.Q.Q.Q.Q.{ T x n a a i u r.0.B.6X3XG.a.8 G.2X}.p h z / Q.Q.Q.Q.[ b b -X+X[ } z B { Q.Q.Q.Q.Q.Q.Q.Q.Q.",
"Q.Q.Q.Q.Q.Q.Q.Q.Q.Q.Q.Q.Q.Q.Q.Q.Q.{ U z k a A.A.p 8 7.=.y.3X6X4XS.M.>X6X/.r.c V ' Q.Q.Q.{ / B Y *X X`.| x J { Q.Q.Q.Q.Q.Q.Q.[.Q.",
"Q.Q.Q.Q.Q.Q.Q.Q.Q.Q.Q.Q.Q.Q.Q.Q.{ J z g p Z.Z.d.t % X *.h.v.(.6XG.>X6X5XL.A C ' Q.Q.[.Q.' v P -X'.} ! b C { Q.Q.Q.Q.Q.Q.Q.Q.Q.Q.",
"W.[.[.[.{ Q.Q.Q.Q.Q.Q.Q.Q.Q.Q.Q.J x g a Z.i.8 6 %   X.8.~.v.h./.3X5X3XL.A b ( Q.Q.Q.Q.Q./ B Y -X'. X` z G Q.Q.Q.Q.Q.Q.Q.Q.Q.Q.Q.",
"[.[.`.W.) Q.Q.Q.Q.Q.Q.Q.Q.Q.Q.Q.G z g a C.8 3 % .   :.3.j.^.b.;.8.8.9.q.w.h C ' Q._.Q./ B I *X]._.L V G { Q.Q.Q.Q.Q.Q.Q.Q.Q.Q.Q.",
"`.[.Q.{ ) [.Q.Q.Q.Q.Q.Q.Q.Q.{ J v j a V.d.0 % X ..  : 2.3.v.9.h.0.-.*.o.&.h v ' [.[.[.( x U :X).XXE z J Q.Q.Q.Q.Q.Q.Q.Q.Q.Q.Q.Q.",
"W.[.[.{ ) Q.Q.Q.Q.Q.Q.Q.Q.Q.Q.V z g s.C.8 3 X ..X $ : 1.2.2.4.*.u.D m , + z b { [.[.( F I @X+X[ _ G G ' Q.Q.Q.Q.Q.Q.Q.Q.Q.Q.{ Q.",
"[.[.[.{ / [.Q.Q.Q.Q.Q.Q.Q.Q.{ V z r a V.4 2 X.X.; #   +.2.2.2.n.+X#X{.R n z b [ [.( G z E :X] .XI x T Q.Q.Q.Q.Q.Q.Q.Q.Q.Q.Q.{ {.",
"`.[.[.{ ' Q.Q.Q.Q.Q.Q.Q.Q.Q.{ C z g s.V.6 3 X X $ #   +.2.5.n.@X8X8X;XOXT z v T ^ F z I ].$X_.'.I V / Q.Q.Q.Q.Q.Q.Q.Q.Q.Q.Q.{ [ ",
"[.[.W.[.Q.Q.Q.Q.Q.Q.Q.Q.Q.Q.{ F z r a V.0 3 % # ; > X O.2.5.E 0X9X8X7X%X[ F z z z v l ].:X)  .V z ! Q.Q.Q.Q.Q.Q.[.Q.Q.Q.[.[.[ [ ",
"Q._.[.[.Q.Q.Q.Q.Q.Q.Q.Q.Q.Q.Q.G x g t i 6 4 3 $ =.q.6.: 1.5.P 8X8X7X7X=X_ F v z l K K ` =X). XG B / Q.Q.Q.Q.Q.Q.Q.Q.Q.Q.Q.[.{ { ",
"Q.Q.[.Q.Q.Q.Q.Q.[._.[.W.[.[.[.{ J x d > u 0 0 3 =.I.m.; @.1.#.R $XOX{.( f - z z z J.{.L ) ] F v ^ `.[._.[.[.[.[.Q.Q.Q.Q.Q.Q.Q.Q.",
"Q.Q.Q.Q.Q.Q.Q.Q.W.[.[.[._.[.[.W.{ J z d % 4 3 6 4 y 9 > 7.o...&.R L I g & $ f z b  XOX] L L B x / W.[.[.W.{ [.[.Q.Q.Q.Q.Q.Q.Q.Q.",
"Q.Q.Q.Q.Q.Q.Q.Q.[.[.[.`.[.Q.Q.Q.[.[ J z d % u 6 0 4 3 > > e.w.w.9 > >.,.o o 6.K.<X<X&XOX] ] K v B ] W.[.[._.W.`.Q.Q.Q.Q.Q.Q.Q.Q.",
"Q.Q.Q.Q.Q.Q.Q.Q.{ [.[.W.[.Q.Q.Q.[.Q.{ J l d 2 % % % % $ $ &.u 8 = . @.1.%.%.3.U.3X<X/.Y J J F v J { [.[.[.[.[.[.Q.Q.Q.Q.Q.Q.Q.Q.",
"[.[._.W.Q.[.[._.W.`.[.[.Q.Q.Q.Q.Q.Q.Q.[ K z d - s s * $ O $.+ > & ; O.<.2.2.<.P.1X4XL.z z z v J { Q.Q.Q.[.[.W.[.Q.Q.Q.Q.Q.Q.Q.Q.",
"[.[.[.[.W.R.R.R.E.[.[.[.Q.Q.Q.Q.Q.Q.Q.Q.{ J v z z d - : @.1.O $ # # < 6.<.<.6.N.,X,XH.B K K J { Q.Q.Q.Q.`.[.[.`.[.Q.Q.Q.Q.Q.Q.Q.",
"W.[.[.[._.W M T.{ [.|.[.Q.Q.Q.Q.] Q.Q.Q.] ^ v z f = O %.1.:.# # # # d Z + , c =X.XJ z G [.Q.Q.Q.Q.Q.Q.Q.[.W.[.W.W.[.Q.Q.Q.Q.Q.Q.",
"[._.[.[.[.[.W }.oX|.|.|.Q.Q.Q.Q.] Q.Q.[.Q./ v l & O @.2.:.& & & # # & = h x v ( L F v T [.Q.Q.Q.Q.Q.Q.Q.[.`.[.`.[.[.Q.Q.Q.Q.Q.Q.",
"[.W.[.[.[.W._.`.[.Q.Q.Q.Q.Q.Q.Q. .[.Q.Q.' V z * X $.1.:.= f l l - # % 3 q z z v v v ! Q.Q.Q.Q.Q.Q.Q.Q.Q.Q.Q.Q.Q.Q.Q.Q.Q.Q.Q.Q.Q.",
"[.[.[._.[.`._.{ Q.Q.Q.Q.Q.Q.Q.Q.|.[.Q.Q.' v z * X @ , = f z z x 1 3 3 4 4 r z x z T Q.Q.Q.Q.Q.Q.Q.Q.Q.Q.Q.Q.Q.Q.Q.Q.Q.Q.Q.Q.Q.Q.",
"Q.Q.[.Q.[.[.`.W.Q.Q.Q.Q.Q.Q.Q.Q.{.|.Q.Q.' v z 9 2 7 t.t r z v ! V q 5 4 q c / ' '  .Q.Q.Q.Q.Q.Q.Q.Q.Q.Q.Q.Q.Q.Q.Q.Q.Q.Q.Q.Q.Q.Q.",
"Q.Q.Q.[.W.[.[.Q.Q.Q.Q.Q.Q.Q.Q.Q.`.|.Q.Q.{ ! v q u i.g.t.q b ! { ' ~ ~ ~ ~ ( { { Q.Q.Q.Q.Q.Q.Q.Q.Q.Q.Q.Q.Q.Q.Q.Q.Q.Q.Q.Q.Q.Q.Q.Q.",
"Q.Q.Q.Q.Q.Q.Q.Q.Q.[.Q.Q.Q.Q.Q.Q.[ OXOX|.Q.{ ! c t u u t k !  .Q.Q.Q.Q.Q.Q.Q.Q./ Q.Q.Q.Q.Q.Q.Q.Q.Q.Q.Q.Q.Q.Q.Q.Q.Q.Q.Q.Q.Q.Q.Q.Q.",
"Q.Q.Q.Q.Q.Q.Q.Q.Q.[.{ ) ] ^ / ^ G ( ` }  .[ Q.K S Z Z S T Q.Q.Q.Q.Q.Q.Q.Q.Q.Q.] Q.Q.Q.Q.Q.Q.Q.Q.Q.Q.Q.Q.Q.Q.Q.Q.Q.Q.Q.Q.Q.Q.Q.Q.",
"Q.Q.Q.Q.Q.Q.Q.Q.Q.Q.Q.Q.Q.Q.Q.W.! .XQ.Q.Q.Q.[.[.Q.Q.Q.Q.Q.Q.Q.Q.Q.Q.Q.Q.Q.Q.Q.Q.Q.Q.Q.Q.Q.Q.Q.Q.Q.Q.Q.Q.Q.Q.Q.Q.Q.Q.Q.Q.Q.Q.Q.Q.",
"Q.Q.Q.Q.Q.Q.Q.Q.Q.Q.Q.Q.Q.[.[.[.`.oXQ.Q.Q.Q.W.[.Q.Q.Q.Q.Q.Q.Q.Q.Q.Q.Q.Q.Q.Q.Q.Q.Q.Q.Q.Q.Q.Q.Q.Q.Q.Q.Q.Q.Q.Q.Q.Q.Q.Q.Q.Q.Q.Q.Q.Q.",
"Q.Q.Q.Q.Q.Q.Q.Q.Q.Q.Q.Q.Q.Q.Q.Q.`.|.[.[.W.[.{ [.Q.Q.Q.Q.Q.Q.Q.Q.Q.Q.Q.Q.Q.Q.Q.Q.Q.Q.Q.Q.Q.Q.Q.Q.Q.Q.Q.Q.Q.Q.Q.Q.Q.Q.Q.Q.Q.Q.Q.Q.",
"Q.Q.Q.Q.Q.Q.Q.Q.Q.Q.Q.Q.Q.Q.Q.Q.`.[.[.[.[.`.[.[.Q.Q.Q.Q.Q.Q.Q.Q.Q.Q.Q.Q.Q.Q.Q.Q.Q.Q.Q.Q.Q.Q.Q.Q.Q.Q.Q.Q.Q.Q.Q.Q.Q.Q.Q.Q.Q.Q.Q.Q.",
"Q.Q.Q.Q.Q.Q.Q.Q.Q.Q.Q.Q.Q.Q.Q.Q.{ [.Q.Q.[.`.[ [.Q.Q.Q.Q.Q.Q.Q.Q.Q.Q.Q.Q.Q.Q.Q.Q.Q.Q.Q.Q.Q.Q.Q.Q.Q.Q.Q.Q.Q.Q.Q.Q.Q.Q.Q.Q.Q.Q.Q.Q.",
"Q.Q.Q.Q.Q.Q.Q.Q.Q.Q.Q.Q.Q.Q.Q.Q.Q.Q.Q.Q.[.W.[ [.Q.Q.Q.Q.Q.Q.Q.Q.Q.Q.Q.Q.Q.Q.Q.Q.Q.Q.Q.Q.Q.Q.Q.Q.Q.Q.Q.Q.Q.Q.Q.Q.Q.Q.Q.Q.Q.Q.Q.Q.",
"Q.Q.Q.Q.Q.Q.Q.Q.Q.Q.Q.Q.Q.Q.Q.Q.Q.Q.Q.Q.Q.Q.Q.Q.Q.Q.Q.Q.Q.Q.Q.Q.Q.Q.Q.Q.Q.Q.Q.Q.Q.Q.Q.Q.Q.Q.Q.Q.Q.Q.Q.Q.Q.Q.Q.Q.Q.Q.Q.Q.Q.Q.Q.Q.",
"Q.Q.[.Q.Q.Q.Q.Q.Q.[.Q.Q.Q.Q.Q.Q.Q.Q.Q.Q.Q.Q.Q.Q.Q.Q.Q.Q.' ] ] [ Q.Q.Q.Q.Q.Q.Q.Q.Q.Q.Q.Q.Q.Q.Q.Q.Q.Q.Q.Q.Q.Q.Q.Q.Q.Q.Q.Q.Q.Q.Q.Q.",
"Q.Q.Q.Q.Q.Q.Q.Q.Q.Q.Q.Q.Q.Q.Q.Q.Q.Q.Q.Q.Q.Q.Q.Q.Q.Q.Q.Q.Q.Q.Q.Q.Q.Q.Q.Q.Q.Q.Q.Q.Q.Q.Q.Q.Q.Q.Q.Q.Q.Q.Q.Q.Q.Q.Q.Q.Q.Q.Q.Q.Q.Q.Q.Q.",
"Q.Q.Q.Q.Q.Q.Q.Q.Q.Q.Q.Q.Q.Q.Q.Q.Q.Q.Q.Q.Q.Q.Q.Q.Q.Q.Q.Q.Q.Q.Q.Q.Q.Q.Q.Q.Q.Q.Q.Q.Q.Q.Q.Q.Q.Q.Q.Q.Q.Q.Q.Q.Q.Q.Q.Q.Q.Q.Q.Q.Q.Q.Q.Q."
};
