/* XPM */
static char *result[] = {
/* columns rows colors chars-per-pixel */
"64 64 196 2 ",
"   c #750B14",
".  c #780C11",
"X  c #7A0D1B",
"o  c #781717",
"O  c #5C0326",
"+  c #54012C",
"@  c #570B2E",
"#  c #590E2E",
"$  c #5E162D",
"%  c #520330",
"&  c #540B34",
"*  c #571435",
"=  c #581939",
"-  c #650A27",
";  c #611129",
":  c #691B29",
">  c #741720",
",  c #63242D",
"<  c #672C2E",
"1  c #682E2E",
"2  c #762426",
"3  c #6D342F",
"4  c #753829",
"5  c #733A2E",
"6  c #612236",
"7  c #682B34",
"8  c #742930",
"9  c #673236",
"0  c #6A3535",
"q  c #64333A",
"w  c #683538",
"e  c #6C3A38",
"r  c #733E33",
"t  c #7C442F",
"y  c #6C443B",
"u  c #764134",
"i  c #7C4632",
"p  c #7E4A36",
"a  c #754339",
"s  c #562444",
"d  c #532B4D",
"f  c #5C3345",
"g  c #57344E",
"h  c #59334B",
"j  c #5E3B4D",
"k  c #533555",
"l  c #553855",
"z  c #583957",
"x  c #553C59",
"c  c #613542",
"v  c #613C48",
"b  c #3D785A",
"n  c #57415C",
"m  c #5A445E",
"M  c #5B495F",
"N  c #6B4F4E",
"B  c #664558",
"V  c #724953",
"C  c #6E615E",
"Z  c #574A66",
"A  c #5C4C62",
"S  c #4E5F6A",
"D  c #5E5264",
"F  c #5A576F",
"G  c #624E65",
"H  c #615567",
"J  c #695967",
"K  c #615A69",
"L  c #715A6F",
"P  c #5B6776",
"I  c #6C6161",
"U  c #65646E",
"Y  c #676570",
"T  c #666A72",
"R  c #696C72",
"E  c #696876",
"W  c #656C7A",
"Q  c #726F7A",
"!  c #6B7376",
"~  c #6A747B",
"^  c #6E7C7C",
"/  c #77747B",
"(  c #707F7C",
")  c #810E0B",
"_  c #860D15",
"`  c #8C0D18",
"'  c #920F12",
"]  c #831719",
"[  c #98111E",
"{  c #94280F",
"}  c #85291B",
"|  c #902C1D",
" . c #9C351F",
".. c #8C0A2D",
"X. c #9C1725",
"o. c #921E36",
"O. c #AB0E25",
"+. c #AA0D26",
"@. c #B60E2D",
"#. c #AD152D",
"$. c #863027",
"%. c #9F3526",
"&. c #822D31",
"*. c #BC3F21",
"=. c #B92534",
"-. c #A8471B",
";. c #B54F1E",
":. c #AC511D",
">. c #BD571F",
",. c #8C4123",
"<. c #82422A",
"1. c #884B2C",
"2. c #964826",
"3. c #8A522F",
"4. c #844D31",
"5. c #814E38",
"6. c #964D39",
"7. c #865132",
"8. c #8A5432",
"9. c #8E5933",
"0. c #83543C",
"q. c #8E5E3A",
"w. c #915D34",
"e. c #905F38",
"r. c #AC5025",
"t. c #B45539",
"y. c #936137",
"u. c #93643B",
"i. c #96693F",
"p. c #996C3E",
"a. c #8F2B4A",
"s. c #924747",
"d. c #835640",
"f. c #845841",
"g. c #9C5B51",
"h. c #9B6446",
"j. c #996E42",
"k. c #9D7343",
"l. c #9F7849",
"z. c #9F6759",
"x. c #A07746",
"c. c #A27C49",
"v. c #895666",
"b. c #A76C60",
"n. c #B77A79",
"m. c #D77B5A",
"M. c #CE5761",
"N. c #C27967",
"B. c #3B835D",
"V. c #4C8E5D",
"C. c #4C8A62",
"Z. c #50856B",
"A. c #6D837D",
"S. c #69887A",
"D. c #72847F",
"F. c #A6834E",
"G. c #D8924B",
"H. c #D98261",
"J. c #6D7183",
"K. c #747C82",
"L. c #797988",
"P. c #8E7B86",
"I. c #AA7C84",
"U. c #768681",
"Y. c #7B8485",
"T. c #778882",
"R. c #7B8B84",
"E. c #818485",
"W. c #81818E",
"Q. c #818D89",
"!. c #84928A",
"~. c #88968D",
"^. c #9C8C92",
"/. c #8E9A90",
"(. c #999499",
"). c #B7958E",
"_. c #A49598",
"`. c #B8A08F",
"'. c #A5A89E",
"]. c #B3A09B",
"[. c #A8A6A2",
"{. c #B2AAA8",
"}. c #B2B5B4",
"|. c #DA9589",
" X c #CA9995",
".X c #E89384",
"XX c #F19E8C",
"oX c #EBA090",
"OX c #F6AE9E",
"+X c #EFB5AA",
"@X c #F2BAAE",
"#X c #BBC0AF",
"$X c #C3C9BC",
"%X c #FCC1B4",
"&X c #D0CDC8",
"*X c #E7E5DB",
/* pixels */
"D.D.D.D.D.D.D.D.D.D.D.D.D.D.D.D.D.D.D.~ D.D.D.D.D.D.D.D.D.D.A.~ U.D.D.D.D.D.D.D.D.D.D.D.D.D.D.D.D.D.D.D.D.D.D.D.D.D.D.D.D.D.D.D.",
"D.D.D.D.D.D.D.D.D.D.D.D.D.D.D.D.D.D.! ^ D.D.D.D.D.D.D.D.D.D.D.D.D.D.D.D.D.D.D.D.D.D.D.D.D.D.D.D.D.D.D.D.D.D.D.D.D.D.D.D.D.D.D.D.",
"D.D.D.D.D.D.D.U.D.D.D.D.D.D.D.D.D.D.D.D.D.D.D.D.D.D.D.D.D.D.D.D.D.D.D.D.D.D.D.D.D.D.D.D.D.D.D.D.D.D.T.D.D.D.D.D.D.D.D.D.D.D.D.D.",
"D.D.D.D.D.D.D.D.D.D.D.D.D.D.D.D.D.D.D.D.D.D.D.D.D.D.D.D.D.D.D.D.D.D.D.D.D.D.D.D.D.D.D.D.D.D.D.D.D.D.D.D.D.D.D.D.D.D.D.D.D.D.D.D.",
"D.D.D.D.D.D.D.D.D.D.D.D.D.D.D.D.D.D.D.D.D.D.D.D.D.D.D.D.D.D.D.D.D.D.D.D.D.D.D.D.D.D.D.D.D.D.D.D.D.D.D.D.D.D.D.D.D.D.D.D.D.D.D.D.",
"D.D.D.D.D.D.D.D.D.D.D.D.D.D.D.D.D.D.D.D.D.D.D.D.D.D.D.D.D.D.U.D.D.D.D.D.D.D.D.D.D.D.D.D.D.D.D.D.^ D.D.D.D.D.D.D.D.D.D.D.D.D.D.D.",
"D.D.D.D.D.D.D.D.D.D.D.D.D.D.D.D.D.D.D.D.D.D.D.D.D.D.D.D.D.D.D.D.D.D.D.D.D.D.D.D.D.D.D.D.D.D.D.D.D.D.D.D.D.D.~ A.D.D.D.D.D.D.D.D.",
"D.D.D.D.D.D.D.D.D.D.D.D.D.D.D.D.D.D.D.D.D.D.D.D.D.D.D.D.D.D.D.D.D.D.D.D.D.D.D.D.D.D.D.D.D.D.D.D.D.D.D.D.D.D.D.Y.D.D.D.D.D.D.D.D.",
"D.D.D.D.D.D.D.D.D.D.D.D.D.D.D.D.D.D.D.D.D.D.D.D.D.D.D.D.D.D.D.D.D.D.D.D.D.D.D.D.D.D.D.D.D.D.D.D.D.D.D.D.D.D.D.D.D.D.D.D.D.D.D.D.",
"D.D.D.D.D.D.D.D.D.D.D.D.D.D.D.D.D.D.D.D.D.D.D.D.D.D.D.D.D.D.D.D.D.D.D.D.D.D.D.D.D.D.D.D.D.D.D.D.D.D.D.D.D.D.D.D.D.D.D.D.D.D.D.D.",
"D.D.D.D.D.D.D.D.D.D.D.D.D.D.D.D.D.D.D.D.D.D.D.D.D.D.D.D.D.D.D.D.D.D.D.D.D.D.D.D.D.D.D.D.D.D.D.D.D.D.D.D.D.D.D.D.D.D.D.D.D.D.D.D.",
"D.D.D.D.D.D.D.D.D.D.D.D.D.D.D.D.D.D.D.D.D.D.D.D.D.D.D.D.D.D.D.D.D.D.D.D.D.D.D.D.D.D.D.D.D.D.D.D.D.D.^ D.D.D.D.D.D.D.D.~ V.D.D.D.",
"D.D.D.D.D.D.D.D.D.D.D.D.D.D.D.D.D.D.D.D.D.D.D.D.D.D.D.D.D.D.D.D.D.D.D.^ D.D.D.D.D.D.D.D.D.D.D.D.D.D.D.D.D.D.D.D.D.D.D.^ S.A.D.D.",
"D.D.D.D.D.D.D.D.D.D.D.D.D.D.U.D.D.D.D.D.D.D.D.D.D.D.D.D.D.D.D.D.A.D.D.W D.D.D.D.D.D.D.D.D.D.D.D.D.D.D.D.D.D.D.D.D.D.D.A.D.D.D.D.",
"D.D.D.D.D.D.D.D.D.D.D.D.D.D.D.D.D.D.D.D.D.D.D.D.D.D.D.D.D.D.D.^ D U ( W D.D.D.D.D.D.D.D.D.D.D.D.D.D.D.D.D.D.D.D.D.D.D.D.D.D.D.D.",
"D.D.D.D.D.D.D.D.D.D.D.D.D.D.D.D.D.D.D.D.D.D.D.D.D.D.D.D.D.D.( H k l U W ( ! D.D.D.D.D.D.D.D.D.D.D.D.D.D.D.D.D.D.D.D.D.D.D.D.D.D.",
"D.D.D.D.D.D.D.D.D.D.D.D.D.D.D.D.D.D.D.D.D.D.D.D.D.D.D.D.( R D l e q l U U M ! A.D.D.D.D.D.D.D.D.D.^ R.U.D.D.D.D.D.D.A.U.R.R.!.~.",
"D.D.D.D.D.D.D.D.D.D.D.D.D.D.D.D.D.D.D.D.D.D.D.D.D.D.D.^ K k l f i t f k k h n R D.D.D.D.D.D.D.D.D.^ U.U.D.D.D.D.A.^ U.A.R.U.U.U.",
"D.D.D.D.U.D.D.D.D.D.D.D.D.D.D.D.D.D.D.T.D.D.D.D.D.D.D.K g f f 3 7.i.r g f u h n ! D.D.D.D.D.D.D.U.A.U.A.D.D.D.D.^ ~ U.U.D.D.A.U.",
"D.D.D.D.D.D.D.D.D.D.D.D.D.D.D.D.D.D.D.D.D.D.D.D.D.D.H l q 4.t t e.c.u q t 7.q k H D.D.D.D.D.D.D.D.U.^ U.D.D.D.D.U.^ U.^ D.D.U.A.",
"D.D.D.D.D.D.D.D.D.D.D.D.D.D.D.D.D.D.D.D.D.D.D.D.D.D l q 8.x.p.3.j.F.9.4.9.u.q k K D.D.D.D.D.D.D.D.D.D.D.D.D.D.D.A.U.D.D.D.D.D.D.",
"D.D.D.D.D.D.D.D.D.D.D.D.D.D.D.D.D.D.D.D.D.D.D.D.H l q 7.9.y.p.u.k.F.y.k.j.a g A ! D.D.D.D.D.D.D.D.D.D.D.D.D.D.D.U.A.U.D.D.D.D.D.",
"D.D.D.D.D.D.D.D.D.D.D.D.D.D.D.D.D.D.D.D.D.D.D.A.M k 3 3.4.i 4.r q.p.w.i u 9 g M D.D.D.D.D.D.D.D.D.D.D.D.D.D.D.D.D.D.D.D.D.U.D.^ ",
"D.D.D.D.D.D.D.D.D.D.D.D.D.D.D.D.D.D.D.D.D.D.D.D l q 7.7.5.j.9.i 7.k.c.q.8.7.q l H D.D.D.D.D.D.D.D.D.D.D.D.D.D.D.D.D.D.D.D.A.U.^ ",
"D.D.D.D.D.D.D.D.D.D.D.D.D.D.D.D.D.D.D.D.D.D.D.D x q i i x.k.p.p.k.j.j.k.e.7.a c x T D.D.D.D.D.! D.D.D.D.D.D.D.D.D.D.D.D.D.D.D.D.",
"D.D.D.D.D.D.D.D.D.D.D.D.D.D.D.D.D.D.D.D.D.D.D.! m h y i k.p.x.p.k.l.i 8.i.w k n U ( D.D.D.D.T Z ! D.D.D.D.D.D.D.D.D.D.D.D.D.D.D.",
"D.D.D.D.D.D.D.D.D.D.D.D.D.D.D.D.D.D.D.D.D.D.A.D l w k.9.8.j.7.y.c.u.5 2.3.9 k A D.D.D.D.D.T m L m ! D.D.D.D.D.D.D.D.D.D.D.D.D.D.",
"D.D.D.D.D.D.D.D.D.D.D.D.D.D.D.D.D.D.D.D.D.D.D.D k w u.7.5 8.<.<.u.w.5 4 1.9 k D D.D.D.D.U m P.].l D D.D.D.D.D.D.D.D.D.D.D.D.D.D.",
"D.D.D.D.D.D.D.D.D.D.D.D.D.D.D.D.D.D.D.D.D.D.R n f 0 3.<.,.h.N.6.4.i g.S y f m R D.D.D.U m P.^.Y.k D U.U.D.D.D.D.D.D.D.D.D.D.D.D.",
"D.D.D.D.D.D.D.D.D.D.D.D.D.D.D.D.D.D.D.D.D.! n f d.q.t 1.-.z.%X|.h.r |.).7.g M D.D.D.D.A m {.J.E.k D A.U.D.D.D.D.D.D.D.D.D.D.D.D.",
"D.D.D.D.D.D.D.D.D.D.D.D.D.D.D.D.D.D.D.A.R n f f.l.u.3 : { r.H.OXb.n.@X.XV n ! D.D.D.U x ^.W.~ H n ~ U.A.D.D.D.D.D.D.D.D.D.D.D.D.",
"D.D.D.D.D.D.D.D.U.D.D.D.D.D.D.D.D.D.D.^ n f 0.u.p 0 ; .  .G.>.m..X+XoXv.j ! D.D.D.D.D x {.J.Q.x A U.A.U.D.D.D.D.D.D.D.D.D.D.D.D.",
"D.D.D.U.A.D.D.D.D.D.D.D.D.D.D.D.D.D.D.T k c q.p , - . - #.t.G.;.%.%.;.2.v G U.U.D.K x _.P.J.G M ( D.D.D.D.D.D.D.D.D.D.D.D.D.D.D.",
"D.D.D.A.W D.D.D.D.D.D.D.D.D.D.D.D.D.! x h d.u.5 ; . . - O.@.=.*.:.2.} ] h x ( A.K.H A [.J.Y.x A ( D.D.D.D.D.D.D.D.D.D.D.D.D.D.D.",
"D.D.D.^ W D.D.D.D.D.D.D.D.D.D.D.D.D.! l f 0.0.1 o ) O O ' @.@...v.J.J 8 k m U.^ F z (.L.K.A x ( D.D.D.D.D.D.D.D.D.D.D.D.D.D.D.D.",
"D.D.D.^ W D.D.D.D.D.D.D.D.D.D.D.D.D.! l h 0.0.1 o . + O ' @.@.v.&X#X'.~ x n R K x G _.L.E.A H ( D.D.D.D.D.D.D.D.D.D.D.D.D.D.^ Y.",
"D.D.D.^ W D.D.D.D.D.D.D.D.D.D.D.D.D.! k f p p 1 $ + > > _ @.a.}.*X$X}.R.Z k k x x ^.P.U.M x ! D.D.D.D.D.D.D.D.D.D.D.D.D.D.D.~ Y.",
"D.D.U.^ ! D.D.D.D.D.D.D.D.D.D.D.D.D.^ D g 9 r 3 < : -.t.- O.o.P.$X}.'.E k k k G E L.L.L.M K D.D.D.D.D.D.D.D.D.D.D.D.D.D.D.D.^ ~ ",
"D.D.D.D.D.D.D.D.D.D.U.D.D.D.D.D.D.D.D.^ D d 6 1 1 1 $.s.$ | ' 2 v.^ F s & k k L ~.P P n z ! D.D.D.D.D.D.D.D.D.D.D.D.A.U.A.U.^ ~ ",
"D.D.D.D.D.D.D.D.D.D.D.D.D.D.D.D.D.D.D.D.^ D d = 5 3 1 0 : 1  .,.7 7 o.X   &.n. X`.R.~ F x H ^ D.D.D.D.D.D.D.D.D.D.D.U.A.U.U.^ ^ ",
"D.D.D.D.D.D.D.D.D.D.D.D.D.D.D.D.D.D.D.D.D.! D d = # # @ O - } 5 $   O.O.O.=..XXXn.D M n x T D.D.D.D.D.D.U.A.D.D.D.D.D.D.D.D.D.D.",
"D.D.D.D.D.D.D.D.D.D.D.D.D.D.D.D.D.D.D.D.D.D.^ A d d d s O ` [ - + O ] O.+.X.M.@XI.l x x T D.D.D.D.D.D.D.D.U.D.D.D.D.D.D.D.D.D.D.",
"D.D.D.D.D.D.D.D.D.D.D.D.D.D.D.D.D.D.D.D.D.D.D.^ m k d ; ` +...+ + + V } ] V ]./ B K ~ ~ ^ D.D.D.D.D.D.D.D.D.D.D.D.D.D.D.D.D.D.D.",
"D.D.D.D.D.D.D.D.D.D.D.D.D.D.D.D.D.D.D.D.D.D.D.! Z d ; ` +...& & % + & d g M Q Z x T D.D.D.D.D.D.D.D.D.D.D.D.D.D.D.D.D.D.D.D.D.D.",
"D.D.D.D.D.D.D.D.D.D.D.D.D.D.D.D.D.D.D.D.D.D.^ A k & _ X...= k k = & , < h k x x U A.D.D.D.D.D.D.D.D.D.D.D.D.D.D.D.D.D.D.D.D.D.D.",
"D.D.D.D.A.C.V.V.Z.D.D.D.D.D.D.D.D.D.D.D.D.D.^ A k * o 3 = g k n j 7 < 0 c M M K D.D.D.D.D.D.D.D.D.D.D.D.D.D.D.D.D.D.D.D.D.D.D.D.",
"D.D.D.D.A.P b B.^ K.R.R.D.D.D.D.~ ^ D.D.~ W K D z 9 t 8.7.q n R U N N N K A.D.D.D.D.D.D.D.D.D.D.D.D.D.D.D.D.D.D.D.D.D.D.D.D.D.D.",
"D.D.D.D.D.D.P R.!.R.R.R.D.D.D.D.~ D.D.D.D.D.E /.T v r t u j R D.D.D.U.A.D.D.D.D.D.D.D.D.D.D.D.D.D.D.D.D.D.D.D.D.D.D.D.D.D.D.D.D.",
"D.D.D.D.D.D.^ D.D.D.D.D.D.D.D.D.( U.D.D.D.D.~ U.U.T I C I R D.D.D.D.D.D.D.D.D.D.D.D.D.D.D.D.D.D.D.D.D.D.D.D.D.D.D.D.D.D.D.D.D.D.",
"D.D.D.D.D.D.^ ~ D.D.D.D.D.D.D.D.R.T.D.D.D.D.~ D.A.U.D.D.D.D.D.D.D.D.D.D.D.D.D.D.D.D.D.D.D.D.D.D.D.D.D.D.D.D.D.D.D.D.D.D.U.D.D.D.",
"D.D.D.D.D.D.D.D.D.D.D.D.D.D.D.D.Y.R.D.D.D.D.^ A.D.D.D.D.D.D.D.D.D.D.D.D.D.D.D.D.D.D.D.D.D.D.D.D.D.D.D.D.D.D.D.D.D.D.D.D.D.D.D.D.",
"D.D.D.D.D.D.D.D.D.D.D.D.D.D.D.D.K.R.D.D.D.D.U.D.D.D.D.D.D.D.D.D.D.D.D.D.D.D.D.^ D.D.D.D.D.D.D.D.D.D.D.D.D.D.D.D.D.D.D.D.D.D.D.D.",
"D.D.D.D.D.D.D.D.U.A.U.A.D.D.D.D.~ /.~.R.T.D.D.D.D.D.D.D.D.D.D.D.D.U.A.U.D.D.A.W D.D.D.D.D.D.D.D.D.D.D.D.D.D.D.D.D.D.D.D.D.D.D.D.",
"D.D.D.D.D.D.D.D.D.U.^ ~ ~ T T U A T Q / K.~ D.U.D.D.D.D.D.D.D.D.D.D.U.A.D.D.D.~ D.D.D.D.D.D.D.D.D.D.D.D.D.D.D.D.D.D.D.D.D.D.D.D.",
"D.D.D.D.D.D.D.D.D.D.D.D.D.D.D.( Y R.D.D.D.D.D.D.D.D.D.D.D.D.D.D.D.D.D.D.D.D.D.D.D.D.D.D.D.D.U.A.D.D.D.D.D.D.D.D.D.D.D.D.D.D.D.D.",
"D.D.D.D.D.D.D.D.D.D.D.D.D.D.D.U./ ~.D.D.D.D.D.D.D.D.D.D.D.D.D.D.D.D.D.D.D.D.D.D.D.D.D.D.D.D.D.U.D.D.D.D.D.D.D.D.D.D.D.D.D.D.D.D.",
"D.D.D.D.D.D.D.D.D.D.D.D.D.D.D.D.K.R.U.U.A.U.D.D.D.D.D.D.D.D.D.D.D.D.D.D.D.D.D.D.D.D.D.D.D.D.D.D.D.D.D.D.D.D.D.D.D.D.D.D.D.D.D.D.",
"D.D.D.D.D.D.D.D.D.D.D.D.D.D.D.D.K.T.U.A.U.A.D.D.D.D.D.D.D.D.D.D.D.D.D.D.D.D.D.D.D.D.D.D.D.D.D.D.D.D.D.D.D.D.D.D.D.D.D.D.D.D.D.D.",
"D.D.D.D.D.D.D.D.D.D.D.D.D.D.D.D.^ U.D.D.A.D.~ A.D.D.D.D.D.D.D.D.D.D.D.D.D.D.D.D.D.D.D.D.D.D.D.D.D.D.D.D.D.D.D.D.D.D.D.D.D.D.D.D.",
"D.D.D.D.D.D.D.D.D.D.D.D.D.D.D.D.D.D.D.D.U.D.~ D.D.D.D.D.D.D.D.D.D.D.D.D.D.D.D.D.D.D.D.D.D.D.D.D.D.D.D.D.D.D.D.D.D.D.D.D.D.D.D.D.",
"D.D.D.D.D.D.D.D.D.D.D.D.D.D.D.D.D.D.D.D.D.D.A.D.D.D.D.D.D.D.D.U.D.D.D.D.D.D.D.D.D.D.D.D.D.D.D.D.D.D.D.D.D.D.D.D.D.D.D.D.D.D.D.D.",
"D.D.D.D.D.D.D.D.D.D.D.D.D.D.D.D.D.D.D.D.D.D.U.D.D.D.D.D.~ W W ~ D.D.D.D.D.D.D.D.D.D.D.D.D.D.D.D.D.D.D.D.U.A.D.D.D.D.D.D.D.D.D.D.",
"D.D.D.D.D.D.A.U.D.D.D.D.D.D.D.D.D.D.D.D.D.D.D.D.D.D.D.D.D.D.D.D.D.D.D.D.D.D.D.D.D.D.D.D.D.D.D.D.D.D.D.D.D.U.D.D.D.D.D.D.D.D.D.D.",
"D.D.D.D.D.D.U.A.U.D.D.D.D.D.D.D.D.D.D.D.D.D.D.D.D.D.D.D.D.D.D.D.D.D.D.D.D.D.D.D.D.D.D.D.D.D.D.D.D.D.D.D.D.D.D.D.D.D.D.D.D.D.D.D."
};
