/* XPM */
static char *result[] = {
/* columns rows colors chars-per-pixel */
"64 64 125 2 ",
"   c #5F374E",
".  c #543656",
"X  c #593652",
"o  c #553857",
"O  c #5C3B54",
"+  c #553D5A",
"@  c #583F5A",
"#  c #6A3746",
"$  c #61374C",
"%  c #683748",
"&  c #65394B",
"*  c #743C44",
"=  c #7D3F41",
"-  c #633E52",
";  c #3D785A",
":  c #3A6F62",
">  c #57415C",
",  c #5B455D",
"<  c #6D404E",
"1  c #7F4141",
"2  c #71424C",
"3  c #7B4B4F",
"4  c #664355",
"5  c #684657",
"6  c #654558",
"7  c #654B5D",
"8  c #6B4B59",
"9  c #755E5F",
"0  c #5A4A64",
"q  c #594D68",
"w  c #5E5167",
"e  c #5C546C",
"r  c #665365",
"t  c #605969",
"y  c #6A5E6E",
"u  c #635E72",
"i  c #586E71",
"p  c #577B72",
"a  c #5B7B74",
"s  c #65636E",
"d  c #786360",
"f  c #7D6962",
"g  c #656473",
"h  c #696773",
"j  c #666973",
"k  c #6A6C73",
"l  c #6C6478",
"z  c #656C79",
"x  c #726D75",
"c  c #6B7276",
"v  c #6A747B",
"b  c #6E7C7D",
"n  c #777877",
"m  c #71747B",
"M  c #737E7D",
"N  c #797E7E",
"B  c #87413C",
"V  c #8B453E",
"C  c #8E4A3F",
"Z  c #824443",
"A  c #894741",
"S  c #834846",
"D  c #8C4C43",
"F  c #844D4B",
"G  c #914E42",
"H  c #8E554B",
"J  c #8F594E",
"K  c #955245",
"L  c #995644",
"P  c #9D5B47",
"I  c #935649",
"U  c #985748",
"Y  c #995A49",
"T  c #8D5B51",
"R  c #8B5E5B",
"E  c #9E624A",
"W  c #926252",
"Q  c #A3644C",
"!  c #A7684F",
"~  c #A26651",
"^  c #AA6C52",
"/  c #AF7256",
"(  c #A3725B",
")  c #AB7558",
"_  c #A57D5E",
"`  c #B07457",
"'  c #B17658",
"]  c #B3795A",
"[  c #816E64",
"{  c #857266",
"}  c #368E4F",
"|  c #3E8255",
" . c #368954",
".. c #3B835D",
"X. c #4C8E5D",
"o. c #4B8B62",
"O. c #50856B",
"+. c #5E8472",
"@. c #638377",
"#. c #678B72",
"$. c #648378",
"%. c #6B837C",
"&. c #67887C",
"*. c #72847F",
"=. c #B3815B",
"-. c #B68A5F",
";. c #A98562",
":. c #B78C62",
">. c #BA8D61",
",. c #BC9263",
"<. c #747C82",
"1. c #758581",
"2. c #7B8585",
"3. c #778882",
"4. c #7B8C85",
"5. c #818C87",
"6. c #838C8B",
"7. c #888D8B",
"8. c #928F84",
"9. c #84938A",
"0. c #89968C",
"q. c #8E9A90",
"w. c #929F93",
"e. c #9E9B91",
"r. c #B1A9A1",
/* pixels */
"*.*.*.*.*.*.*.*.*.*.*.*.*.*.*.*.*.*.*.*.*.*.*.*.*.*.*.*.*.*.*.*.*.*.*.*.*.*.*.*.*.*.*.*.*.*.*.*.*.*.*.*.*.*.*.*.*.*.*.*.*.*.*.*.",
"*.*.*.*.*.*.*.*.*.*.*.*.*.*.*.1.*.1.*.*.*.*.*.*.*.*.*.*.*.*.*.*.*.*.*.*.*.*.*.*.*.*.*.*.*.*.*.*.*.*.*.*.*.*.*.*.*.*.*.*.*.*.*.*.",
"*.*.*.*.*.*.*.*.*.*.*.*.*.*.*.*.1.%.1.%.*.*.*.*.*.*.*.*.*.*.*.*.*.*.*.*.*.*.*.*.*.*.*.*.*.*.*.*.*.*.*.*.*.*.*.1.*.1.*.*.*.*.*.*.",
"*.*.*.*.*.*.*.*.*.*.*.*.*.*.*.*.1.%.1.1.*.*.*.*.*.*.*.*.*.*.*.*.*.*.*.*.*.$.#.+.#.@.*.*.*.*.*.*.*.*.*.*.*.*.*.%.*.%.*.*.*.*.*.*.",
"*.*.*.*.*.*.*.*.*.*.*.*.*.*.*.b v v b %.*.*.*.*.*.*.*.*.*.*.*.*.*.*.*.*.*.a | }  .p b 1.*.*.*.*.*.*.b *.*.*.b b v g b b *.*.*.*.",
"*.*.*.*.*.*.*.*.*.*.*.*.*.*.*.v v v v <.*.*.*.*.*.*.*.*.*.*.*.*.*.*.*.*.*.v v : &.6.6.0.9.*.*.*.*.b v 1.*.*.b v s k 7.6.1.*.*.*.",
"*.*.*.*.*.*.*.*.*.*.*.*.1.*.*.*.*.*.*.*.*.*.*.1.*.*.*.1.*.*.*.*.*.*.*.*.*.*.*.g 0.1.*.*.1.%.*.*.*.b v 1.*.*.*.*.b 5.3.*.*.*.*.*.",
"*.*.*.*.*.*.*.*.*.*.*.*.*.*.*.*.*.*.*.*.*.*.*.*.*.*.*.*.*.*.*.*.*.*.*.*.*.*.1.v b *.*.*.1.1.*.*.*.*.1.%.*.*.*.*.M v *.*.*.*.*.*.",
"*.*.*.*.*.*.*.*.*.*.*.*.*.*.*.*.*.*.*.*.*.*.*.*.*.*.*.*.*.*.*.*.*.*.*.*.*.*.*.v 1.*.*.*.*.*.*.*.1.1.9.1.*.*.*.1.b v *.*.*.*.*.*.",
"*.*.*.*.*.*.*.*.*.*.*.*.*.*.*.*.*.*.*.*.*.*.*.*.*.*.*.*.*.*.*.*.*.*.*.*.*.*.*.%.*.*.*.*.*.*.*.*.1.v 6.1.*.*.*.%.1.1.*.*.*.*.*.*.",
"*.*.*.*.*.*.*.*.*.*.*.*.*.*.*.*.*.*.*.*.*.*.*.*.*.*.*.*.*.*.*.*.*.*.*.*.*.*.*.*.*.*.*.*.*.*.%.1.%.b 6.3.*.*.1.1.%.*.*.*.*.*.*.*.",
"*.*.*.*.*.*.*.*.*.*.*.*.*.*.*.*.*.*.*.*.*.*.*.*.*.*.*.*.*.*.*.*.*.*.*.*.*.*.*.*.*.1.%.1.*.*.1.1.1.v M w.0.4.3.1.1.*.*.*.*.*.*.*.",
"*.*.*.*.*.*.*.*.*.*.*.*.*.*.*.*.*.*.*.*.*.*.*.*.*.*.*.*.*.*.*.*.*.*.*.*.*.*.*.*.*.*.*.b v z j s z t w h k x <.v *.*.*.*.*.*.*.*.",
"*.*.*.*.*.*.*.*.*.*.*.*.*.*.*.*.*.*.*.*.*.*.*.*.*.*.*.*.*.*.*.*.*.*.*.*.*.*.*.*.*.*.*.*.1.1.*.*.*.c m 4.*.*.1.b *.*.*.*.*.1.*.*.",
"*.*.*.*.*.*.*.*.*.*.*.*.*.*.*.*.*.*.*.*.*.*.*.*.*.*.*.*.*.*.*.*.*.*.*.*.*.*.*.*.*.*.*.*.*.*.*.*.*.b 7.5.*.*.*.*.*.*.*.*.*.*.*.*.",
"*.*.*.*.*.*.*.*.*.*.*.*.*.*.*.*.*.*.*.*.*.*.*.*.*.*.*.*.*.*.*.1.*.*.*.*.*.*.*.*.*.*.*.*.*.*.*.*.*.b 6.*.*.*.*.*.*.*.*.*.*.*.*.*.",
"*.*.*.*.*.*.*.1.*.*.*.*.*.*.*.*.*.*.*.*.*.*.*.*.*.*.*.*.*.*.*.4.9.*.*.*.*.*.*.*.*.*.*.*.*.*.*.*.*.b 6.*.*.*.*.*.*.*.*.*.4.4.9.0.",
"*.*.*.*.*.*.*.*.*.*.*.*.*.*.*.*.*.*.*.*.*.*.*.*.*.*.*.*.*.*.*.*.*.*.*.*.*.*.*.*.*.*.*.*.*.*.*.*.*.b 1.*.*.*.*.*.*.b *.*.9.*.*.1.",
"*.*.*.*.*.*.*.*.*.*.*.*.*.*.*.*.*.*.*.*.*.*.*.*.*.*.*.*.*.*.*.*.*.*.*.*.*.*.*.*.*.*.*.*.*.*.*.*.*.*.*.*.*.*.*.*.b v 1.*.*.*.*.*.",
"*.*.*.*.*.*.*.*.*.*.*.*.*.*.*.*.*.*.*.*.*.*.*.*.*.*.*.*.*.*.*.*.*.*.*.*.*.*.*.*.*.*.*.*.*.*.*.*.*.*.*.*.*.*.*.*.*.b *.b *.*.*.*.",
"*.*.*.*.*.*.*.*.*.*.*.*.*.*.*.*.1.1.%.1.*.*.*.*.<.1.%.1.*.*.*.1.*.*.*.*.*.*.*.1.*.1.*.*.*.*.*.*.*.*.*.*.*.*.*.*.*.*.*.*.*.*.*.*.",
"*.*.*.*.*.*.*.*.*.*.*.*.*.*.*.*.*.%.1.v t t t t t t t t t t t t e t t t t t t w t t z *.*.*.*.*.*.*.*.*.*.*.*.*.*.*.*.*.*.*.%.1.",
"*.*.*.*.*.*.*.*.*.*.*.*.*.*.*.*.%.v s w @ $ # # % % % % % % % % % & # # & % % % & o 0 t z %.*.*.*.*.*.*.*.*.*.*.*.*.*.*.1.%.1.b ",
"*.*.*.*.*.*.*.*.*.*.*.*.*.*.*.*.M e o   < S C K K K K K K G K G K K K K K K K G A 2 & o 0 v *.*.*.*.*.*.*.*.*.*.*.*.*.*.*.1.1.b ",
"*.*.*.*.*.*.*.*.*.*.*.*.*.*.*.*.z @ $ 1 E ! / ] ] ] ] ] ] ] ] ] ] ] ] ] ] ] ] ` Q Q A & . g *.*.*.*.*.*.*.*.*.*.*.*.*.*.*.*.*.*.",
"*.*.*.*.*.*.*.*.*.*.*.*.*.*.*.%.e @ Z Y -.-.] ] ] ] ] ' ] ] ] ] ] ] ] ] ] ] ' ] ] / Q A   q c *.*.*.*.*.*.*.*.*.*.*.*.*.*.*.*.*.",
"*.*.*.*.*.*.*.*.*.*.*.*.*.*.*.b @ X D ~ =.-.] ` / / / ] ] ] ] ] ] / / ` ` ` ^ ^ / / ^ U - . j *.*.*.*.*.*.*.*.*.*.*.*.*.*.*.*.*.",
"*.*.*.*.*.*.*.*.*.*.*.*.*.*.*.c @ . = D D Y Q P Q ! ! ] ] ] ] ] ] ! Q P Q Q Y K Q ! Q D O . s *.*.*.*.*.*.*.*.*.*.*.*.*.*.*.*.*.",
"*.*.*.*.*.*.*.*.*.*.*.*.*.*.*.b @ o I =.:.] ! ! =.-.,.,.,.,.] ] ] ' ` ` ` ` ] -.,.>.-.) 4 . j *.*.*.*.*.*.*.*.*.*.*.*.*.*.*.*.*.",
"*.*.*.*.*.*.*.*.*.*.*.*.*.*.*.c > O _ =.=.] ] / ] =.] ] ] ] ] ] ] ' ] ] ] ] ] ] =.] =.:.5 . j *.*.*.*.*.*.*.*.*.*.*.*.*.*.*.*.*.",
"*.*.*.*.*.*.*.*.*.*.*.*.*.*.*.b @ O ;.=.] ] ] ] ] ] ] ] ] ] ] ] ' ] ' ] ] ] ] ] ] ] ] :.8 . j *.*.*.*.*.*.*.*.*.*.*.*.*.1.*.*.*.",
"*.*.*.*.*.*.*.*.*.*.*.*.*.*.*.b @ + ( ] ] ] ] ] ] ] ] ] ] ] ] ] ] ] ] ] ] ] ] ] ] ] ' ! 4 . j *.*.*.*.*.*.*.*.*.*.*.*.*.*.*.*.*.",
"*.*.1.1.b *.*.*.*.*.*.*.*.*.1.b e @ F ^ ] ] ^ ^ ] ] ] ] ] ] ] ] ' ] ] ] ] ` ! Q ! Q Q D O 0 v %.*.*.*.*.*.*.*.*.*.*.*.*.*.*.*.*.",
"*.*.*.%.z *.*.*.*.*.*.*.*.*.*.%.z @ & D K I G G K U K K U ! ~ ^ ! ! ! ! ! Q Q ! ^ ^ ~ * . g b 1.*.*.*.*.*.*.*.*.*.*.*.*.*.*.*.*.",
"*.*.1.b z 1.*.*.*.*.*.*.*.*.*.*.m > o S K U U K D C G C G L P P P P P P Q P K ! ^ ^ E 4 . k *.*.*.*.*.*.*.*.*.*.*.*.*.*.*.*.*.*.",
"*.*.%.<.z %.*.*.*.*.*.*.*.*.*.*.b > X S Q ^ ^ ! P P P P P P P P P P P P Q P V P P Y D X . k *.*.*.*.*.*.*.*.*.*.*.*.*.*.*.*.b 1.",
"*.*.*.b z *.*.1.*.*.*.*.*.*.*.*.b 0 . # D P P P P Y P P Y P P P P Y P P P K D P Y K * X > c *.*.*.*.*.*.*.*.*.*.*.*.*.*.*.*.v 2.",
"*.*.*.b k *.*.*.*.*.*.*.*.*.*.*.*.j + . 3 I I T K H H I T W I J W T I H H I I I H * X . s b *.*.*.*.*.*.*.*.*.*.*.*.*.*.*.*.b v ",
"*.*.*.*.*.*.*.*.*.*.*.*.*.*.*.*.*.b , . O 5 8 8 5 - - 6 u N r 5 n l 0 - 6 8 5 8 8 6 o o c %.*.*.*.*.*.*.*.*.*.*.*.*.1.*.%.1.b v ",
"*.*.*.*.*.*.*.*.*.*.*.*.*.*.*.*.*.b 0 . F Y Y Y U I I T y 0.R F 8.y 3 Y U Y Y U Y I O o c *.*.*.*.*.*.*.*.*.*.*.*.*.1.%.1.1.v <.",
"*.*.*.*.*.*.*.*.*.*.*.*.*.*.*.*.*.b > . F L L P P L P H 6 *.r.e.2.r F P P P P P P I O + c *.*.*.*.*.*.*.*.*.*.*.*.*.*.*.*.*.*.*.",
"*.*.*.*.*.*.*.*.*.*.*.*.*.*.*.*.*.b i > * B B B B B B B H 8 l r 7 3 Y P Q P P P P K , e b *.*.*.1.*.*.*.*.*.*.*.*.*.*.*.*.*.*.*.",
"*.*.*.*.*.*.*.*.*.*.*.*.*.*.*.*.*.*.b , * D K L K L U L U I J I H Y P P P C B B 1 4 O c *.*.*.*.*.*.*.*.*.*.*.*.*.*.*.*.*.*.*.*.",
"*.*.*.*.*.*.*.*.*.*.*.*.*.*.*.*.*.*.*., X D P P P P P P P P Y Y P P P P Q P C K D X + c *.*.*.*.*.*.*.*.*.*.*.*.*.*.*.*.*.*.*.*.",
"*.*.*.*.*.*.*.*.1.%.1.1.*.*.*.*.*.*.*.> . * V V V V V V V V V V V V V V K P L V 1 X + c *.*.*.*.*.*.*.*.*.*.*.*.*.*.*.*.*.*.*.*.",
"*.*.*.*.%.o.X.X.O.1.%.1.*.*.*.*.*.*.*.j y y 9 9 d 9 d d d d d d d d d d f { [ d 9 s s %.*.*.*.*.*.*.*.*.*.*.*.*.*.*.*.*.*.*.*.*.",
"*.*.*.*.v i ; ..v 1.4.3.*.*.*.*.v %.*.*.v k t h <.1.*.*.*.*.*.*.*.*.*.*.*.*.*.*.*.*.*.*.*.*.*.*.*.*.*.*.*.*.*.*.*.*.*.*.*.*.*.*.",
"*.*.*.*.*.*.v 3.0.4.5.3.*.*.*.1.z *.*.*.1.*.k q.6.4.*.*.*.*.*.*.*.*.*.*.*.*.*.*.*.*.*.*.*.*.*.*.*.*.*.*.*.*.*.*.*.*.*.*.*.*.*.*.",
"*.*.*.*.*.*.b 1.*.*.*.*.*.*.*.*.M *.*.*.*.*.v 1.1.1.%.1.*.*.*.*.*.*.*.*.*.*.*.*.*.*.*.*.*.*.*.*.*.*.*.*.*.*.*.*.*.*.*.*.*.*.*.*.",
"*.*.*.*.*.*.b v *.*.*.*.*.*.*.*.4.3.*.*.*.*.v *.1.%.%.1.*.*.*.*.*.*.*.*.*.*.*.*.*.*.*.*.*.*.*.*.*.*.*.*.*.*.*.*.*.*.*.*.*.*.*.*.",
"*.*.*.*.*.*.*.*.*.*.*.*.*.*.*.*.2.4.*.*.*.*.b *.*.1.1.1.1.*.*.*.*.*.*.*.*.*.1.1.*.*.*.*.*.*.*.*.*.*.*.*.*.*.*.*.*.*.*.*.*.*.*.*.",
"*.*.*.*.*.*.*.*.*.*.*.*.*.*.*.*.<.4.*.*.*.*.1.*.*.%.1.M %.1.*.*.*.*.*.*.*.*.%.b *.*.*.*.*.*.*.*.*.*.*.*.*.*.*.*.*.*.*.*.*.*.*.*.",
"*.*.*.*.*.*.*.*.*.*.*.*.*.*.*.*.c w.0.4.1.1.*.*.*.*.*.*.*.*.*.*.*.*.*.*.*.*.%.z *.*.*.*.*.*.*.*.*.*.*.*.*.*.*.*.*.*.*.*.*.*.*.*.",
"*.*.*.*.*.*.*.*.*.*.b v v g j g q s x m <.v *.*.*.*.*.*.*.*.*.*.*.*.*.*.*.*.*.v *.*.*.*.*.*.*.*.*.*.*.*.*.*.*.*.*.*.*.*.*.*.*.*.",
"*.*.*.*.*.*.*.*.*.*.*.*.*.*.*.*.g 5.*.*.*.*.*.*.*.*.*.*.*.*.*.*.*.*.*.*.*.*.*.*.*.*.*.*.*.*.*.*.*.*.*.*.*.*.*.*.*.*.*.*.*.*.*.*.",
"*.*.*.*.*.*.*.*.*.*.*.*.*.*.*.*.<.0.*.*.*.*.*.*.*.*.*.*.*.*.*.*.*.*.*.*.*.*.*.*.*.*.*.*.*.*.*.*.*.*.*.*.*.*.*.*.*.*.*.*.*.*.*.*.",
"*.*.*.*.*.*.*.*.*.*.*.*.*.*.*.*.<.3.1.1.1.%.*.*.*.*.*.*.*.*.*.*.*.*.*.*.*.*.*.*.*.*.*.*.*.*.*.*.*.*.*.*.*.*.*.*.*.*.*.*.*.*.*.*.",
"*.*.*.*.*.*.*.*.*.*.*.*.*.*.*.*.<.3.1.1.%.1.*.1.*.*.*.*.*.*.*.1.*.*.*.*.*.*.*.*.*.*.*.*.*.*.*.*.*.*.*.*.*.*.*.*.*.*.*.*.*.1.*.*.",
"*.*.*.*.*.*.*.*.*.*.*.*.*.*.*.*.v 1.*.*.1.1.v %.*.*.*.*.*.*.1.%.*.*.*.*.*.*.*.*.*.*.*.*.*.*.*.*.*.*.*.*.*.*.*.*.*.*.*.*.*.*.*.*.",
"*.*.*.*.*.*.*.*.*.*.*.*.*.*.*.*.*.*.*.*.1.%.v 1.*.*.*.*.*.*.1.%.*.*.*.*.*.*.*.*.*.*.*.*.*.*.3.*.*.*.*.*.*.*.*.*.*.*.*.*.*.*.*.*.",
"*.*.*.*.*.*.*.*.*.*.*.*.*.*.*.*.*.*.*.*.*.*.%.*.*.*.*.*.%.1.1.1.*.*.*.*.*.*.*.*.*.*.*.*.*.*.*.*.*.*.*.*.*.*.*.*.*.*.*.*.*.*.*.*.",
"*.*.*.*.*.*.*.*.*.*.*.*.*.*.*.*.*.*.*.*.*.1.1.*.*.*.*.*.v v z v *.*.*.*.*.*.*.*.*.*.*.*.*.*.*.*.*.*.*.*.*.*.*.*.*.*.*.*.*.*.*.*.",
"*.*.*.*.*.*.*.*.*.*.*.*.*.*.*.*.*.*.*.*.*.*.*.*.*.*.*.*.*.*.*.*.*.*.*.*.*.*.*.*.*.*.*.*.*.*.*.*.*.*.*.*.*.*.*.*.*.*.*.*.*.*.*.*.",
"*.*.*.*.*.*.*.*.*.*.*.*.*.*.*.*.*.*.*.*.*.*.*.*.*.*.*.*.*.*.*.*.*.*.*.*.*.*.*.*.*.*.*.*.*.*.*.*.*.*.*.*.*.*.*.*.*.*.*.*.*.*.*.*."
};
