/* XPM */
static char *result[] = {
/* columns rows colors chars-per-pixel */
"64 64 116 2 ",
"   c #76383F",
".  c #7E3D3E",
"X  c #543655",
"o  c #583652",
"O  c #543857",
"+  c #5C3B54",
"@  c #553C5A",
"#  c #653B4E",
"$  c #703743",
"%  c #743A42",
"&  c #783B41",
"*  c #4D4E54",
"=  c #524156",
"-  c #57405B",
";  c #5C425B",
":  c #524A5C",
">  c #5F485E",
",  c #4C5057",
"<  c #7C4043",
"1  c #754149",
"2  c #784349",
"3  c #664355",
"4  c #694656",
"5  c #6B4856",
"6  c #624559",
"7  c #674A5A",
"8  c #6B4B59",
"9  c #704550",
"0  c #724952",
"q  c #6D505A",
"w  c #5B4661",
"e  c #5B4C62",
"r  c #5D5064",
"t  c #5D576E",
"y  c #624D61",
"u  c #635162",
"i  c #6B5564",
"p  c #6F5A66",
"a  c #62576B",
"s  c #64586D",
"d  c #6C5A6A",
"f  c #745D6C",
"g  c #605B70",
"h  c #735D71",
"j  c #516C68",
"k  c #5D6075",
"l  c #596B71",
"z  c #5E6479",
"x  c #597973",
"c  c #67666F",
"v  c #74616A",
"b  c #7C786F",
"n  c #636475",
"m  c #6A6277",
"M  c #656976",
"N  c #6F6D72",
"B  c #6A6C7C",
"V  c #6A7177",
"C  c #6A7479",
"Z  c #6E7B7B",
"A  c #717574",
"S  c #7E7B72",
"D  c #833D3B",
"F  c #86423C",
"G  c #89433D",
"H  c #8C483F",
"J  c #844341",
"K  c #854944",
"L  c #8E4D42",
"P  c #824D4C",
"I  c #924E42",
"U  c #8F5147",
"Y  c #87524D",
"T  c #8A534B",
"R  c #955343",
"E  c #9A5745",
"W  c #9E5C47",
"Q  c #945749",
"!  c #965A4A",
"~  c #995E4E",
"^  c #9C6247",
"/  c #9A6B47",
"(  c #97624B",
")  c #9F6148",
"_  c #9C6E49",
"`  c #9C734D",
"'  c #8B6D54",
"]  c #937251",
"[  c #9D7B50",
"{  c #A06649",
"}  c #A06949",
"|  c #A0744A",
" . c #A47B4C",
".. c #A36A55",
"X. c #836974",
"o. c #827E73",
"O. c #5E8472",
"+. c #638377",
"@. c #678B72",
"#. c #648378",
"$. c #6B837C",
"%. c #72847F",
"&. c #7D827D",
"*. c #768681",
"=. c #7E8686",
"-. c #8C8C86",
";. c #838788",
":. c #888E8B",
">. c #86948B",
",. c #9A9388",
"<. c #999A8E",
"1. c #A29A89",
"2. c #ABA5A2",
"3. c #AFA8A5",
"4. c #B7AFA3",
"5. c #C2B1A1",
/* pixels */
"%.%.%.%.%.%.%.%.%.%.%.%.%.%.%.%.%.%.%.%.%.%.%.%.%.%.%.%.*.*.*.*.$.*.*.Z *.$.*.*.*.*.Z *.$.*.*.$.*.*.*.*.%.%.%.%.%.%.%.%.%.%.%.%.",
"%.%.%.%.*.%.%.%.%.%.%.%.%.%.%.%.*.$.%.%.$.*.%.%.%.%.%.*.Z *.$.*.Z *.*.$.*.*.*.$.$.*.*.*.$.*.*.$.*.Z *.#.%.%.*.$.*.%.%.%.*.$.*.%.",
"%.%.%.%.%.%.%.%.%.%.%.%.*.*.%.%.*.$.*.*.%.%.*.%.%.%.%.%.$.*.*.*.*.*.*.*.*.$.*.$.*.*.*.$.*.*.*.*.$.$.*.*.%.%.%.%.%.*.*.%.%.%.%.%.",
"%.%.%.%.%.%.%.%.%.%.%.%.$.$.*.%.#.*.*.*.%.%.%.%.%.%.%.%.*.*.$.$.*.$.$.*.%.+.+.O.@.O.*.*.*.Z $.*.*.*.#.*.%.%.%.*.%.Z $.*.%.%.%.%.",
"%.%.%.%.%.%.%.%.*.$.$.*.*.$.*.Z Z C Z *.*.$.*.M e w w e e w e e e e w : e : * , j x Z *.*.*.*.*.%.$.$.*.*.$.$.Z B M Z Z %.$.*.%.",
"%.%.%.%.%.%.%.%.*.*.*.*.%.*.*.Z C C B z e e w - O O X X X X O O X X X X X X X X - w e r M Z *.*.%.Z B *.%.%.C C M B =.=.*.*.%.%.",
"%.%.%.%.%.%.%.%.Z *.*.$.$.*.*.Z M e e @ O X X X X $ & & % % @ ; - + %   %   $ X O O O O w w e M Z Z Z *.*.%.%.%.Z ;.=.*.$.*.%.%.",
"%.*.%.%.%.%.%.%.*.*.*.$.*.z e e @ O X o $ %     $ U I R I . % 6 6 % . I R E I %     % 2 O X O @ w r z *.$.%.%.*.Z Z %.%.%.%.%.%.",
"%.%.%.%.%.%.%.%.$.*.*.z e - O X o % % & . D D H E W W W E I D . 6 . R W W W W H W H G E Q U P + X O w e z *.*.*.Z Z %.%.*.%.%.%.",
"%.%.*.%.%.%.%.%.*.n e - O X $ % Q } } _ I D R W W W W W W E D D & J _ W W W W W W W G E W W W T Y P o X - e n $.*.*.%.$.%.%.%.%.",
"%.%.%.%.%.%.$.M e @ X X $ % R _  . .{ ) E G E W W W W W W E D D D F | ) W W W W W E G E W W W W W E T $ X X - e z $.*.*.*.%.%.%.",
"%.%.%.%.%.Z r - X X $ $ F /  . .{ ) W W E D E W W W W W W W I D D Q | ) W W W W W E G E W W W W W W E F P % o X - r Z *.%.%.%.%.",
"%.%.%.%.Z r O X $ . D H F ` } } W W W W E G E W W W W W W W E D D W | { W W W W W E G E W W W W W W E G E R   $ X O r Z %.*.*.*.",
"%.%.%.Z e X o $ D G H E H ` { W W W W W E D E W W W W W W W E D D W  .{ W W W W W E D E W W W W W W E G _ W R D $ o O r C *.Z *.",
"%.%.Z r X o   D H F E E F W W W W W W W E G E W W W W W W W W D F / } W W W W W W E G E W W W W W W E H | { W D H % X O r C *.*.",
"%.%.M @ o $ . R E G E { H H E W W W W W E E H E W W W W W W E D F ` ^ W W W W W E H R W W W W W W E H Q | W E F Q F $ O @ l Z *.",
"%.Z > O o . R E W E W W E G E W W W W W W E D W W W W W W W E D G | { W W W W W E G E W ) W W W W E F | { W W E E D . o X e =.>.",
"%.Z @ o $ D E W W W W W E G E W W W W W W W D E W W W W W W E D F | W W W W W W E J E W W W W W W E F | ) W W W E D H % o @ Z %.",
"%.Z @ o . R W W W W W W E G E W W W W W W E G W W W W W W W W D F | W W W W W W E G W W W W W W W E H | ) W W W W E E . o - Z %.",
"%.Z - o . E W W W W W W E G E W W W W W W W D E W W W W W W W D F | { W W W W W E G E W W W W W W E H | ) W W W W W E . o @ Z %.",
"%.Z - o . E W W W W W W { H W W W W W W W E D W W W W W W W E D F ` { W W W W W E 0 E W W W W W W E F ) W W W W W W E . o - Z %.",
"%.Z - o . E W W W W W W W W W W W W W W W E D W W W W W W W E D D G G F D G H E ! 8 ! W W W W W W E F E W W W ) W W E . o @ Z %.",
"%.Z - X # Q W W W W W W W W W W W W W W W E D W W W W W W W E D F H / / _ _ ) K 9 y ! W W W W W E H E E W W W W W W Q # o - Z Z ",
"%.Z - X + Q W W W W W W W W W W W W W W W W D W W W W W W W E D F |  .} { { { Q Y 8 ! W W W W W E F E W ) W W W W W Q + X @ Z %.",
"%.Z t O o J E W W W W W W W ^ | W W W W W E D W W W W W W W W D F | } W W W W W ! 8 ! W W W W W E G E W W W W W W E J o O t Z *.",
"%.$.C @ o . E W W W W W W ^ { | W W W W W E D W W W W W W W E D G | { W W W W W E J E W W W W W E G E W W W W W W E . o @ C %.$.",
"%.%.Z - o . E W W W W W W E H | { W W W W E D E W W W W W W E D F | ^ W W W W W E G E W W W W W E G E W W W W W W W . o @ Z *.%.",
"%.%.Z ; o # Q W W W W W W W H | ) W W W W W H E W W W W W W E D F | { W W W W W E G E W W W W W W E W W W W W W W Q # o - Z %.%.",
"%.%.Z ; X + ! W W W W W W E H ` ) W W W W W D E W W W W W W E D D | W W W W W W E D E W W W W W W W W W W W W W W Q + X - Z %.%.",
"%.%.Z t O + ! W W W W W W E H | ) W W W W W E H W W W W W W E D F | { W W W W E G E W W W W W W W W W W W W W W W Q + O t $.%.%.",
"%.%.%.V @ + Q W W W W W W E H ` ) W W W W W E H E W W W W W W D F | { W W W W E G E W W W W W W W W W W W W W W W Q + @ V %.%.%.",
"%.%.%.Z - X F E W W W W W E G ^ | W W W W W E D E W W W W W E D F | { W W W W E G E W W W W W W W W W W W W W W W J + @ Z %.%.%.",
"%.%.*.C @ o D E W W W ) W W R H ) E H G G G E D W W W W W W E D F | { W W W W E G E W W W W W W W W W W W W W W E . o - Z %.%.%.",
"%.%.%.C @ X # Q W W W W W W Q 5 5 G R / _ _ W G E W W W W W E D H H W W W W W E G E W W W W W W W W W W W W W W ! # X - Z *.%.%.",
"%.%.*.Z t O + Q W W W W W W ! 8 T _ | { { { E G E W W W W W E D G { W W W W W E D E W W W W W W W W W W W W W W Q + O a Z %.%.%.",
"%.%.*.Z k @ + Q W W W W W W ! 8 `  .{ W W W E G E W W W W W E D F H W W W W W E G E W W W W W ) W W W W W W W W Q + @ C %.%.Z *.",
"%.%.%.$.c @ + Q W W W W W W ! q [  .{ W W W W D E W W W W W W D D E W W W W W W G E W W W W W ) W | W W W W W W Q o w C %.%.C =.",
"%.%.%.%.M = o J E W W W W W E K [ } W W W W W E W W W W W W E D D E W W W W W E G E W W W W W E I  .) W W W W E J O = Z %.%.Z C ",
"%.%.%.%.Z - X # ) ) W W W W E G | ) W W W W W W W W W W W W E D D E W W W W W E G E W W W W W E G | ) W W W W E # O - Z *.*.Z C ",
"%.%.%.%.Z - X ; ` ) ) W W W E H | { W W W W W W W W W W W W E D D E W W W W W E G E W W W W ) E H | ) W W W W Q o O @ C *.*.Z Z ",
"%.%.%.%.Z t O ; ` W W W W W E G W W W W W W W W W W W W W W E D D E W W W W W E G E W W W W W E G | ) W W W W Q + @ t Z *.%.%.%.",
"%.%.%.*.$.C @ + ( | ) W W W E G E W W W W W W W W W W W W W E D D W W W W W W W E W W W W W W E G | ) W ) W W Q + @ V %.%.%.%.%.",
"%.%.%.%.%.Z - + K | { W W W W R H E W W W ) ) W W W W W W W W D D E W W W W W W W W W W W W E H E | ) W W W W Q + - Z %.%.*.%.%.",
"%.%.%.%.%.Z - X # ` { W W W W ! G E ! p i J R K i p ! W W W E D D E W W W ! p i K E K i p ! E F | } W W W W ! 4 O - Z %.*.$.*.%.",
"%.%.%.%.%.$.= X 6 ` ) W W W W E D ! v ;.y U W U e M f ! W W E D D W W W ! v ;.y I W R w B p ! H | ) W W W W ! + O - C *.$.$.*.*.",
"%.%.%.%.$.j = X + ` W W W W W E J ~ -.d & W W ! Y y N ( W W E D D E W W { -.d 2 Q W ! Y 7 V ! F | ) W W W W Q o O - C *.*.*.*.$.",
"%.%.%.%.Z l t O + ! W W W W W E G { <.s . E W W ! a A L W W E D D E W W ..<.s < E W W ! s Z K F | W W W W W Q + O t Z *.%.*.*.$.",
"%.%.%.%.%.%.n = + ! W W W W W Q G ~ &.g J E W W ~ m -.P E W W . 2 E W W ..4.h & E W W ! n -.K F | { W W W W Q + = C Z *.%.$.*.*.",
"%.%.%.%.%.%.C @ + J E W W W W E G U i B A b o.1.5.3.f . E W E . 4 ! W W ! X.2.,.o.S S S :.f D D | W W W W W ! + - Z %.%.%.%.%.%.",
"%.%.%.%.%.%.C + X # ! W W W W E G E Y y z g z d h f & R W W E . 4 ! W W W T f B z k e e u % I H | ) W W W E F o - Z %.%.%.%.%.%.",
"%.%.%.%.%.%.Z @ X + Q W W W W E D E W U 2 % 1 % & & R ~ W W E J 7 ! W W W W T 2 1 % % & & R E D ) W W W W Q # X - Z %.%.%.%.%.%.",
"%.%.%.%.%.%.Z - X o Q W W W W E G E W W E R R I D R W W W W E . 6 4 0 J G J G D I Q R R R W W G E W W W W Q + X - Z %.%.%.%.%.%.",
"%.%.%.%.%.%.Z = X + ! W W W W E G E W W W W W E G E W W W W E . 7 ' ] ` _ _ R D E W W W W W W G E W W W W Q + X @ Z %.%.%.%.%.%.",
"%.%.%.%.%.%.%.t O + Q W W W W E G E W W W W W E G E W W W W E D 4 ( { { { { E G E W W W W W E D E W W W W Q + O t %.%.%.%.%.%.%.",
"%.%.%.%.%.%.%.V @ + ! W W W W W E W W W W W W E D E W W W W E D & ! W W W W E G E W W W W W E D E W W W W Q + - V %.%.%.%.%.%.%.",
"%.%.%.%.%.%.%.Z - + ! W W W W W W W W W W W W E J W W W W W E D D E W W W W E G E W W W W W W E W W W W W Q + - Z %.%.%.%.%.%.%.",
"%.%.%.%.%.%.%.Z - + Q W W W W W W W W W W W W E G E W W W W E D D W W W W W W D E W W W W W W W W W W W W Q + - Z %.%.%.%.%.%.%.",
"%.%.%.%.%.%.%.Z - o K E W W W W W W W W W W W E G W W W W W E D D E W W W W W G E W W W W W W W W W W W E K o - Z %.%.%.%.%.%.%.",
"%.%.%.%.%.%.%.Z - X # ! W W W W W W W W W W W E G E W W W W E D D E W W W W E D E W W W W W W W W W W W Q # X - Z %.%.%.%.%.%.%.",
"%.%.%.%.%.%.%.Z - X o ! W W W W W W E L E W W E G E W W W W E D D E W W W W W G E W W W W W W H E W W W Q + X - Z %.%.%.%.%.%.%.",
"%.%.%.%.%.%.%.Z g O + Q W W W W W W E G E W W E D G E W W W E D D E W W W E L I W W W W W W E D E W W W Q + O t %.%.%.%.%.%.%.%.",
"%.%.%.%.%.%.%.%.C @ + Q E H E W E L R D G E W E D D E W W W E J 9 E W W W E 0 E W W W W W W ! 9 J W W W Q + @ C %.%.%.%.%.%.%.%.",
"%.%.%.%.%.%.%.%.Z @ o F R G E H Q 9 I D D D G Q # D E W W W E . 4 ! W W W Q 8 ! W W W W W W K 3 . D H R F o ; C %.%.%.%.%.%.%.%.",
"%.%.%.%.%.%.%.%.Z - o . D D D D Q 4 . D D D D J 5 J E W W W E . 4 ! W W E K 4 ! W W W W W E D 6 3 . D D 3 o = Z %.%.%.%.%.%.%.%."
};
