/* XPM */
static char *result[] = {
/* columns rows colors chars-per-pixel */
"64 64 125 2 ",
"   c #563956",
".  c #5F3E55",
"X  c #6C3945",
"o  c #673749",
"O  c #683748",
"+  c #663C4E",
"@  c #6A3C4A",
"#  c #733A42",
"$  c #3D785A",
"%  c #59425D",
"&  c #5C485F",
"*  c #6F434D",
"=  c #73434B",
"-  c #7C4E4D",
";  c #7F514F",
":  c #664354",
">  c #6A4453",
",  c #6E4B54",
"<  c #654659",
"1  c #62495B",
"2  c #6A4B5A",
"3  c #734C52",
"4  c #725256",
"5  c #7B5452",
"6  c #7A5A57",
"7  c #745B5D",
"8  c #785D5A",
"9  c #78625F",
"0  c #564663",
"q  c #574866",
"w  c #5C4D63",
"e  c #554C6B",
"r  c #5A4F6A",
"t  c #5D5165",
"y  c #57526F",
"u  c #5C546A",
"i  c #5F596A",
"p  c #5D5B73",
"a  c #614F64",
"s  c #635266",
"d  c #62586B",
"f  c #685B6B",
"g  c #705A61",
"h  c #586E71",
"j  c #5E6479",
"k  c #6C646B",
"l  c #756463",
"z  c #786562",
"x  c #766A67",
"c  c #71676A",
"v  c #766D6A",
"b  c #75716D",
"n  c #7C716D",
"m  c #656272",
"M  c #6C6671",
"N  c #656B73",
"B  c #686A71",
"V  c #646579",
"C  c #656B7A",
"Z  c #686D7F",
"A  c #736271",
"S  c #756E77",
"D  c #7E697A",
"F  c #6C7276",
"G  c #66717B",
"H  c #6A757B",
"J  c #6E7C7D",
"K  c #747673",
"L  c #737975",
"P  c #7A7A75",
"I  c #75757B",
"U  c #7C7178",
"Y  c #727C7B",
"T  c #7B7C7C",
"R  c #80524F",
"E  c #835451",
"W  c #83746E",
"Q  c #3B835D",
"!  c #4C8E5D",
"~  c #4C8A62",
"^  c #50856B",
"/  c #6D837D",
"(  c #69887A",
")  c #72847F",
"_  c #87827B",
"`  c #8D867D",
"'  c #97877B",
"]  c #928A7F",
"[  c #757D83",
"{  c #7C7987",
"}  c #897A84",
"|  c #758581",
" . c #7A8485",
".. c #778982",
"X. c #7B8C85",
"o. c #7E8389",
"O. c #818987",
"+. c #888887",
"@. c #818E89",
"#. c #898988",
"$. c #948D84",
"%. c #90858A",
"&. c #83938A",
"*. c #88968D",
"=. c #989084",
"-. c #9B978F",
";. c #8C8C96",
":. c #908C96",
">. c #9D8D93",
",. c #8C9592",
"<. c #8C9990",
"1. c #939D94",
"2. c #94949B",
"3. c #979F99",
"4. c #9A9A9E",
"5. c #A19797",
"6. c #A99D95",
"7. c #94A195",
"8. c #9BA49A",
"9. c #A1AA9F",
"0. c #A7A5A4",
"q. c #ACA7A7",
"w. c #ACAAA9",
"e. c #B9A8A1",
"r. c #ABB0A5",
/* pixels */
") ) ) ) ) ) ) ) ) ) ) ) ) ) ) ) ) ) / H | ) ) ) ) ) ) ) ) ) / G ) ) ) ) ) ) ) ) ) ) ) ) ) ) ) | / ) ) ) ) ) ) ) ) ) ) ) ) ) ) ) ",
") ) ) ) ) ) ) ) ) ) ) ) ) ) ) ) | J C ) ) ) ) ) ) ) ) ) ) ) | ) ) ) ) ) ) ) ) ) ) ) ) ) ) ) ) ) | ) ) ) ) ) ) ) ) ) ) ) ) ) ) ) ",
") ) ) ) ) ) ) ) ) ) ) ) | ) ) ) ) ) ) ) ) ) ) ) ) ) ) ) ) ) ) ) ) ) ) ) ) ) ) ) ) ) ) | ) ) ) ) ) ) | ) ) ) ) ) ) ) ) ) ) ) ) ) ",
") ) ) ) ) ) ) ) ) ) ) ) ) ) ) ) | / | ) ) ) ) ) ) | / | ) ) ) ) ) ) ) | ) ) ) ) ) ) ) / ) ) ) ) | ) ) ) ) ) ) ) ) ) ) ) ) ) ) ) ",
") ) ) ) ) ) ) ) ) ) ) ) ) ) ) ) ) ) ) ) ) ) ) ) ) ) ) ) ) ) ) ) ) ) ) ) ) ) ) ) ) ) ) | ) ) ) ) ) ) ) ) ) ) ) ) ) ) ) ) ) ) ) ) ",
") ) ) ) ) ) ) ) ) ) ) ) ) ) ) ) ) ) ) ) ) ) ) ) ) ) ) ) ) ) ) ) ) ) ) ) ) ) ) ) ) ) ) ) ) ) ) ) H ) ) ) ) ) ) ) ) ) ) ) ) ) ) ) ",
") ) ) ) | ) ) ) ) ) ) ) ) ) ) ) ) ) ) ) ) ) ) ) ) ) ) ) ) ) ) ) ) ) ) ) ) ) ) ) ) ) ) ) ) ) | ) ) ) ) ) ) ) H J ) | ) ) ) ) ) ) ",
") ) ) ) ) ) ) ) ) ) ) ) ) ) ) ) ) ) ) ) ) ) ) ) ) ) ) ) ) ) | ) ) ) ) ) ) ) ) ) ) ) ) ) ) ) / | ) ) ) ) ) ) )  .) ) ) ) ) ) ) ) ",
") ) ) ) ) ) ) ) ) ) ) ) ) ) ) ) ) ) ) ) ) ) ) ) ) ) ) ) ) ) ) ) ) ) | ) ) ) ) ) ) | ) ) ) ) ) ) ) ) ) ) ) ) ) ) ) ) ) ) ) ) ) ) ",
") ) ) ) ) ) ) ) ) ) ) ) ) ) ) ) | ) ) ) ) ) ) ) ) ) ) ) ) ) ) ) ) ) ) ) ) ) ) ) | / ) ) ) ) ) ) ) ) ) ) ) ) ) ) ) ) ) ) ) ) ) ) ",
") ) ) ) ) ) ) ) ) ) ) ) ) ) | / ) ) ) ) ) ) ) ) ) ) ) ) ) ) ) ) ) ) ) ) ) ) ) ) ) ) ) ) ) ) ) ) ) ) ) ) ) ) ) ) ) ) ) / ) ) ) ) ",
") ) ) ) ) ) ) ) ) ) ) ) ) ) ) | ) ) ) ) ) ) ) ) ) ) ) ) ) ) ) | ) ) ) ) ) ) ) ) ) ) ) ) ) ) ) ) ) ) J ) ) ) ) ) ) ) ) J ~ / ) ) ",
") | ) ) ) ) ) ) ) ) ) ) ) ) ) ) ) ) ) ) | ) ) ) ) ) ) ) ) ) ) ) ) ) | J ) ) ) ) ) ) ) ) | / ) ) ) ) ) ) ) ) ) ) ) ) ) J ( / ) ) ",
"| / ) ) ) ) ) ) ) ) | ) ) ) ) ) ) ) ) ) / ) ) ) ) ) ) ) ) ) ) ) ) ) ) C / | ) ) ) ) ) ) ) | ) ) ) ) ) ) ) ) ) ) ) ) ) / ) ) ) ) ",
") ) ) ) ) ) ) ) ) ) ) ) ) ) ) ) ) ) ) ) | ) ) ) ) ) ) ) ) ) ) ) ) ) / V | ) ) ) ) ) ) ) ) ) ) ) ) ) ) ) ) ) ) ) ) ) ) ) ) ) ) ) ",
") ) ) ) ) ) ) ) ) ) ) ) ) ) ) ) ) ) ) ) ) ) ) ) ) ) ) ) ) ) ) ) ) ) ) V ) ) ) ) ) ) ) ) ) ) ) ) ) ) ) ) ) ) ) ) ) ) ) ) ) ) ) ) ",
") ) ) ) | ) ) ) ) ) ) ) ) ) ) ) ) ) ) ) ) ) ) ) ) ) ) ) ) ) ) X.@.) ) ) ) ) ) ) ) ) ) ) ) ) ) ) ) J O.) ) ) ) ) ) ) ) ) X.@.&.*.",
") ) ) ) / | ) ) | / ) ) ) ) ) ) ) ) ) ) ) ) ) ) ) ) ) ) ) ) ) ) ) ) ) ) ) ) ) ) ) ) ) ) ) ) ) ) ) J  .) ) ) ) ) Y / | | X.| ) ) ",
") ) ) ) ) ) ) ) ) | ) ) ) ) ) ) ) | ) ) ) ) ) ) ) ) ) ) ) ) ) | ) ) / | ) ) ) ) ) ) ) ) ) ) ) ) ) ) / ) ) ) ) ) [ J | | ) ) | / ",
") ) ) ) ) ) ) ) ) ) ) ) ) ) ) ) ) ) ) ) ) ) ) ) ) ) ) ) ) ) | / ) ) | ) ) ) ) ) ) ) ) ) ) ) ) ) ) ) ) ) ) ) ) ) / J / H ) ) ) | ",
") ) ) ) ) ) ) ) ) ) ) ) | / ) ) ) ) ) ) ) ) ) ) | / | ) ) ) ) ) ) ) ) ) ) ) ) ) ) ) ) ) ) ) ) ) ) ) ) ) ) ) ) ) ) ) ) ) ) ) ) ) ",
") ) ) ) ) ) ) ) ) ) ) ) ) | ) ) ) ) ) ) ) ) ) ) ) ) ) ) ) ) ) ) ) ) ) ) ) ) ) ) ) ) ) ) ) ) ) ) ) ) ) ) ) ) ) ) ) ) ) ) ) ) ) ) ",
") ) | ) ) ) ) ) ) ) ) ) ) ) ) ) ) ) ) ) ) ) ) ) ) ) ) ) ) ) ) ) J J Y | ) ) / | ) ) ) ) ) | ) ) ) ) ) ) ) ) ) ) ) ) | ) | / ) J ",
") ) / | ) ) ) ) ) ) ) ) ) ) ) ) ) ) ) ) ) ) ) ) ) ) ) ) ) ) ) ) H J / | ) ) | ) ) ) ) ) ) ) ) ) ) ) ) ) ) ) ) ) ) ) / | ) | | J ",
") ) ) ) ) ) ) ) ) ) ) ) ) ) ) ) ) | ) ) ) ) ) ) | ) ) ) ) ) ) ) | | | ) ) ) ) ) | ) ) ) ) ) ) ) / | ) ) ) ) ) ) ) ) ) ) | ) ) ) ",
") ) ) ) ) ) ) ) ) ) ) ) ) ) ) ) | / ) ) ) ) ) ) / | ) ) ) ) ) ) / | / | ) ) ) ) / | ) ) ) ) ) ) | ) ) ) ) ) ) ) ) ) ) ) / | ) ) ",
") ) ) ) ) ) ) ) | / ) | ) ) ) ) ) ) ) ) ) ) ) ) ) ) ) ) ) ) ) ) | | J | ) ) ) ) ) ) ) ) ) ) ) ) ) ) ) ) ) ) ) ) ) ) ) ) ) ) ) ) ",
"| ) ) ) ) ) ) ) | ) | / ) ) ) ) ) ) ) ) ) ) ) ) ) ) ) ) ) ) ) ) / | | / ) ) ) ) ) ) ) ) ) ) ) ) ) ) ) ) ) ) ) ) ) ) ) ) ) ) ) ) ",
") ) ) ) ) ) ) ) ) ) ) ) ) ) ) ) ) ) ) ) | / ) ) ) ) ) | ) ) ) ) ) ) | / | ) ) ) ) ) ) ) | / ) ) ) ) ) ) ) ) ) ) ) ) ) ) ) ) ) ) ",
") ) ) ) ) ) ) ) ) ) ) ) ) ) ) ) ) ) ) ) ) | ) ) ) ) ) ) ) ) ) ) ) ) ) | / | ) ) ) ) ) ) ) | ) ) ) ) ) ) ) ) ) ) ) ) ) ) ) ) ) ) ",
") ) ) ) ) ) ) ) ) ) ) ) ) ) ) ) ) ) ) ) ) ) ) ) ) ) ) ) ) ) ) ) ) ) ) ) ) ) ) ) ) ) ) ) ) ) ) ) ) ) ) ) ) ) ) ) ) ) ) ) ) ) ) ) ",
") ) ) ) ) ) ) ) ) ) ) ) ) ) ) ) ) ) ) ) ) ) ) ) ) ) ) ) ) ) ) G C V J ) ) ) ) ) ) ) ) ) ) ) ) ) ) ) ) ) ) ) ) ) ) ) ) ) | ) ) ) ",
") ) ) | / ) ) ) ) ) ) ) ) ) ) ) ) ) ) ) ) ) ) ) ) ) ) ) ) ) | / ) ) ) ) ) ) ) ) ) ) ) ) ) ) ) ) | ) ) ) | ) ) ) ) ) ) ) ) ) ) ) ",
"| ) ) / V ) ) ) ) ) ) ) ) ) ) ) ) ) ) ) ) ) ) ) ) ) ) ) ) ) ) ) ) ) ) ) ) ) ) ) ) ) ) ) ) ) ) ) ) ) ) ) ) ) ) ) ) ) ) ) ) ) ) ) ",
") ) ) J C | ) ) ) ) ) ) ) ) ) ) ) | ) ) ) ) ) ) ) ) ) ) ) ) ) ) ) ) ) ) ) ) ) ) ) ) ) ) ) ) ) ) ) ) ) ) ) ) ) ) ) ) ) ) ) ) ) ) ",
") ) ) / C ) ) ) ) ) ) ) ) ) ) ) | / ) ) ) ) ) ) ) ) ) ) ) ) ) ) ) ) ) ) ) ) ) ) ) ) ) ) ) ) ) ) ) ) ) ) ) ) ) ) ) ) ) ) ) ) J | ",
") ) ) J V ) ) ) ) ) ) ) ) ) ) ) ) ) ) ) ) ) ) ) ) | ) ) / | ) ) ) ) ) ) ) ) ) ) ) ) ) ) ) ) ) ) ) ) ) ) ) ) ) ) ) ) / [ ) ) H  .",
") ) ) J F ) ) ) ) ) ) ) ) ) ) ) ) ) ) ) ) ) ) ) ) ) ) ) | ) ) ) ) ) ) ) ) ) ) ) ) ) ) ) ) ) ) ) ) ) ) ) ) ) ) ) ) ) ) | ) ) H H ",
") ) ) ) ) ) ) ) | / ) ) ) ) | ) ) ) ) ) ) ) ) ) ) ) ) ) ) ) ) ) ) ) ) ) ) ) ) ) ) ) ) ) ) ) ) ) ) ) ) ) ) ) ) ) ) ) | / / | J J ",
") ) ) ) ) ) ) ) ) | ) ) ) ) ) ) ) ) ) ) ) ) ) ) ) ) ) ) ) ) ) ) ) ) ) ) ) ) ) ) ) ) ) ) ) ) ) ) ) ) ) ) ) ) ) ) ) ) / | | | J J ",
") ) | ) ) ) ) ) ) ) ) ) ) ) ) ) ) ) | ) ) ) ) ) | / | ) ) ) ) ) | ) ) ) ) ) ) ) ) ) ) ) ) ) ) ) ) ) ) ) ) ) ) | ) ) ) ) ) ) ) ) ",
") ) ) ) ) ) ) ) ) ) ) ) ) ) ) ) ) ) / | ) ) ) ) ) ) ) ) ) ) ) ) / | ) ) ) ) ) ) ) ) ) | ) ) ) ) ) ) ) ) ) ) ) / ) ) ) ) ) ) ) ) ",
") ) ) ) ) ) ) ) ) ) ) ) ) ) ) ) ) ) ) ) ) ) ) ) ) ) ) ) ) ) ) ) ) ) ) ) ) ) ) ) ) ) ) ) ) ) ) ) ) ) ) ) ) ) ) | ) ) ) ) ) ) ) | ",
") ) ) ) ) ) ) ) ) ) ) ) ) ) ) ) ) ) ) ) ) ) ) ) ) ) ) ) ) ) ) ) ) ) ) ) ) ) ) ) ) ) ) ) ) ) ) ) ) ) ) ) ) ) ) ) ) ) ) ) ) ) ) ) ",
") ) ) ) ) / | ) ) ) ) ) | v b | ) ) ) ) ) H J J J | / ) ) ) ) ) ) ) ) ) ) ) ) ) ) ) ) ) ) ) ) ) 9 6 Y ) ) ) ) ) ) ) ) ) ) ) ) ) ",
") ) ) ) / ~ ! ! ^ ) ) ) b * k | ) ) ) ) ) ) H 7 K | | ) ) ) ) ) ) ) ) ) ) ) ) 9 - L ) ) ) ) / 9 + c ) ) ) ) ) ) ) ) ) ) ) ) ) ) ",
") ) ) ) J h $ Q J [ X.P * % o.X.H ) ) ) F g : k I | ) ) ) ) ) ) ) ) ) ) ) ) l + c ) ) ) ) ) z + w *...) ) ) ) ) ) ) ) ) ) ) ) ) ",
") ) ) ) ) ) C ..&.X.X.b X 0 2.9.I ) ) | b @ 0 ,.&.X.) ) ) 9 > F | ) ) ) ) x @ 0 ,.&.) ) ) Y 8 + y 0.1.) ) ) ) ) ) ) ) ) ) ) ) ) ",
") ) ) ) ) ) J [ ) ) K 3 & u p V u J ) Y z o e 4.8.Y / | n X q ,.&.) ) ) ) 7 + y 0.7.Y ) ) x , w r p d d ) ) ) ) ) ) ) ) ) ) ) ) ",
") ) ) ) ) ) J H ) ) ) ) x @ 0 N X...) K 3 w u y p i J Y g + e 2.8.Y ) ) b 3 w d y p u / ) ) ) 5 .   = Y ) ) ) ) ) ) ) ) ) ) ) ) ",
") ) ) ) ) ) ) / ) ) ) ) 8 < G )  . .) ) ) z o & F ) ) L 4 w w e p i J ) ) ) 8 x w F ) ) ) ) ) 5 a t = Y ) ) ) ) ) ) ) ) ) ) ) ) ",
") ) ) ) ) ) ) ) ) ) ) b X t H ) [ X.) ) ) 9 o B ) ) ) ) | z o w J ) ) ) ) ) 8 W s F ) ) ) ) ) x 2 F w J ) ) ) ) ) ) ) ) ) ) ) ) ",
") ) ) ) ) ) ) ) ) | | b # k X.| G 1.&.X...z :  .X.) ) ) ) z O T ..) ) ) ) ) 6 ' f F ) ) ) ) ) ) - _ t J ) ) ) ) ) ) ) ) ) ) ) ) ",
") ) ) ) ) ) ) ) ) | J k # S O.m w k K I I g 2 ,.X.) ) ) ) z o 5.&.) ) ) ) ) 8 n w 3 Y ) ) ) ) ) - =.s Y ) ) ) ) ) ) ) ) ) ) ) ) ",
") ) ) ) ) ) ) ) ) ) ) v # } 8.) m @.) ) b * U [ | ) ) ) ) z : q.<.) ) ) ) ) 8 : B 1 L ) ) ) ) ) L 1.s J ) ) ) ) ) ) ) ) ) ) ) ) ",
") ) ) ) ) ) ) ) ) ) ) K = :.8.) [ *.) ) v X >.,./ | ) ) ) z 2 w.<.) ) ) ) ) Y 5 ] s J ) ) ) ) ) ) 7.V L ) ) ) ) ) ) ) ) ) ) ) ) ",
") ) ) ) ) ) ) ) ) ) ) b = ;.8.) [ ..| | v O >.1.) ) ) ) | z > 0.*.| ) ) ) ) ) 5 ` s J ) ) ) ) ) / <.m ; ) ) ) ) ) ) ) ) ) ) ) ) ",
") ) ) ) ) ) ) ) ) ) ) z , o.X.)  ...| / x X >.1.) ) ) ) | z o #.X.) ) ) ) ) ) 5 b t J ) ) ) ) ) | [ i 3 ) ) ) ) ) ) ) ) ) ) ) ) ",
") ) ) ) ) ) ) ) ) ) K # A ,.H | H ..) ) v X >.1.) ) ) ) | l O T X.) ) ) ) ) ) 5 S j H / ) ) ) ) / f Y w ) ) ) ) ) ) ) ) ) ) ) ) ",
") ) ) ) ) ) ) ) ) ) K # D r.| | ) ) ) ) v X %.*.) ) | / | z O I ..| ) ) ) ) ) 5 v j | | ) ) ) ) ) 5 $.a Y ) ) ) ) ) ) ) ) ) ) ) ",
") ) ) ) ) ) ) ) ) ) K # D r.| ) ) ) ) ) x X T &.) / | ) ) z O +.&.) ) ) ) ) ) 5 b j J / ) ) ) ) ) R 6.s ) ) ) ) ) ) ) ) ) ) ) ) ",
") ) ) ) ) ) ) ) ) ) K # M 3.) ) ) ) ) ) x O } &.) | ) ) G g O K ) ) ) ) ) ) ) 5 ` C | | ) ) ) ) ) E e.s ) ) ) ) ) ) ) ) ) ) ) ) ",
") ) ) ) ) ) ) ) ) ) K = { 9.) ) ) ) ) ) v * o.&.) ) ) ) ) z @ B ) ) ) ) ) ) ) 5 =.Z J ) ) ) ) ) ) ; -.V ) ) ) ) ) ) ) ) ) ) ) ) ",
") ) ) ) ) ) ) ) ) ) ) L @.1.) ) ) ) ) ) v > G | ) ) ) ) ) z O B ) ) ) ) ) ) ) 5 =.Z J ) ) ) ) ) ) ; P Y ) ) ) ) ) ) ) ) ) ) ) ) "
};
