/* XPM */
static char *result[] = {
/* columns rows colors chars-per-pixel */
"64 64 134 2 ",
"   c #5C3B54",
".  c #533F5E",
"X  c #593E59",
"o  c #6B3746",
"O  c #61374C",
"+  c #683748",
"@  c #6F3E49",
"#  c #743D45",
"$  c #623C52",
"%  c #3D785A",
"&  c #5C455B",
"*  c #5F485D",
"=  c #6C414D",
"-  c #774347",
";  c #784447",
":  c #73454C",
">  c #784649",
",  c #764A4E",
"<  c #7A4B4C",
"1  c #7D504F",
"2  c #644455",
"3  c #65465B",
"4  c #654B5C",
"5  c #6B4A5E",
"6  c #734B51",
"7  c #67515F",
"8  c #765355",
"9  c #7A5855",
"0  c #765758",
"q  c #755B5D",
"w  c #7A5B59",
"e  c #78615E",
"r  c #564462",
"t  c #564966",
"y  c #5D4D63",
"u  c #564E6C",
"i  c #5C4E68",
"p  c #5F5465",
"a  c #56526F",
"s  c #59536C",
"d  c #5C5B71",
"f  c #634E61",
"g  c #645464",
"h  c #645A67",
"j  c #6C5C64",
"k  c #65576B",
"l  c #625B6C",
"z  c #6B5C6C",
"x  c #735E61",
"c  c #70586B",
"v  c #635C71",
"b  c #625F79",
"n  c #5E6174",
"m  c #586E71",
"M  c #5F6578",
"N  c #65626D",
"B  c #6B656C",
"V  c #6E6B6E",
"C  c #756563",
"Z  c #786663",
"A  c #756C6A",
"S  c #75716E",
"D  c #646171",
"F  c #6C6372",
"G  c #656C76",
"H  c #696C72",
"J  c #65657C",
"K  c #68677F",
"L  c #656D7A",
"P  c #6B6C7C",
"I  c #7B6677",
"U  c #736D76",
"Y  c #736C7E",
"T  c #796D7A",
"R  c #6C7376",
"E  c #67727B",
"W  c #6B757B",
"Q  c #6D7C7D",
"!  c #747571",
"~  c #747A75",
"^  c #74747A",
"/  c #7A757D",
"(  c #737E7B",
")  c #845552",
"_  c #895A56",
"`  c #8A655F",
"'  c #8D6F68",
"]  c #8B736B",
"[  c #867773",
"{  c #817B74",
"}  c #957B71",
"|  c #3B835D",
" . c #4C8E5D",
".. c #4C8A62",
"X. c #50856B",
"o. c #6D837D",
"O. c #69887A",
"+. c #72847F",
"@. c #78807A",
"#. c #8E867C",
"$. c #6E6F82",
"%. c #736E80",
"&. c #6F7981",
"*. c #747C82",
"=. c #7D7D8D",
"-. c #748580",
";. c #7A8485",
":. c #778882",
">. c #7A8B84",
",. c #7A8189",
"<. c #7F8C88",
"1. c #848484",
"2. c #838D8C",
"3. c #8B8B88",
"4. c #84928A",
"5. c #88958D",
"6. c #8E9C91",
"7. c #939C94",
"8. c #999B96",
"9. c #96979B",
"0. c #AC8A81",
"q. c #95A196",
"w. c #9AA599",
"e. c #9EA99C",
"r. c #A9A39F",
"t. c #A3A7A2",
"y. c #AFA7A3",
"u. c #A6ABA3",
"i. c #A9AAA6",
"p. c #B4ABA6",
"a. c #AAB1A4",
"s. c #B9B6AD",
"d. c #B5B8AC",
"f. c #BBBCB0",
/* pixels */
"+.+.+.+.+.+.+.+.+.+.o.-.+.+.+.+.+.+.o.W -.+.+.-.o.+.+.+.+.+.o.E +.+.+.+.+.+.+.+.+.+.+.o.-.+.+.+.+.o.-.+.+.-.+.+.+.+.+.+.+.+.+.+.",
"+.+.+.+.+.+.+.+.+.+.-.+.+.+.+.+.-.o.L +.+.+.+.+.-.+.+.+.+.+.-.+.-.+.+.+.+.+.+.+.+.+.+.-.+.+.+.+.+.-.+.+.+.+.+.+.+.+.+.+.+.+.+.+.",
"+.+.+.+.+.+.+.+.+.+.+.+.+.+.+.+.o.-.+.+.+.+.+.+.+.+.+.+.+.+.+.+.+.+.+.+.+.+.+.+.+.+.+.+.+.+.+.+.+.+.:.+.+.+.+.+.+.+.+.+.+.+.-.o.",
"+.+.+.+.+.+.+.-.+.+.+.+.+.+.+.+.-.+.+.+.+.+.+.+.+.+.+.+.+.+.+.+.+.+.+.+.+.+.+.+.+.+.+.+.+.+.+.+.+.+.+.+.+.+.+.+.+.+.+.+.+.+.+.-.",
"+.+.+.+.+.+.+.+.+.-.+.+.+.o.-.+.+.+.+.+.+.+.+.+.+.+.+.+.+.+.+.+.+.+.+.+.-.+.+.+.o.-.+.+.+.+.-.o.+.+.+.+.+.+.+.+.+.+.+.+.+.+.+.+.",
"-.+.+.+.+.+.+.+.+.o.-.+.+.-.+.+.+.+.+.+.+.+.+.+.+.+.+.+.+.+.+.+.+.+.+.+.+.+.+.+.-.+.+.+.+.+.+.-.Q +.+.+.+.+.+.-.+.+.+.+.+.+.+.+.",
"+.+.+.+.+.+.+.+.+.+.+.+.+.+.+.+.+.+.-.o.+.+.+.+.-.+.+.+.+.+.-.+.+.-.+.+.+.+.+.+.+.+.+.+.+.+.+.+.o.+.+.+.+.+.W Q +.+.+.+.o.-.+.+.",
"+.+.+.+.+.+.+.+.+.+.+.+.+.+.+.+.+.+.+.-.+.+.+.+.o.-.+.+.+.+.+.+.-.o.+.+.+.+.+.+.+.+.+.+.+.+.+.+.+.-.+.+.+.+.+.:.+.+.+.+.-.+.+.+.",
"+.-.+.+.+.+.+.-.+.+.-.+.+.+.+.+.+.+.+.+.+.+.+.+.+.+.+.+.+.+.+.+.+.+.+.+.+.+.+.+.+.+.+.+.+.+.+.+.+.+.+.+.+.+.+.+.+.+.+.+.+.+.+.+.",
"+.o.-.+.+.+.+.o.+.+.o.-.+.+.+.+.+.+.+.+.-.+.+.+.+.+.+.+.+.+.+.+.+.+.+.+.+.+.+.+.+.+.+.+.+.+.+.+.+.+.+.+.+.+.+.+.o.-.+.+.+.+.+.+.",
"+.+.+.+.+.+.+.-.+.+.+.+.+.+.+.+.+.+.+.+.+.+.+.+.+.+.+.+.+.+.+.+.+.+.+.+.+.+.+.+.+.+.+.+.+.+.+.-.+.+.+.+.+.+.+.+.-.+.+.o.+.+.+.+.",
"+.+.+.+.+.+.+.+.+.+.+.+.+.+.+.+.+.+.+.-.+.+.+.+.+.+.-.o.-.+.+.+.+.+.+.+.-.+.+.+.+.+.+.+.+.+.+.o.+.+.o.+.+.+.+.+.+.+.+.W ..o.+.+.",
"+.+.+.+.+.+.+.+.+.+.+.+.+.+.+.+.+.+.+.o.o.-.+.+.+.+.-.o.+.+.+.+.+.+.o.&.+.+.+.+.+.+.+.+.+.+.+.-.+.+.+.+.+.+.+.+.+.+.+.W O.O.+.+.",
"+.+.+.+.+.+.+.+.+.+.+.+.-.+.+.+.+.+.+.-.-.+.+.+.+.+.+.-.+.+.+.+.o.-.&.L +.+.+.+.+.-.+.+.+.+.+.+.+.+.+.+.+.+.+.+.+.+.+.+.+.+.-.+.",
"-.o.+.+.+.+.+.+.+.+.+.+.+.+.+.+.+.+.+.+.+.+.+.+.+.+.+.+.+.+.-.+.-.+.o.L +.+.+.+.+.+.+.+.+.+.+.+.+.+.+.+.+.+.+.+.+.+.+.+.+.+.+.+.",
"+.-.+.+.+.+.+.-.o.-.+.+.+.+.+.+.+.+.+.+.+.+.+.+.+.+.+.+.+.+.+.+.+.+.( L +.+.+.+.+.+.+.+.+.+.+.+.+.+.+.+.+.+.+.+.+.+.+.+.+.+.+.+.",
"+.+.+.+.+.-.+.+.+.+.+.+.+.+.+.+.+.+.+.+.+.+.+.+.+.+.+.+.+.-.+.>.4.+.-.o.+.+.+.+.+.+.-.+.+.+.+.+.+.Q 2.+.+.+.+.+.+.+.+.+.>.<.4.4.",
"+.+.+.+.-.o.+.+.+.+.+.+.+.+.+.+.+.+.-.o.+.+.+.+.+.+.+.+.+.+.+.+.+.+.+.+.+.+.+.+.+.-.o.+.+.+.+.+.+.Q ;.+.+.+.+.+.+.Q -.o.2.+.+.+.",
"+.+.+.+.+.+.+.+.+.+.+.+.+.o.-.+.+.+.+.-.+.+.+.+.+.+.+.+.+.+.+.+.+.+.+.+.+.+.-.+.+.+.+.+.+.+.o.-.+.+.o.+.+.+.+.+.Q Q -.-.+.+.+.+.",
"+.+.+.+.+.+.+.+.+.+.+.+.+.-.+.+.+.+.+.+.+.+.+.+.+.+.+.+.+.+.+.+.+.+.+.+.+.+.o.-.+.+.+.+.+.+.-.+.+.+.+.+.+.+.+.+.o.Q -.Q +.+.+.+.",
"+.+.+.+.+.+.+.+.+.+.+.+.+.+.+.+.+.+.-.o.-.+.+.+.+.+.+.+.+.+.+.+.+.+.-.+.+.+.+.+.+.+.+.+.+.+.+.+.+.+.+.+.+.+.+.+.+.+.+.+.+.+.+.+.",
"-.+.+.+.+.+.o.-.-.+.+.+.+.+.+.+.+.+.+.-.o.-.+.+.+.+.+.+.+.+.+.+.+.+.+.+.+.+.+.+.+.+.+.+.+.+.+.+.+.+.+.+.+.+.+.+.+.+.+.-.+.+.+.+.",
"+.+.+.+.+.+.-.+.+.+.+.+.+.+.+.+.+.+.+.+.+.+.+.+.+.+.+.+.+.+.+.+.Q Q o.+.+.+.+.+.+.-.+.+.+.+.+.+.+.+.+.+.+.+.+.+.+.+.+.+.+.+.-.Q ",
"+.+.+.+.+.+.+.+.+.+.+.+.+.+.+.+.+.+.+.+.+.+.+.+.+.+.-.+.+.+.+.+.Q Q o.+.+.+.+.+.+.o.-.+.+.+.+.+.+.+.+.+.+.+.+.+.+.+.+.+.+.+.-.Q ",
"+.+.+.+.+.+.+.+.+.o.-.+.+.+.-.+.+.+.+.+.+.+.+.+.+.+.+.+.+.+.+.+.-.-.+.+.+.+.+.+.+.+.+.+.+.+.+.+.+.+.o.-.+.+.+.+.+.+.+.+.+.o.-.+.",
"+.+.+.+.+.+.+.+.+.-.+.+.+.+.+.+.+.+.+.+.+.+.+.+.+.+.+.+.+.+.+.+.-.Q +.-.+.+.+.+.+.+.+.+.+.+.+.+.+.+.-.+.+.+.+.+.+.+.+.+.+.-.+.+.",
"+.+.+.+.+.+.+.+.-.o.+.+.+.+.+.+.+.+.+.-.+.+.+.+.+.+.+.+.+.+.+.+.+.+.+.+.+.+.+.+.+.+.+.+.-.+.+.+.+.+.+.+.+.+.-.+.+.+.+.+.+.+.+.+.",
"+.+.+.+.+.+.+.+.-.+.+.+.+.+.+.+.+.+.-.o.+.+.+.+.+.+.+.+.+.+.+.+.+.+.+.+.+.+.+.+.+.+.+.+.+.+.+.+.+.+.+.+.+.+.o.-.+.+.+.+.+.+.+.+.",
"+.+.+.+.+.+.o.-.+.+.+.+.+.+.+.+.+.+.+.+.+.+.+.+.+.+.+.+.+.+.+.+.+.+.+.+.+.+.+.+.+.+.+.+.+.+.+.+.+.+.+.+.+.+.+.+.+.+.+.+.+.+.+.+.",
"+.+.+.+.+.+.-.+.+.+.+.+.+.+.+.o.+.+.+.+.+.+.+.+.+.+.+.+.+.+.+.+.+.+.+.+.+.+.+.+.+.+.+.+.+.+.+.o.+.+.+.+.+.+.+.+.-.+.+.+.+.+.o.-.",
"+.+.-.+.+.+.+.+.+.+.+.+.+.+.+.( w +.+.+.+.+.+.+.+.+.+.+.+.+.+.+.+.+.+.+.+.+.+.-.+.-.+.+.+.+.S 1 A +.+.+.+.+.+.+.o.-.+.+.+.+.-.+.",
"+.+.o.-.+.+.+.+.+.+.+.+.+.+.+.8 2 +.+.+.+.+.+.( ! q +.+.+.+.+.E L L Q +.+.+.S , e +.+.+.+.! : 7 ( +.+.-.+.+.+.+.+.+.+.+.+.+.+.+.",
"+.+.+.-.Q +.+.+.+.+.+.+.+.+.8 $ v q.:.+.+.+.~ 6 g @.+.+.-.-.~ Q +.+.+.+.+.S : g @.-.-.+.~ : X &.6.-.+.+.+.+.+.+.+.+.+.+.+.+.+.+.",
"+.+.+.Q L -.+.+.+.+.+.+.+.( <   b i.4.W +.+.<   J e.:.+.-.! : f :.+.+.+.+.> X P w.-.+.+.A @ r =.t.*.+.+.+.+.+.+.+.+.+.+.+.+.+.+.",
"-.o.+.Q L +.+.+.+.+.+.+.+.C 4 i u a n N +.! : & K u.;.Q o.,   J r.>.-.+.A : r $.t.-.~ +.0 y p u i y R +.+.+.+.+.+.+.+.+.+.+.+.+.",
"+.-.-.Q L +.+.+.+.+.+.+.+.+.-.< & l +.+.+.C g 4 t s D H A = r J 9.( W o.C g g n a N W +.+.! # . o A +.+.+.+.+.+.+.+.+.+.+.+.Q -.",
"+.+.+.o.G +.+.+.+.+.+.+.+.+.C = d o.+.+.+.+.+.; X H +.+.A B 3 & s G R +.+.~ < R p +.+.+.+.S : d 4 V +.+.+.+.+.+.+.+.Q -.+.+.W ;.",
"+.+.+.Q R +.+.+.+.+.+.+.+.+.<   G +.+.+.+.+.( ; & +.+.+.+.+.; & R +.-.+.+.~ ) 1.p +.+.+.+.+.C q h H +.+.+.+.+.+.+.+.-.+.+.+.Q Q ",
"+.+.+.+.+.+.+.+.+.+.+.+.+.+.1 $ 5.-.+.+.+.+.@.> v 6.+.+.+.@.; f 7.+.+.+.+.~ ) 3.p +.+.+.+.+.S ` U H o.+.+.+.+.+.+.+.-.+.-.-.W W ",
"-.+.+.+.+.+.+.+.+.+.+.+.-.-.1 $ 8.:.+.+.+.+.~ , P 6.+.+.+.( > c d.+.+.+.+.~ < H 2 C +.+.+.+.S ' T H +.+.+.+.+.+.+.+.o.-.o.-.Q Q ",
"+.+.+.+.+.+.+.+.+.+.+.+.+.+.1 3 p.>.+.+.+.+.1 4 8.L +.+.+.+.> Y f.+.+.+.+.@., 7 V N +.+.+.-.+.4./ H +.+.o.-.+.+.+.+.+.+.+.+.+.+.",
"+.+.+.+.+.+.+.+.+.+.+.+.+.-.1 l s.>.+.+.+.+.> 5 s.-.+.+.+.( < %.f.+.+.+.+.+.! _ 1.l +.+.+.+.+.4.,.B ( +.-.+.+.+.+.+.+.+.+.+.+.+.",
"+.+.+.+.+.+.+.+.+.+.+.+.+.+.1 l u.:.+.+.+.+.> 5 s.+.+.+.+.@.> F a.+.+.+.+.+.S ) ^ N +.+.+.+.+.>.&.: S +.+.+.+.+.+.o.-.+.+.+.+.+.",
"+.+.+.+.+.-.+.+.+.+.+.+.+.A = / ,.+.+.+.+.+.< 5 s.+.+.+.+.( ; f q.+.+.+.+.+.! 1 G G +.+.+.+.+.Q L 4 R +.+.+.+.+.+.-.+.+.+.-.o.-.",
"+.+.+.+.+.o.-.+.+.+.+.+.-.9 O t.:.+.+.+.+.( > f s.+.+.+.+.@.; * >.+.+.+.+.+.! 1 E G +.+.+.+.+.A [ k R +.+.+.+.+.+.+.+.+.+.+.+.+.",
"+.+.+.+.o... . .X.o.+.+.-.9 O p.2.-.+.+.+.+.< 5 w.+.+.+.+.+.; 5 6.+.+.+.+.+.S < E E +.+.+.+.+.Z } z R +.+.+.+.+.+.+.+.+.+.+.+.+.",
"+.+.+.+.W m % | Q *.>.:.-.w O y.*.-.+.+.E G ; 3 7.-.+.+.+.+.; f 6.+.+.+.+.+.~ ) W E +.+.+.+.+.C 0.I R +.-.+.+.+.+.+.+.+.+.+.+.+.",
"+.+.+.+.+.+.L :.4.<.<.:.-.w $ 8.*.-.+.+.-.-.> 4 q.>.+.+.+.( ; & +.+.+.+.+.+.! _ 2.L +.+.+.+.+.C 0.I R +.o.-.+.+.+.+.-.o.-.+.+.+.",
"+.+.+.+.+.+.o.*.o.+.+.+.+.w f i.<.-.+.+.+.+.< v 5.+.+.+.+.( ; & o.-.+.+.+.+.! _ 2.E +.+.+.+.-.C ] $.Q o.+.+.+.+.-.+.+.+.+.+.+.+.",
"+.+.+.+.+.+.Q Q +.+.-.+.+.w f 6.4.-.+.+.+.+.< l 4.+.+.+.O.@.; & +.+.+.+.+.-.! _ 2.L +.+.+.+.+.S { L B ( +.+.+.+.+.+.+.+.+.+.+.+.",
"+.+.+.+.-.+.+.o.+.+.+.+.-.w f >.<.:.+.+.-.+.< v q.-.+.+.+.+.; & +.+.+.+.+.+.! _ 2.E +.+.+.+.+.+.7.&.- ~ +.+.+.+.+.+.+.+.o.-.+.+.",
"+.+.+.+.+.+.+.+.+.+.+.+.A = D M *.>.+.-.+.+.< d :.+.+.+.o.@.; & +.+.+.+.+.+.! 1 *.L +.+.+.+.+.+.&.E 4 R +.+.+.+.+.+.+.+.-.+.+.+.",
"+.+.+.+.+.+.+.+.+.+.+.+.Z + H &.L 6.5.>.:.@.< H L -.+.+.-.+.- X L +.+.+.+.+.S , L x A -.-.o.-.+.x A y ~ -.o.+.+.+.+.+.+.+.+.+.+.",
"+.+.+.+.+.+.+.+.+.+.o.W x + 1.^ i B ! ^ &.8 $ R Q o.+.+.+.( - & W +.+.+.+.+.Q x q h H -.+.+.+.+.Z #.g W o.-.-.o.+.+.+.-.+.+.+.+.",
"+.+.-.+.+.+.+.+.+.+.+.+.C + 3.>.D 4.+.+.+.1 $ ( -.o.-.+.+.+.- & M +.+.+.+.+.+.S 9 p H -.+.+.+.+.+.+.y R -.+.+.-.+.+.-.o.+.+.+.+.",
"+.+.+.+.+.+.+.+.+.+.+.+.S j ;.>.*.5.+.+.-.Z h 2.-.-.+.+.+.( q l E +.+.+.+.+.+.~ A G W o.+.+.+.+.+.+.N ( +.+.+.+.+.+.+.+.+.+.+.+.",
"+.+.+.+.+.+.+.+.+.+.+.+.+.+.+.+.*.>.-.-.o.-.+.+.-.o.+.+.+.+.+.-.+.+.+.+.+.+.+.+.+.+.+.+.+.+.+.+.+.+.+.+.-.+.+.+.+.+.+.+.+.+.+.+.",
"+.+.+.+.+.+.+.+.+.+.+.+.+.+.+.+.*.-.-.-.-.o.+.+.+.-.+.+.+.+.+.o.+.+.+.+.+.+.+.+.+.+.+.+.+.+.+.+.+.+.+.+.+.+.+.+.+.+.+.+.+.+.+.+.",
"+.+.+.+.+.+.+.+.+.+.+.+.+.+.+.+.Q -.+.+.-.+.W +.+.+.+.+.+.+.+.-.+.+.+.+.+.+.+.+.+.+.o.-.+.o.-.+.+.+.+.+.+.+.+.+.+.o.-.+.+.-.+.+.",
"+.+.+.-.o.-.+.+.+.+.+.+.+.+.+.+.+.+.+.+.o.-.E +.+.+.+.+.+.+.-.o.+.+.+.+.+.+.+.+.+.+.-.+.+.-.+.+.+.+.+.+.+.+.+.+.+.-.+.+.+.o.-.+.",
"+.-.o.-.+.+.+.+.+.+.+.+.+.+.-.+.+.+.+.+.-.o.+.o.+.+.+.+.+.+.+.-.+.-.+.+.+.+.+.+.+.+.+.+.+.+.+.+.+.+.+.+.+.+.+.+.+.+.+.+.+.+.+.+.",
"+.+.+.+.+.+.+.+.+.+.+.+.+.+.+.+.+.+.-.+.+.-.+.+.+.+.+.+.W L L W +.o.-.+.+.+.+.+.+.+.+.+.+.+.+.+.+.+.-.+.+.+.+.+.+.+.+.+.+.+.+.+.",
"+.+.+.+.+.+.+.-.+.+.+.+.+.+.+.+.+.+.+.+.+.+.+.+.+.-.+.+.+.+.+.+.+.+.+.+.+.+.+.+.+.+.+.+.-.o.+.+.+.+.o.-.o.-.+.+.+.+.-.+.+.+.+.+.",
"+.+.+.+.+.+.+.+.+.+.+.+.+.+.+.+.+.+.+.+.+.+.+.+.+.+.+.+.+.+.+.+.+.+.+.+.+.+.+.+.+.+.+.+.+.-.+.+.+.+.+.+.-.+.+.+.+.+.o.-.+.+.+.+."
};
