/* XPM */
static char *result[] = {
/* columns rows colors chars-per-pixel */
"64 64 140 2 ",
"   c #5E3C54",
".  c #583C59",
"X  c #693747",
"o  c #6F3944",
"O  c #63374C",
"+  c #653C4F",
"@  c #693E4E",
"#  c #743A42",
"$  c #3D785A",
"%  c #56415E",
"&  c #5D425A",
"*  c #6E424E",
"=  c #774247",
"-  c #74444B",
";  c #794649",
":  c #744B4F",
">  c #7A4C4C",
",  c #7E504E",
"<  c #6A4656",
"1  c #6D4954",
"2  c #67465B",
"3  c #69475D",
"4  c #664A5A",
"5  c #6B495A",
"6  c #754D51",
"7  c #784F51",
"8  c #65515F",
"9  c #6E525A",
"0  c #745255",
"q  c #7B5352",
"w  c #755D5C",
"e  c #795C5A",
"r  c #544363",
"t  c #594662",
"y  c #574966",
"u  c #5C4D64",
"i  c #5E5265",
"p  c #56526F",
"a  c #5B566C",
"s  c #5F5E6F",
"d  c #575674",
"f  c #595370",
"g  c #5F5C70",
"h  c #634E61",
"j  c #6A4F63",
"k  c #615365",
"l  c #685367",
"z  c #665966",
"x  c #635568",
"c  c #635B6A",
"v  c #6A5F69",
"b  c #735E61",
"n  c #625D71",
"m  c #586E71",
"M  c #5F6578",
"N  c #67656E",
"B  c #6C666B",
"V  c #6D696E",
"C  c #746263",
"Z  c #776865",
"A  c #71626A",
"S  c #746C6C",
"D  c #75716E",
"F  c #78716E",
"G  c #656372",
"H  c #696671",
"J  c #666A72",
"K  c #6A6D75",
"L  c #64657C",
"P  c #656C7A",
"I  c #6D6D7B",
"U  c #716272",
"Y  c #736F76",
"T  c #726D7D",
"R  c #7B6A78",
"E  c #6B7176",
"W  c #6A747B",
"Q  c #6E7C7D",
"!  c #737472",
"~  c #7A7672",
"^  c #737A75",
"/  c #7B7C77",
"(  c #72747C",
")  c #727E7A",
"_  c #7D7D7B",
"`  c #835552",
"'  c #835B59",
"]  c #8E5E58",
"[  c #915F5B",
"{  c #986460",
"}  c #806D7C",
"|  c #84707E",
" . c #807F7C",
".. c #3B835D",
"X. c #4C8E5D",
"o. c #4C8A62",
"O. c #50856B",
"+. c #6D837D",
"@. c #69887A",
"#. c #72847F",
"$. c #8E867D",
"%. c #6A6C81",
"&. c #6F7183",
"*. c #747D82",
"=. c #797F82",
"-. c #767989",
";. c #758581",
":. c #798484",
">. c #7B8B84",
",. c #7D858B",
"<. c #848384",
"1. c #8D8D82",
"2. c #818D89",
"3. c #8E8C8A",
"4. c #948E84",
"5. c #908D8D",
"6. c #83928A",
"7. c #88978D",
"8. c #959389",
"9. c #8B8D95",
"0. c #8C9590",
"q. c #8E9B91",
"w. c #969595",
"e. c #919993",
"r. c #989B9B",
"t. c #A49F93",
"y. c #A89A9B",
"u. c #9BA59A",
"i. c #9FAB9D",
"p. c #A0A29F",
"a. c #AAA299",
"s. c #A3AB9F",
"d. c #AAA1A1",
"f. c #A4ABA1",
"g. c #A8ADA4",
"h. c #ABA8A9",
"j. c #B9ACA3",
"k. c #A8B1A3",
"l. c #B4B2A9",
"z. c #BBBBAF",
/* pixels */
"#.#.#.#.#.#.#.#.#.#.#.#.#.#.#.#.#.#.#.W ;.#.#.#.#.#.#.;.#.#.#.W #.#.#.#.#.#.#.#.#.#.#.#.#.;.#.#.#.#.#.#.#.#.#.#.#.#.#.#.#.#.#.#.",
"#.#.#.#.#.#.#.#.#.#.#.#.#.#.#.#.;.+.P Q #.#.#.#.#.#.;.+.#.#.#.#.#.#.;.+.#.#.#.#.#.#.#.#.;.+.#.#.#.#.#.#.#.#.#.#.#.#.#.#.#.#.#.#.",
"#.#.#.#.#.#.#.#.#.#.#.#.#.#.#.;.;.#.#.#.#.#.#.#.#.#.#.#.#.#.#.#.#.#.#.;.#.#.#.#.#.#.#.#.#.#.#.#.#.#.;.;.#.#.#.#.#.#.#.#.#.#.#.#.",
"#.#.#.#.#.#.#.#.#.#.#.#.#.#.#.#.+.;.#.#.#.#.#.#.#.#.#.#.#.#.#.#.#.#.#.#.#.#.#.#.#.#.#.#.#.#.#.#.#.#.;.+.#.#.#.#.#.#.#.#.#.#.#.#.",
"#.#.#.#.#.;.#.#.#.#.#.#.#.#.#.#.#.#.#.#.#.#.#.#.#.#.#.#.#.#.#.#.#.#.#.#.#.#.#.#.#.#.#.#.#.#.;.;.#.#.#.#.#.#.#.#.;.+.#.#.#.#.#.#.",
"#.#.#.#.#.#.#.#.#.#.#.#.#.#.#.#.#.#.#.#.#.#.#.;.#.#.#.#.#.#.#.#.#.#.#.#.#.#.#.#.#.#.#.#.#.#.#.+.W #.#.#.#.#.#.;.#.;.#.#.#.#.#.#.",
"#.#.#.#.#.#.#.#.#.#.#.#.#.#.#.#.#.#.#.#.#.#.;.+.#.#.#.#.#.;.+.#.#.#.#.#.+.;.#.#.#.#.#.#.#.#.#.#.#.#.#.#.#.+.W Q #.#.#.#.#.#.#.#.",
"#.#.#.#.#.#.#.#.#.#.#.#.#.#.#.#.#.#.#.#.#.#.#.#.#.#.#.#.#.#.;.#.#.#.#.#.;.#.#.#.#.#.#.#.#.#.#.#.;.#.#.#.#.#.;.:.#.#.#.#.#.#.#.#.",
"#.#.#.#.#.#.;.#.#.#.#.#.#.;.#.#.#.#.#.#.#.#.#.#.#.#.#.#.#.#.#.#.#.#.#.#.#.#.#.#.#.#.#.#.#.#.#.#.#.#.#.#.#.#.#.#.#.#.#.#.#.#.#.#.",
"#.#.#.#.#.;.+.#.#.#.#.#.;.+.#.#.#.#.#.#.#.#.#.#.#.#.#.#.#.#.#.#.#.#.#.#.#.#.#.#.#.#.#.#.#.#.#.#.#.#.#.#.#.#.#.#.#.#.#.#.#.#.#.#.",
"#.#.#.#.#.#.#.#.#.#.#.#.#.#.#.#.#.#.#.;.#.#.#.#.#.#.#.#.#.#.#.#.#.#.#.#.#.#.#.#.#.#.#.#.#.#.#.#.#.#.#.#.#.#.#.#.#.#.#.+.#.#.#.#.",
"#.#.#.#.#.#.#.#.#.#.#.#.#.#.#.#.#.#.#.+.#.#.#.#.#.#.#.#.#.#.#.#.#.#.#.#.#.#.#.#.#.;.+.;.#.#.#.#.#.#.+.#.#.#.#.#.#.#.#.W o.#.#.#.",
"#.#.#.#.#.#.#.#.#.#.#.;.#.#.#.#.#.#.#.;.#.#.#.#.#.#.#.#.#.#.#.#.;.+.*.Q +.;.;.#.#.#.#.#.#.#.;.#.#.#.#.#.#.#.#.#.#.#.#.W @.@.#.#.",
"#.#.#.#.#.#.#.#.#.#.#.+.#.#.#.#.#.#.#.#.#.#.#.#.#.#.#.#.#.#.#.#.#.;.;.P +.;.+.;.#.#.#.#.#.#.+.;.#.#.#.#.#.#.#.#.#.#.#.#.#.#.#.#.",
"#.#.;.+.#.#.#.#.#.#.#.;.#.#.#.#.#.#.#.#.#.#.#.#.+.;.#.#.#.#.#.#.#.#.+.P ;.;.+.;.#.#.#.#.#.#.#.#.#.#.#.#.#.#.#.#.#.#.#.#.#.#.#.#.",
"#.#.#.;.#.#.#.#.#.#.#.#.#.#.#.#.#.#.#.#.#.#.#.#.;.#.#.#.;.#.#.#.#.#.) P +.;.;.+.#.#.#.#.#.#.#.#.#.#.#.#.#.#.#.#.#.#.#.#.#.#.#.#.",
"#.#.#.#.#.#.#.#.;.+.;.#.#.#.#.#.#.#.;.#.#.#.#.#.#.#.#.#.#.#.#.>.6.#.;.Q #.;.#.#.#.#.#.#.#.#.#.#.#.Q 2.#.;.#.#.#.#.#.+.;.>.2.6.7.",
"#.#.#.#.#.#.#.#.#.#.#.#.#.#.#.#.#.#.+.;.#.#.#.#.#.#.#.#.#.#.#.#.#.#.#.#.#.+.;.#.#.#.#.#.#.#.#.;.#.Q :.#.+.;.#.#.+.Q ;.+.>.;.;.;.",
"#.#.#.#.#.;.#.#.#.#.#.#.#.#.#.#.#.#.#.#.#.#.#.#.#.#.#.#.#.#.#.;.#.#.#.#.#.#.#.#.#.#.#.#.#.#.;.+.;.+.) ;.#.#.#.#.Q W ;.;.#.#.+.;.",
"#.#.#.#.#.+.;.#.#.#.#.#.#.#.#.#.#.#.#.#.#.#.#.#.#.#.#.#.#.#.;.+.#.#.#.#.#.#.#.#.#.#.#.#.#.#.#.#.;.;.+.;.#.#.#.#.;.Q ;.Q #.#.#.#.",
"#.#.#.#.#.#.#.#.#.#.#.#.#.;.#.#.#.#.#.#.#.#.#.#.#.#.#.#.#.#.#.#.#.#.#.#.#.#.#.#.#.#.#.;.#.#.#.#.+.;.#.#.#.#.#.#.#.#.#.#.;.#.#.#.",
"#.#.#.#.#.#.#.#.#.#.#.#.#.+.;.#.#.#.#.#.#.#.#.#.#.;.#.#.#.#.#.#.#.#.#.#.#.#.#.#.#.#.;.+.#.#.#.#.;.+.#.#.#.#.#.#.#.#.#.#.+.;.#.#.",
"#.;.#.#.#.#.#.#.#.#.#.#.#.#.#.#.#.#.#.#.#.#.#.#.;.+.#.#.#.#.#.#.Q &.+.;.#.#.#.#.#.#.#.#.#.#.#.#.#.Q ;.#.#.#.#.#.#.#.#.#.;.+.#.Q ",
";.+.#.#.#.#.#.#.#.#.#.#.#.#.#.#.#.#.;.+.;.#.#.#.#.#.#.#.#.#.;.+.Q Q ) #.#.#.#.#.#.#.#.#.#.#.#.#.#.;.#.#.#.#.#.#.#.#.#.#.#.;.;.Q ",
"#.#.#.#.#.#.#.#.#.+.;.#.#.#.#.#.#.#.#.#.#.#.#.#.#.#.#.#.#.#.#.#.+.;.#.#.#.#.#.#.#.#.#.#.;.+.#.#.#.#.#.#.#.#.#.#.#.#.#.#.#.#.#.#.",
"#.#.#.#.#.#.#.#.#.;.#.#.#.#.#.#.#.#.#.#.#.#.#.#.#.#.#.#.#.#.#.#.#.#.#.#.#.#.+.;.#.#.#.#.#.;.#.#.;.#.#.#.#.#.#.#.;.#.#.#.#.#.#.#.",
"#.#.#.#.#.#.#.#.#.#.#.#.#.#.#.#.#.#.#.#.;.#.#.#.#.#.#.#.#.#.#.#.#.#.#.#.#.#.;.#.#.#.#.#.#.#.#.#.+.;.#.#.#.#.#.#.+.#.#.#.#.#.#.#.",
"#.#.#.#.#.#.#.#.#.#.#.#.#.#.#.#.#.#.#.#.+.;.#.#.#.#.#.#.#.;.#.#.#.#.#.#.#.#.#.#.#.#.#.#.#.#.#.#.#.#.#.#.#.#.#.#.;.#.#.#.#.#.#.#.",
"#.#.#.#.;.+.#.#.#.#.#.#.#.#.#.#.#.;.#.#.#.#.#.#.#.#.#.#.#.#.#.#.#.#.#.#.#.#.#.#.#.#.#.#.#.#.#.#.#.#.#.#.;.#.#.#.#.#.#.#.#.#.#.#.",
"#.#.#.#.#.;.#.#.#.#.#.#.#.#.#.#.;.+.#.#.#.#.#.#.#.#.#.#.#.#.#.#.#.#.#.;.#.#.#.#.#.#.#.#.#.#.#.#.#.#.#.#.+.;.#.#.#.#.#.#.#.#.+.;.",
"#.#.#.#.#.#.#.#.#.#.#.#.#.;.#.#.#.#.#.#.#.#.#.#.#.#.#.#.#.#.#.#.#.#.;.+.#.#.#.#.#.#.#.#.#.;.#.#.#.#.#.#.#.#.#.#.#.#.#.#.#.#.;.#.",
"#.#.#.#.#.#.#.#.#.#.#.#.;.+.#.#.#.#.#.#.#.#.#.#.#.;.#.#.#.#.#.P P P Q #.#.#.#.#.#.#.#.#.;.+.#.#.#.#.#.#.#.#.#.#.#.#.#.#.#.#.#.#.",
";.+.;.;.Q #.#.#.#.#.#.#.#.#.#.#.#.#.#.#.#.#.+.;.#.#.#.#.#.#.;.Q #.+.#.#.#.#.;.#.#.#.#.#.#.#.#.#.#.#.#.#.#.#.#.#.#.#.+.;.#.#.#.#.",
";.;.+.) P #.#.#.#.#.#.#.#.#.#.#.#.#.#.#.#.#.;.#.#.#.#.#.#.#.#.#.#.#.#.#.#.#.#.#.#.;.#.#.#.#.#.#.#.#.#.#.#.#.#.#.#.#.;.#.#.#.#.#.",
"+.;.#.+.P #.#.#.#.#.#.#.#.#.#.#.#.#.#.#.#.#.#.#.#.#.#.#.#.#.#.#.#.#.#.#.#.#.#.#.;.+.#.#.#.#.#.#.#.#.;.+.#.#.#.#.#.#.#.#.#.#.#.#.",
"#.#.#.Q P #.#.#.#.#.#.#.#.#.#.#.#.#.#.#.#.#.#.#.#.#.#.#.#.#.#.#.#.#.#.#.#.#.#.#.#.#.#.#.#.#.#.#.#.#.#.;.#.#.#.#.#.#.#.#.#.#.Q ;.",
"#.#.#.Q P #.#.#.#.#.#.#.#.#.#.#.#.#.#.#.#.#.#.#.#.+.;.#.#.#.#.#.#.#.#.#.#.#.#.#.#.#.#.#.#.#.#.#.#.#.#.#.#.#.#.#.#.#.#.#.#.#.W :.",
"#.#.;.Q E #.#.#.#.#.#.#.#.#.#.#.#.#.;.#.#.#.#.#.#.;.#.#.#.#.#.#.#.#.#.#.#.#.#.#.#.#.#.#.#.#.#.#.#.#.#.#.#.#.;.+.#.#.#.#.#.#.Q Q ",
"#.#.#.#.#.#.#.#.#.#.#.#.#.#.#.#.#.#.+.;.#.#.#.#.#.#.#.#.+.;.#.#.#.#.#.#.#.#.#.#.#.#.#.#.#.#.#.#.#.#.#.#.#.#.#.;.#.#.#.#.#.;.W W ",
"#.#.#.#.#.#.#.#.#.#.#.#.#.#.#.#.#.#.#.#.#.#.#.#.#.#.#.#.;.#.#.#.#.#.#.#.#.#.#.#.#.#.#.#.#.#.#.#.#.#.#.#.#.#.#.#.#.#.#.#.#.+.+.&.",
"#.#.#.#.#.#.#.#.#.#.#.#.#.#.#.#.#.#.#.#.#.#.#.#.#.#.#.#.#.#.#.#.#.#.#.#.#.#.#.#.#.#.#.#.#.#.#.#.#.#.#.#.#.#.#.#.#.#.#.#.#.#.#.#.",
"#.#.#.#.#.#.#.#.#.#.#.#.#.#.#.#.#.#.#.#.#.#.#.#.#.#.#.#.#.#.#.#.#.#.#.#.#.#.#.#.#.#.#.#.#.#.#.#.#.#.#.#.#.#.#.#.#.#.#.#.#.#.#.#.",
"#.#.#.#.#.#.#.#.#.#.#.#.#.#.#.#.#.#.#.#.#.#.#.#.#.#.;.#.#.#.#.#.#.#.#.#.#.#.#.#.#.#.#.#.#.#.#.#.#.#.#.#.#.#.#.#.#.#.;.#.#.#.#.#.",
"#.#.#.#.#.#.#.#.#.#.#.#.#.#.#.#.#.#.#.#.#.;.+.;.#.;.+.#.#.#.#.#.#.;.#.#.#.#.#.#.#.#.#.#.#.#.#.#.#.#.#.#.#.#.#.#.#.#.+.;.#.#.#.#.",
"#.#.#.#.#.#.#.#.#.#.#.#.#.) #.#.#.#.#.#.#.Q Q Q Q #.#.#.#.#.#.#.#.#.#.#.#.#.#.#.#.#.#.#.#.#.#.^ ) #.#.#.#.#.#.;.#.#.#.#.#.#.#.#.",
"#.#.#.#.+.o.X.X.O.#.#.#.S 0 #.#.#.#.#.#.#.#.E Q ;.;.#.#.#.#.#.#.#.#.#.#.#.#.^ ! #.#.#.#.#.#.F ; e #.#.#.#.#.;.+.#.#.#.#.#.#.#.#.",
"#.#.#.#.W m $ ..W ;.>.F o x >.#.W +.#.#.I v 9 A ) ;.#.#.#.#.#.#.#.#.#.#.#.! : 7 ) #.#.#.#.F - u >.;.#.#.#.#.#.#.#.#.#.#.#.;.#.#.",
"#.#.#.#.#.+.P >.6.2.>.; . &.f.>.W #.#.) w @ K 6.2.>.#.#.^ B W ;.#.#.#.#.! : & ;.#.#.#.#.#.>   L k.>.#.#.#.#.#.#.#.#.#.#.#.+.;.#.",
"#.#.#.#.#.#.Q *.#.#.C * y L 9.I E #.#.! # % 9.i.>.#.#.^ 6 & =.>.#.#.#.#.e O f g.q.#.#.#.Z @ t L 9.( K +.#.#.#.#.#.#.#.#.#.#.#.#.",
"#.#.#.#.#.#.+.Q #.#.D N < r a E :.;.) 0   p %.-.c W #.F X y u.i.>.#.#.S * t d -.I c #.#.! V 1 % & 9 W ;.#.#.#.#.#.#.#.#.#.#.#.#.",
"#.#.#.#.#.#.#.+.#.#.#.^ ; a E #.:.:.#.! B @ % J E +.^ : & f L &.a Q #.) ! 0 V u E W #.#.#.#.; y   q #.#.#.#.#.#.#.;.+.#.#.#.#.#.",
"#.#.#.#.#.#.#.#.#.#.) > & M #.#.*.>.#.;.D # i +.#.#.#.^ C + % K Q #.;.+.;.q F u ) #.#.#.#.#.7 c N k #.#.#.#.#.#.#.#.;.#.#.#.#.#.",
"#.#.#.#.#.#.#.#.#.#.#.; & #.#.#.I q.7.>.~ o H ;.#.#.#.#.Z X H ;.#.#.#.#.#.q 4.k Q #.#.#.#.#.~ q ! i #.#.#.#.#.#.#.#.#.#.#.#.#.#.",
"#.#.#.#.#.#.#.#.#.#.) = 8 q.H N h H ! ( R * ,.6.#.#.#.#.Z X 5.6.#.#.#.#.+.q $.h S #.#.#.#.#.^ ` 3.i #.#.#.#.#.#.#.#.#.#.#.#.#.#.",
"#.#.#.#.#.#.#.#.#.#.#.= j s.;.#.G 2.#.) w 9 ,.:.#.#.#.#.Z @ d.7.#.#.#.#.#., w k * #.#.#.#.#.#.Z 7.i #.#.#.;.#.#.#.#.#.#.#.#.#.#.",
"#.#.#.#.#.;.#.#.#.#.) ; U z.#.#.) 7.#.! # R e.) #.#.#.#.Z < h.q.#.#.#.#.#.S 1 _ i #.#.#.#.#.#.>.8.s #.#.;.+.#.#.#.#.#.#.#.;.+.;.",
"#.#.#.#.#.#.#.#.#.#.#.; T z.#.#.*.>.;.! # } s.#.#.#.#.#.Z 5 h.0.#.#.#.#.#.#., 4.k #.;.#.#.#.#.>.q.k Z #.#.#.#.#.#.#.;.#.#.#.#.#.",
"#.#.#.#.#.#.#.#.#.#.#.; I u.#.#.*.>.;.E # | s.#.#.#.#.#.Z @ 7.6.#.#.#.#.#.#., ~ u Q #.#.#.#.#.;.*.l w #.#.#.#.#.#.#.+.;.#.#.#.#.",
"#.#.;.#.#.#.#.#.#.#.q 2 9.W #.#.Q ;.#.! # | p.#.#.#.;.#.Z X <.>.#.#.#.#.#.#.> ! g ;.#.#.#.#.#.Q J N c #.#.#.+.;.#.#.#.#.#.#.#.#.",
"#.#.+.;.#.#.#.#.#.#.; 3 l.#.#.#.#.#.#.! # } r.#.#.#.;.) Z X E >.#.#.#.#.#.#.> ! M +.#.#.#.#.#.! ' <.c #.#.#.;.#.#.#.#.#.#.#.#.#.",
"#.#.#.#.#.#.#.#.#.#.; 3 j.#.#.#.#.#.#.! # U 1.#.#.#.#.#.Z X <.' D #.#.#.#.#., E c #.#.#.#.#.#./ ] 5.c #.#.#.#.#.#.#.#.#.#.#.#.#.",
"#.#.#.#.#.#.#.#.#.;.; 2 a.#.#.#.#.#.#.S # H 1.#.#.#.#.;.C X _ q ^ #.#.#.#.#.`  .n ) #.#.#.#.#._ { y.4 #.#.#.#.#.#.#.#.#.#.#.#.#.",
"#.#.#.#.#.#.#.#.#.#.= l a._ #.#.#.#.#.! # T 1.#.#.#.#.#.Z X N 0 D #.#.#.#.#.` 8.n #.#.#.#.#.#./ [ w.z ;.#.#.#.#.#.#.#.#.#.#.#.#.",
"#.#.#.#.#.#.#.;.+.;.2 4.t.#.#.#.#.#.#.Y - P / #.#.#.#.#.Z X N > ^ #.#.#.#.#.` 8.n #.#.#.#.#.;. .` ! b #.#.#.#.#.#.#.;.+.;.#.#.#."
};
