/* XPM */
static char *result[] = {
/* columns rows colors chars-per-pixel */
"64 64 158 2 ",
"   c #563D5B",
".  c #5C3F58",
"X  c #6A3747",
"o  c #6D3845",
"O  c #64374A",
"+  c #653A4C",
"@  c #6B3D4B",
"#  c #733C44",
"$  c #713F49",
"%  c #613E53",
"&  c #3D785A",
"*  c #5E4157",
"=  c #55405E",
"-  c #5C435B",
";  c #5D495D",
":  c #6D424E",
">  c #774246",
",  c #784346",
"<  c #73454C",
"1  c #78474A",
"2  c #754A4E",
"3  c #7C4E4D",
"4  c #7B514F",
"5  c #644557",
"6  c #6D4652",
"7  c #6D4854",
"8  c #664C5D",
"9  c #744C52",
"0  c #67505D",
"q  c #755355",
"w  c #7A5654",
"e  c #7A5856",
"r  c #745A5C",
"t  c #795B58",
"y  c #79615F",
"u  c #594661",
"i  c #544867",
"p  c #5C4D63",
"a  c #564E6C",
"s  c #5D5164",
"d  c #57506D",
"f  c #5D546A",
"g  c #5E5A6C",
"h  c #565472",
"j  c #5D5E79",
"k  c #644D61",
"l  c #694E63",
"z  c #625366",
"x  c #6E5266",
"c  c #675964",
"v  c #6E5A62",
"b  c #60566B",
"n  c #68556A",
"m  c #645B6B",
"M  c #6C586C",
"N  c #725B65",
"B  c #635E72",
"V  c #586E71",
"C  c #5F6779",
"Z  c #65636E",
"A  c #6E6569",
"S  c #6E6C6F",
"D  c #776562",
"F  c #786562",
"G  c #776966",
"H  c #7D6965",
"J  c #726768",
"K  c #756E6C",
"L  c #75706D",
"P  c #79716D",
"I  c #646474",
"U  c #696670",
"Y  c #656B74",
"T  c #686A72",
"R  c #67657A",
"E  c #656B7A",
"W  c #696C7F",
"Q  c #736773",
"!  c #746C75",
"~  c #6C7376",
"^  c #67717C",
"/  c #6A757B",
"(  c #6E7B7C",
")  c #747572",
"_  c #737B76",
"`  c #7C7C77",
"'  c #71747B",
"]  c #7C777C",
"[  c #727E7A",
"{  c #7A7C7C",
"}  c #80504E",
"|  c #855551",
" . c #835857",
".. c #885853",
"X. c #936B66",
"o. c #8C726A",
"O. c #847A7F",
"+. c #3B835D",
"@. c #4C8E5D",
"#. c #4C8A62",
"$. c #50856B",
"%. c #6D837D",
"&. c #69887A",
"*. c #72847F",
"=. c #7B827C",
"-. c #8B857C",
";. c #92847A",
":. c #6C6D81",
">. c #6F7284",
",. c #717285",
"<. c #747C82",
"1. c #797F82",
"2. c #867B82",
"3. c #748581",
"4. c #7B8484",
"5. c #778982",
"6. c #7B8B84",
"7. c #7B838A",
"8. c #7F9087",
"9. c #818483",
"0. c #808C86",
"q. c #8A8A85",
"w. c #81868E",
"e. c #818C89",
"r. c #8B8C89",
"t. c #958E83",
"y. c #93828A",
"u. c #84938A",
"i. c #88968D",
"p. c #8A998E",
"a. c #949187",
"s. c #989588",
"d. c #8D8A92",
"f. c #9B8F95",
"g. c #8B9491",
"h. c #8E9A92",
"j. c #929E94",
"k. c #9A9894",
"l. c #93959A",
"z. c #979C98",
"x. c #A19A8F",
"c. c #94A295",
"v. c #99A399",
"b. c #9BA89A",
"n. c #AEA096",
"m. c #A2A09F",
"M. c #A1AB9F",
"N. c #9D9CA0",
"B. c gray64",
"V. c #ABA1A1",
"C. c #A5AEA0",
"Z. c #ACAEA7",
"A. c #AFACAB",
"S. c #B2AAA5",
"D. c #BDAAA1",
"F. c #B8B3AE",
"G. c #BBB9AF",
"H. c #BCC0B0",
/* pixels */
"*.*.*.*.*.*.*.*.*.*.*.*.*.*.*.*.*.*.*./ 3.*.*.*.*.*.*.*.*.*.%./ 3.*.*.*.*.*.*.*.*.*.*.*.*.*.*.*.*.*.*.3.*.*.*.*.*.*.*.*.*.*.*.*.",
"*.*.*.*.*.*.*.*.*.*.*.*.*.*.*.*.3.%.^ ( *.*.*.*.*.*.*.*.*.*.3.*.*.*.*.*.*.*.*.*.*.*.*.*.*.*.*.*.*.*.*.*.*.*.*.*.*.*.*.*.*.*.*.*.",
"*.*.*.*.*.*.*.*.*.*.*.*.*.3.*.*.*.*.3.*.*.*.*.*.*.*.*.*.*.*.*.*.*.*.*.*.*.*.*.*.*.*.*.*.*.*.*.*.*.*.3.*.*.*.*.*.*.*.*.*.*.*.*.*.",
"*.*.*.*.*.*.*.*.*.*.*.*.*.*.*.*.*.3.%.*.*.*.*.*.*.*.*.*.*.*.*.*.*.*.*.*.*.*.*.*.*.*.*.*.*.*.*.*.*.*.*.*.*.*.*.*.*.*.*.*.*.*.*.*.",
"*.*.*.*.*.*.*.*.*.*.*.*.*.*.*.*.*.*.*.*.*.*.*.*.*.*.*.*.*.*.*.*.%.3.*.*.*.*.*.*.*.*.*.*.*.*.*.3.*.*.*.*.*.*.*.*.*.*.*.*.*.*.3.*.",
"*.*.*.*.*.*.*.*.*.*.*.*.*.*.*.*.*.*.*.*.*.*.*.*.*.*.*.*.*.*.*.*.3.*.*.*.*.*.*.*.*.*.*.*.*.*.*.%.( *.*.*.3.%.*.3.*.*.*.*.*.*.*.*.",
"*.*.*.*.3.*.*.*.*.*.*.*.*.*.*.*.*.*.*.*.*.*.*.*.*.*.*.*.*.*.*.*.*.*.*.*.*.*.*.*.*.*.*.*.3.*.*.*.*.*.*.*.*.*./ ( *.*.*.*.*.*.*.*.",
"*.*.*.*.*.*.*.*.*.*.*.*.*.*.*.*.*.*.*.*.*.*.*.*.*.*.*.*.3.*.*.*.*.*.*.*.*.*.*.*.*.*.*.*.*.*.*.*.*.*.*.*.*.*.*.4.*.*.*.*.*.*.*.*.",
"*.*.*.*.*.*.*.*.*.*.*.*.*.*.*.*.*.*.*.*.*.*.*.*.*.*.*.*.*.*.*.*.*.*.*.*.*.*.*.*.*.*.*.*.*.*.*.*.*.*.*.*.*.*.*.*.*.*.*.*.*.*.*.*.",
"*.*.*.*.*.*.*.*.*.*.*.*.*.*.*.3.3.*.*.*.*.*.*.*.*.*.*.*.*.*.*.*.*.*.*.*.*.*.*.*.*.*.*.*.*.*.*.*.*.*.*.*.*.*.*.*.*.*.*.*.*.*.*.*.",
"3.*.*.*.*.*.*.*.*.*.*.*.*.*.*.*.*.*.*.*.*.*.*.*.*.*.*.*.*.*.*.*.*.*.*.*.*.*.*.*.*.*.*.*.*.*.*.*.*.*.*.*.*.*.*.*.*.*.*.%.*.*.*.*.",
"*.*.*.*.*.*.3.%.*.*.*.*.*.*.*.*.*.*.*.*.*.*.*.*.*.*.*.*.*.*.*.*.*.*.*.*.3.%.3.*.*.*.*.*.*.*.*.*.*.*.*.*.*.*.*.*.*.*.*./ #.%.*.*.",
"*.*.*.*.*.*.*.3.*.*.*.*.*.*.*.*.*.*.*.*.*.*.*.*.3.*.*.*.*.*.*.*.*.*.3.( 3.%.*.*.*.3.*.*.*.*.3.*.*.*.*.*.*.*.*.*.*.*.*.( &.%.*.*.",
"*.*.*.*.*.*.*.*.*.*.*.*.*.*.*.*.*.*.*.*.*.*.*.*.*.*.*.*.*.*.*.*.*.*.( E *.3.*.*.3.%.*.*.*.*.*.*.*.*.*.*.*.*.*.*.*.*.%.*.*.*.*.*.",
"*.*.*.*.*.*.*.*.*.*.*.*.*.*.*.*.*.*.*.*.*.*.*.*.*.*.*.*.*.*.*.*.*.3.%.E *.*.*.*.*.*.*.*.*.*.*.*.*.*.*.*.*.*.*.*.*.*.*.*.*.*.*.*.",
"*.*.*.*.*.*.*.*.*.*.*.*.*.*.*.*.*.*.*.*.*.*.*.*.*.*.*.*.*.*.*.3.*.*.*.E *.*.*.*.*.*.*.*.*.*.*.*.*.*.*.*.*.*.*.*.*.*.*.*.*.*.*.*.",
"*.*.*.*.*.*.*.*.*.*.*.*.3.*.*.*.*.*.*.*.*.*.*.*.*.*.*.*.*.*.*.6.u.*.*.*.*.*.*.*.*.*.*.3.*.*.*.*.*.( 6.3.*.*.*.*.*.*.3.%.6.8.e.i.",
"*.*.*.*.*.*.*.*.*.*.*.*.*.*.*.*.*.*.*.*.*.*.*.*.*.*.*.*.%.3.*.*.*.*.*.*.*.*.*.*.*.*.*.*.*.*.*.*.*.( 4.3.*.*.*.*.%.( %.3.u.3.*.3.",
"*.*.*.*.*.*.*.*.*.*.*.*.*.*.*.*.*.*.*.*.*.*.*.*.*.*.*.*.3.*.*.*.*.*.*.*.*.*.*.*.*.*.*.*.*.*.*.*.3.( %.3.*.*.*.*.( / 3.3.*.*.*.*.",
"*.*.*.*.*.*.*.*.*.*.*.*.*.*.*.*.*.*.*.*.*.*.*.*.*.*.*.*.*.*.*.*.*.*.*.3.%.3.*.*.*.*.*.*.*.*.*.*.*.*.*.*.*.*.*.*.3.( 3.( *.*.*.*.",
"*.*.*.*.*.*.*.3.*.*.*.*.*.*.*.*.*.*.*.*.*.*.*.*.*.*.*.*.*.*.*.3.*.*.*.*.*.*.*.*.*.*.*.*.3.*.*.*.*.*.*.*.*.*.*.*.*.*.*.*.*.*.*.*.",
"*.*.*.*.*.*.3.%.*.*.*.*.*.*.*.*.*.*.*.*.*.*.*.*.*.*.*.*.*.*.*.3.*.*.*.*.*.*.*.*.*.*.*.*.%.3.*.*.*.*.*.*.*.*.*.*.*.*.*.*.*.*.*.*.",
"*.*.*.*.*.*.*.*.*.*.3.*.*.*.*.*.*.*.*.*.*.*.*.3.*.*.*.*.*.*.*.%.( ( %.3.*.*.*.*.*.*.*.*.*.*.*.*.*.*.*.*.*.3.*.*.*.3.*.*.%.3.*.( ",
"*.*.*.*.*.*.*.*.*.3.%.*.*.*.*.*.*.*.*.*.*.*.3.%.*.*.*.*.*.*.*.*.( ( ( *.*.*.*.*.*.*.*.*.*.*.*.*.*.*.*.*.*.*.*.*.3.%.*.*.3.3.3.( ",
"*.3.*.*.*.*.3.*.*.*.*.*.*.*.*.*.*.*.*.*.*.*.*.3.%.*.*.*.*.*.*.*.3.3.*.*.*.*.*.*.*.*.*.*.*.*.*.*.*.*.*.*.*.*.*.*.*.*.*.*.*.*.*.*.",
"*.*.*.*.*.*.%.3.*.*.*.*.*.*.*.*.*.*.*.3.*.*.*.*.3.*.*.*.3.%.*.*.%.3.*.*.*.*.*.*.*.*.*.*.*.*.*.*.*.*.*.*.*.*.*.*.*.*.*.*.*.*.*.*.",
"*.*.*.*.*.*.*.*.*.*.*.*.*.*.*.*.*.*.*.*.*.*.*.*.*.*.*.*.*.3.*.*.3.3.*.*.*.*.*.*.*.*.*.*.*.*.*.*.*.*.*.*.*.*.*.*.*.*.*.*.*.3.*.*.",
"*.*.*.*.*.*.*.*.*.*.*.*.*.*.*.*.*.*.*.*.*.*.*.*.*.*.*.*.*.*.*.*.%.3.*.*.*.*.*.*.*.*.*.*.*.*.*.*.*.*.*.*.*.*.*.*.*.*.*.*.*.%.3.*.",
"*.*.*.*.*.*.*.*.*.*.*.*.*.*.*.*.*.*.*.*.*.*.*.*.*.*.*.*.*.*.*.*.*.3.*.*.*.*.*.*.*.*.*.*.*.*.*.*.*.3.*.*.*.*.*.*.*.*.*.*.*.*.*.*.",
"*.*.*.*.*.*.*.*.*.*.*.*.*.*.*.*.*.*.*.*.*.*.*.*.*.*.3.*.*.*.*.3.*.*.*.*.*.*.*.*.*.*.*.*.*.*.*.*.3.%.*.*.*.*.*.*.*.3.*.*.*.*.*.*.",
"*.*.*.*.*.*.*.*.*.*.*.*.*.*.*.*.*.*.*.*.*.*.*.*.*.*.*.*.*.*.*.%.*.*.3.*.3.*.*.*.*.*.*.*.*.*.*.*.*.*.*.*.*.*.*.*.*.*.*.*.*.*.*.*.",
"*.*.*.*.*.*.*.*.*.*.3.*.*.*.*.*.*.*.*.*.*.*.*.*.*.*.*.*.*.*.*./ E E / 3.%.*.*.*.*.*.*.*.3.*.*.*.*.*.*.*.*.*.*.*.*.*.*.*.*.*.*.*.",
"*.*.3.*.%.*.*.*.*.*.*.*.*.*.*.*.*.*.*.*.*.*.*.*.*.*.*.*.*.*.*.*.*.%.*.*.*.*.*.*.*.3.%.*.*.*.*.*.*.*.*.*.*.*.*.*.3.%.*.*.*.*.*.*.",
"*.*.*.( E *.*.*.*.*.*.*.*.*.*.*.*.*.*.*.*.*.*.*.*.*.*.*.*.*.*.*.*.*.*.*.*.*.*.*.*.*.3.*.*.*.*.*.*.*.*.*.*.*.*.*.*.3.*.*.*.*.*.*.",
"*.*.*.%.E 3.*.*.*.*.*.*.*.*.*.*.*.*.*.*.*.*.*.*.*.*.*.*.*.*.*.*.*.*.*.*.*.*.*.*.*.*.*.*.*.*.*.*.*.*.3.*.*.*.*.*.*.*.*.*.*.*.*.*.",
"*.*.3.( E *.*.*.*.*.*.*.*.*.*.*.*.*.*.*.*.*.*.*.*.*.*.*.*.*.*.*.*.*.*.*.*.*.*.*.*.*.*.*.*.*.*.*.*.*.*.*.*.*.*.*.*.*.*.*.*.*.( 3.",
"*.*.*.( Y *.*.*.*.*.*.*.*.L ) *.*.*.*.*.*.*.*.*.*.*.*.*.*.*.*.*.*.*.*.*.*.3.*.*.*.*.*.*.*.3.G t _ 3.*.*.*.*.*.*.3.3.%.3.*.[ / 7.",
"*.*.3.%.~ *.*.*.*.*.*.*.L 6 A *.*.*.*.*.*.*._ F *.*.*.*.*.*.*.*.*.*.*.*.*._ t D 3.%.*.*.*.G 6 N _ %.*.*.3.*.*.*.*.%.3.3.*.*.( / ",
"*.*.*.*.*.*.*.*.*.*.*.L 6 - 1.6.*.*.*.*._ r c K *.*.*.*.%.3.3.3.*.*.*.*._ q 6 K 3.3.3.3.D @ u 6.5.3.3.*.%.*.*.*.*.*.3.%.%.3./ / ",
"*.*.*.*.*.*.*.*.*.*.*.F O i N.C.6.*.*.[ q . B p.*.3.*.*.G 0 ~ 3.*.*.*._ 9 . I p.%.3.%.3.e O d Z.b.5.*.*.3.*.*.*.*.*.3.%.3.3.( <.",
"*.*.*.*.*.*.*.*.*.*.L : - h :.>.z ( *._ >   W G.p.*.*.G : ; e.6.*.*.*._ # * >.H.p.%.*.D @ u h >.W f ( *.*.*.*.*.*.*.*.*.*.*.*.*.",
"*.*.*.*.*.*.*.*.*.*.[ ) r % = U ~ ( *.q 5 i C ,.R m *.r O i B.b.6.*._ q 5 d j >.I Z *._ ~ q *   : S *.*.*.*.*.*.*.*.*.*.*.*.*.*.",
"*.*.*.*.*.*.3.*.*.*.*.*.r 5 I %.*.*.*.) S <   p ( _ K : u d R :.b ~ *.) S 9 Y a ( ( *.*.*.4 p = > ) *.*.*.*.*.*.*.*.*.*.*.*.*.*.",
"*.*.*.*.*.*.*.*.*.*.*.G : p / %.*.*.*.*._ # - ( *.*.[ ~ r % u Y ~ *.*.*.) 3 ~ ; *.*.*.*.*.w k ~ ; ~ *.*.*.*.*.*.*.*.*.*.*.*.*.*.",
"*.*.3.%.*.%.3.*.*.*.*.F X Z 3.*.*.*.*.*.) # p 3.( *.*.*.t O U *.*.*.*.*._ | r.p *.*.*.*.*.[ 2 P p _ *.*.*.*.*.*.*.*.*.*.*.*.*.*.",
"*.*.3.3.%.#.@.@.$.*.*.F X ] u.*.*.*.*.*._ , R c.*.*.*.*.t O r.0.*.*.*.*._ } q.; _ *.*.*.*.*.3 t.z ~ *.*.*.*.3.*.*.*.*.*.*.*.*.*.",
"*.*.%.3./ V & +./ <.6.H X 2.i.*.E *.3.*.J < ' g.<.3.*.*.t + V.p.*.*.*.*.) 3 S 5 q *.*.*.*.*.e s.z ~ *.*.*.*.*.*.*.*.*.*.*.*.*.*.",
"*.*.3.%.3.3.Y 6.i.6.6.H @ f.v.*.^ *.3._ # k z.<.u.6.*.3.t 8 A.h.*.*.*.*.` 2 8 ~ s *.*.*.*.*.*.c.m ( *.*.*.*.*.*.*.*.3.%.3.*.*.*.",
"*.*.*.*.*.*.( <.3.%.*.D 7 N.v.3.<.*.*._ 1 x F.6.*.*.*.*.t 8 A.h.*.*.*.*.*._ ..r.s *.*.*.*.3.3.c.W K %.*.*.*.*.*.*.*.*.3.*.*.*.*.",
"*.*.*.*.*.*.( / *.3.*.D 7 l.j.3.6.3.*._ > x F.*.*.*.*.*.t 5 m.i.*.*.*.*.*.L | 9.s *.*.*.*.%.3.p.R 1 _ *.*.*.*.*.*.*.*.*.*.*.*.*.",
"*.*.*.*.*.*.*.%.*.*._ q N 7.5.3.4.3.*._ > x G.3.*.*.*.*.t O q.8.*.*.*.*.*.L 3 ^ g 3.*.*.*.*.*./ Y 7 _ *.*.*.*.*.*.*.*.*.*.*.*.*.",
"*.*.*.*.*.*.*.3.*.*.G o 2.g./ 3.4.6.*._ > x G.3.*.*.*.*.r O { 6.*.*.*.*.*.L 3 / C *.*.*.*.*.[ v 4.k / *.*.*.*.*.*.*.*.*.*.*.*.*.",
"*.*.*.*.*.*.*.*.*.*.G o y.B.3.3./ h.i.=., l M.3.*.*.*.*.t O { 6.*.*.*.*.%.) 3 / C *.*.*.*.*.*.} t.z ( *.*.*.*.*.*.*.*.*.*.*.*.*.",
"*.*.*.*.*.*.*.*.*.*.G o y.k.Y I s Z ! ! , k c.3.*.*.*.*.t O q.u.*.*.*.*.3.L 3 / C *.*.*.*.*.*.} n.n _ *.*.*.*.*.*.*.*.*.*.*.*.*.",
"*.*.*.*.*.*.*.*.*.*.G o 2.h.%.[ Z r.*._ , 8 j.3.*.*.*.*.t O ' *.*.*.*.*.3.) | e.C *.*.*.*.*.*.} D.M ( *.*.*.*.*.*.*.*.*.*.*.*.*.",
"*.*.*.*.*.*.*.*.*.*.G : d.v.*.*.<.i.*._ 1 B c.3.*.*.*.*.t O T *.*.*.*.*.3.) ..h.C *.*.*.*.*.*.4 x.R ( *.*.*.*.*.*.*.*.*.*.*.*.*.",
"*.*.*.*.*.*.*.*.*.*.G 6 w.p.*.*.1.5.3._ 1 j 6.*.*.*.*.*.t O Y *.*.3.*.*.*.L ..h.C 3.*.*.*.*.*.3 ` I ( *.*.*.*.*.*.*.*.*.*.*.*.*.",
"*.*.*.*.*.*.*.*.*.*.G 6 7.i.*.*.1.3.3.( 1 I h.*.*.*.*.*.t O S *.*.*.*.*.*._ ..j.C 3.*.*.*.*.*._ h.I q [ *.*.*.*.*.*.*.*.*.*.*.*.",
"*.*.*.*.*.*.*.*.*.*.D 6 ^ 3.*.*.( 3.*._ 1 I h.*.*.*.*.*.t O Y *.*.*.*.*.3.L | g.C %.*.*.*.*.*.3.h.R 2 _ *.*.*.*.*.*.3.*.*.*.*.*.",
"*.*.*.*.*.*.*.*.*.L $ z ^ ( *.*.*.*.*._ 1 I <.%.*.*.*.*.t O U %.*.*.*.*.*.) 3 ( Y _ *.*.*.*.*.%.R ~ ; ( 3.*.*.*.*.*.*.*.*.*.*.*.",
"*.*.*.*.*.*.*.*.*.K o m L [ *.*.*.*.*.K < T Z *.*.*.*.*.t O f 7 ) *.*.*.*.) 9 I J r *.*.*.*.*.5. ._ ; ( *.*.*.*.*.*.*.*.*.*.*.*.",
"*.*.*.*.*.*.*.*.*.K # Q ;.*.*.*.*.*.[ 1 * _ D *.*.*.*.*.e O I 2 ) *.*.*.*.*.-.3 T z *.*.*.*.*.0.X.-.k ( *.*.*.*.*.*.*.*.*.*.*.*.",
"*.*.*.*.*.*.*.*.*.K # Q ;.[ *.*.*.*.[ , - =.y *.*.*.*.*.t O d : ) *.*.*.*.*.-.3 S s *.*.*.*.*.6.k.~ ; ( *.*.%.3.*.*.*.*.*.*.*.*.",
"*.*.*.*.*.*.*.*.*.) + O.o.*.*.*.*.*.*.r z -.y *.*.*.*.*.G N b : ) *.*.*.*.*.a.9 N Z *.*.*.*.*.u.S.c 0 %.*.*.3.*.*.*.*.*.*.*.*.*."
};
