/* XPM */
static char *result[] = {
/* columns rows colors chars-per-pixel */
"64 64 165 2 ",
"   c #5E3C54",
".  c #573D5A",
"X  c #6C3746",
"o  c #65374A",
"O  c #693748",
"+  c #66384B",
"@  c #6D3D49",
"#  c #753E45",
"$  c #3D785A",
"%  c #5E4157",
"&  c #55415E",
"*  c #5D455C",
"=  c #5D4A5F",
"-  c #774045",
";  c #784446",
":  c #76454A",
">  c #784749",
",  c #774C4F",
"<  c #7B4C4B",
"1  c #7B514F",
"2  c #644254",
"3  c #6D4653",
"4  c #6B4856",
"5  c #64465A",
"6  c #654B5D",
"7  c #6A4B5A",
"8  c #744D53",
"9  c #69515D",
"0  c #755255",
"q  c #7B5351",
"w  c #795856",
"e  c #74565A",
"r  c #765D5D",
"t  c #795C5A",
"y  c #78625F",
"u  c #554360",
"i  c #5C4C62",
"p  c #564C6A",
"a  c #5E5366",
"s  c #57526F",
"d  c #5D536A",
"f  c #5E5A6F",
"g  c #595773",
"h  c #5C5B74",
"j  c #644D62",
"k  c #6B4F63",
"l  c #635366",
"z  c #6B5264",
"x  c #665B65",
"c  c #645469",
"v  c #635B6B",
"b  c #6B5C6B",
"n  c #705469",
"m  c #645D71",
"M  c #715F73",
"N  c #5E6176",
"B  c #586E71",
"V  c #5D6478",
"C  c #6C6067",
"Z  c #65636E",
"A  c #6C626D",
"S  c #766563",
"D  c #786360",
"F  c #766A67",
"G  c #7D6B66",
"H  c #746768",
"J  c #766D69",
"K  c #75716D",
"L  c #646374",
"P  c #6A6374",
"I  c #656A74",
"U  c #6A6D73",
"Y  c #65647A",
"T  c #68677C",
"R  c #646C7A",
"E  c #6B6C7E",
"W  c #766670",
"Q  c #726F76",
"!  c #716D7F",
"~  c #6B7276",
"^  c #66717B",
"/  c #6B757B",
"(  c #6D7B7C",
")  c #737471",
"_  c #747A76",
"`  c #73747A",
"'  c #797179",
"]  c #727E7A",
"[  c #80504E",
"{  c #865652",
"}  c #885753",
"|  c #825E5C",
" . c #925E5A",
".. c #87615C",
"X. c #8E615C",
"o. c #8E6B64",
"O. c #816E68",
"+. c #986863",
"@. c #986E68",
"#. c #8B736F",
"$. c #857D75",
"%. c #8E7970",
"&. c #82797F",
"*. c #A2756F",
"=. c #3B835D",
"-. c #4C8E5D",
";. c #4C8A62",
":. c #50856B",
">. c #6D837D",
",. c #69887A",
"<. c #72847F",
"1. c #8D847C",
"2. c #978A7E",
"3. c #6B6D81",
"4. c #726E80",
"5. c #6B7181",
"6. c #6F7A81",
"7. c #747D83",
"8. c #837F82",
"9. c #758581",
"0. c #798584",
"q. c #778882",
"w. c #7B8B85",
"e. c #7B828A",
"r. c #7F8989",
"t. c #7F9087",
"y. c #888587",
"u. c #888787",
"i. c #81858C",
"p. c #828D8B",
"a. c #918487",
"s. c #918F86",
"d. c #948F8E",
"f. c #83938A",
"g. c #89958D",
"h. c #8B988E",
"j. c #9A9083",
"k. c #979C8E",
"l. c #878C91",
"z. c #8B8D95",
"x. c #9C8C92",
"c. c #8E9B92",
"v. c #909596",
"b. c #919D93",
"n. c #919199",
"m. c #99999E",
"M. c #A19C9E",
"N. c #AB9D9E",
"B. c #95A396",
"V. c #9CA59B",
"C. c #9EA99D",
"Z. c #A2AB9E",
"A. c #9E9EA0",
"S. c #A4A4A4",
"D. c #A7ADA3",
"F. c #AEAFA6",
"G. c #ADAFA8",
"H. c #B2A8A5",
"J. c #AAB1A5",
"K. c #B3B6AC",
"L. c #B9B7AD",
"P. c #B7BAAE",
"I. c #BBB9AE",
"U. c #B9B7B0",
"Y. c #BCBDB1",
/* pixels */
"<.<.<.<.<.<.<.<.<.<.<.<.<.<.<.<.<.<.<./ 9.<.<.<.<.<.<.<.<.<.>./ <.<.<.<.<.<.<.<.<.<.<.<.<.<.<.<.<.<.<.<.<.<.<.<.<.<.<.<.<.<.<.<.",
"<.<.<.<.<.<.<.<.<.<.<.<.<.<.<.<.<.<.R >.<.<.9.<.<.<.<.<.<.<.9.<.<.<.<.<.<.<.<.<.<.<.<.<.<.<.<.<.<.<.<.<.<.<.<.<.<.<.<.<.<.<.<.<.",
"<.<.<.<.<.<.<.<.<.<.<.<.<.<.<.<.<.<.<.<.<.<.<.<.<.<.<.<.<.<.<.<.<.9.<.<.<.<.<.<.<.<.<.<.<.<.9.<.<.<.q.<.<.<.<.<.<.<.<.<.<.<.9.<.",
"<.<.<.<.<.<.<.<.<.<.9.<.<.<.<.<.<.<.<.<.<.<.<.<.<.<.<.<.<.<.<.<.9.>.<.<.<.<.<.<.<.<.<.<.<.<.<.<.<.<.<.<.<.<.<.<.<.<.<.<.<.<.<.<.",
"<.<.<.<.<.<.<.<.<.<.<.<.<.<.<.<.<.<.<.<.<.<.<.<.<.<.<.<.<.<.9.<.<.<.<.<.<.<.<.<.<.<.<.<.<.<.<.<.<.<.<.<.<.<.<.<.<.<.<.<.<.<.<.<.",
"<.<.<.<.<.<.<.<.<.<.9.<.<.<.<.<.<.<.<.<.<.<.<.<.<.<.<.<.<.<.>.9.<.<.<.<.<.<.<.<.<.<.<.<.<.<.<.<.( <.<.<.<.<.<.<.<.<.<.<.<.<.<.<.",
"<.<.<.<.<.<.<.<.<.<.<.<.<.<.<.<.<.<.<.<.<.<.<.<.<.<.<.<.<.<.<.<.<.<.<.<.<.9.<.<.<.<.<.<.<.<.<.<.<.<.<.<.<.<./ >.<.<.<.<.<.<.<.<.",
"<.<.<.9.<.<.<.<.<.<.<.<.<.<.<.<.<.<.<.<.<.<.<.<.<.<.<.<.<.<.<.<.<.<.<.<.<.<.<.<.<.<.<.<.<.<.<.<.<.<.<.<.<.<.<.0.<.<.<.<.<.<.<.<.",
"<.<.<.<.<.<.<.<.<.<.<.<.<.<.<.<.<.<.<.<.<.<.<.<.<.<.<.<.<.<.<.<.<.<.<.<.<.<.<.<.<.<.<.<.<.<.<.<.<.<.<.<.<.<.<.<.<.<.<.<.<.<.<.<.",
"<.<.<.<.<.<.<.<.<.<.<.<.<.<.<.<.<.<.<.<.<.<.<.<.<.<.<.<.<.<.<.<.<.<.<.<.<.<.9.<.<.<.<.<.<.<.<.<.<.<.<.<.<.<.<.<.<.<.<.<.<.<.<.<.",
"<.<.<.<.<.<.<.<.<.<.<.<.<.<.<.<.<.<.<.<.<.<.<.<.<.<.<.<.<.<.<.<.<.<.<.<.<.<.<.<.<.<.<.<.<.<.<.<.<.<.<.<.<.<.<.<.<.9.<.>.<.<.<.<.",
"<.<.<.<.<.<.<.<.<.<.<.<.<.<.<.<.<.<.<.<.<.<.<.<.<.<.<.<.<.<.<.<.<.<.<.<.<.<.<.<.<.<.<.<.<.<.<.<.<.<.( <.<.<.<.<.<.<.<./ ;.>.<.<.",
"<.<.<.<.<.<.<.<.<.<.<.<.<.<.<.9.<.<.<.<.<.<.<.<.<.<.<.<.<.<.<.<.<.<.9.>.<.9.<.<.<.<.<.<.<.<.<.<.<.<.<.<.<.<.<.<.<.<.<.( ,.,.<.<.",
"<.<.<.<.<.<.<.<.<.<.<.<.<.<.9.>.<.<.<.<.<.<.<.<.<.<.<.<.<.<.<.<.<.<.>.Y 9.>.<.<.<.<.<.<.<.<.<.<.<.<.<.<.<.<.<.<.<.<.<.<.<.<.<.<.",
"<.<.<.<.<.<.<.<.<.<.<.<.<.<.<.<.<.<.<.<.<.<.<.<.<.<.<.9.<.<.>.9.<.<.>.R <.<.<.<.<.<.<.<.<.<.<.<.<.<.<.<.<.<.<.<.<.<.<.<.<.<.<.<.",
"<.<.<.<.<.<.<.<.<.<.<.<.<.<.<.( v <.<.<.<.<.<.v ~ <.<.<.>.( c 9.<.<.<.Y >.Z U <.<.<.<.<.( c >.<.<.<.<.<.<.<.<.<.<.<.<.<.<.<.<.<.",
"<.<.<.<.<.<.<.<.9.<.<.<.<.<.( i L b.9.9.9.S 4 p g.r.9.] 0 * L b.w.<.<.S 3 p p.t.<.9.<.( i L c.9.<.( p.<.<.<.<.<.<.<.<.<.w.r.f.f.",
"<.<.<.<.<.<.<.<.>.9.<.<.<.] ~ u 3.P.g.] ( e + p S.C.9._ ; . 3.K.g.>.<.t + p A.Z.0.>._ 8 . 3.P.g.<.( 9.<.<.<.<.<.<.( <.<.f.<.<.9.",
"<.<.<.<.<.<.<.<.<.<.<.<.] 0 i d h T m Z F 3 i s Y Y i , % p g Y L v J 3 * g Y Y a ( _ 5 p g Y m v <.<.<.<.<.<.<.( ( <.9.<.<.<.<.",
"<.<.<.<.<.<.<.<.<.<.<.<.<._ ) @ u d ( <.>._ e   & ~ ( _ ) : . a >.( <.( e H a I ( >.] 8 # .   , ( <.<.<.<.<.<.<.<.( <.( <.<.<.<.",
"<.<.<.<.<.<.<.<.<.<.<.<.9.<.J : h <.<.<.<.<.w o I <.<.<._ ; * <.<.<.<.<.t G l U <.<.<.K - s 2 , <.<.<.<.<.<.<.<.<.<.9.>.<.<.<.<.",
"<.<.<.<.<.<.<.<.<.<.<.<.9._ - & L <.<.<.<.<.w + ( 9.<.<._ # k V.<.<.<.<.w 1.C ~ <.<.<.] q v U i <.<.<.<.<.<.<.<.<.<.<.9.<.<.<.<.",
"<.<.<.<.<.<.<.<.<.<.<.9.>._ # 5 q.<.<.<.<.<.w j c.r.<.<._ ; M I.( ( <.<.t %.b C ] <.<.<.) [ ` = <.<.<.<.<.<.<.<.<.<.9.>.>.9.<.>.",
"<.<.<.<.<.<.<.<.<.<.<.>.9._ ; j B.<.<.<.<._ 8 b p.0.<.9._ ; 4.Y.( ( ] <.y e d @ K <.<.<.) { g.i <.<.<.<.<.<.<.<.<.<.9.>.9.9.9.] ",
"9.<.<.<.<.<.<.<.<.<.<.<.<._ # k Z.<.<.<.<.y O d.0.( 9.<._ : 4.Y.9.<.<.<.F 9 ] l U 9.9.>._ { d.i 9.>.<.<.<.<.<.<.<.<.<.<.<.>.9.<.",
"<.<.<.<.<.<.<.<.<.<.<.<.<._ ; M Y.<.<.<.<.t O N.c.>.9.<._ - P J.<.<.<.<.<.<.b.b ~ <.>.9.] O.h.d <.9.<.<.<.<.<.<.<.<.<.<.<.9.<.<.",
"<.<.<.<.<.<.<.<.9.>.<.<.<._ > ! Y.<.<.<.<.t o N.c.<.>.9._ - j B.<.<.<.<.>.9.f.l ~ >.>.9.<.w.c.f F <.<.<.<.<.<.<.<.<.<.<.<.<.<.<.",
"<.<.<.<.<.<.<.<.<.<.<.<.<._ > E D.<.<.<.>.t o N.c.<.<.<._ - 6 t.<.<.<.<.9.>.9.f ( >.9.>.<.0.w.l 1 <.<.<.<.<.<.<.<.<.<.<.<.<.<.<.",
"<.<.<.<.<.<.<.9.<.<.<.<.<.w 4 i.7.9.<.<.<.) 6 N.c.<.<.<.] - 6 g.<.<.<.<.>.<.<.V ( 9.9.9.9.( R Z 6 <.<.<.<.<.<.<.9.<.<.<.<.<.<.<.",
"<.<.<.<.<.<.<.<.<.<.<.<.>.; k F.( <.<.<.<.I . d.f.<.<.<._ - j B.<.<.<.9.9.<.<.V / 9.9.>.9.) t y.a <.<.<.<.<.<.<.<.<.<.<.<.<.<.<.",
"<.<.<.<.<.<.<.<.<.9.<.<._ ; 9 I.q.>.9.<.<.L & u.r.<.<.<._ - * w.<.<.9.>.>.R / V / 9.<.<.>.) } d.i <.<.<.<.<.<.<.<.<.<.<.<.<.<.<.",
"<.<.<.<.<.<.<.<.<.<.<.<.] ; k L.q.9.<.<.<.y   u.t.9.<.<._ - * ( R R ( <.9.r 1.5./ <.<.<.9.)  .Z.a <.<.<.<.<.<.<.<.<.<.<.<.<.<.<.",
"<.<.<.<.>.<.<.<.<.<.<.<._ ; j C.<.<.<.<.0.t 5 f.t.<.<.<._ - * ( <.<.<.<.<.w 2.^ / 9.9.9.>._  .H.a <.<.<.<.<.<.<.<.<.<.<.<.9.<.<.",
"<.<.<.<.R <.<.9.<.<.<.<.] > P K.q.<.<.<.<.t 6 7.<.<.<.<._ - * <.<.<.<.<.<.t j.5./ 9.9.>.>.) } v.N <.<.<.<.<.<.<.<.<.<.<.<.<.<.<.",
"<.<.<.( R <.<.<.<.<.<.<._ > Y B.<.<.<.<.<.t 6 l.t.<.<.<._ - * >.<.<.<.<.<.<.b.E ( 9.<.<.<.) 1 9.N ] <.<.<.<.<.<.<.<.<.<.<.<.<.<.",
"<.<.9.( R <.<.<.<.<.<.<.<.> L b.<.<.<.<.<.t 6 p.t.<.<.<._ - * ( <.<.<.<.<._ h.E / <.<.<.<.) } c.j w <.<.<.<.<.<.<.<.<.<.<.>.( 0.",
"9.<.<.( I 9.<.<.<.<.<.<.K : N ( <.<.<.<.<.t 9 / <.<.<.<._ # & Y <.<.<.<.<.w F Y U ] <.<.9.) | p.l 0 <.<.<.<.<.<.<.<.>.9.<.<.( 0.",
">.9.<.<.~ <.<.<.<.<.<._ > % ( V <.<.<.<._ 0 H R / <.<.<._ - % ( <.<.<.<.<.y 9 / 8 ) <.<.9.<._ Z U a <.<.<.<.<.<.<.<.9.<.<.<./ / ",
"<.<.<.<.<.<.<.<.<.<.<.<.; % q.<.<.<.<.<.y O Z <.<.<.<.<._ - . N <.<.<.<.<.<.1 K i ~ <.<.>.9.K 1 ) l <.<.<.<.<.<.<.<.<.<.9.>./ / ",
"<.<.<.<.<.<.<.<.<.<.<._ ; 5 B.9.<.<.<.<.y O ~ w.<.<.<.<._ # . N <.<.<.<.<.<.q J i ~ <.9.>.9.K { 0.a <.<.<.<.<.<.<.<.<.<.<.9.>.6.",
"<.<.<.<.<.<.<.<.<.<.<.] ; 5 k.9.<.<.<.<.y O y.t.<.<.<.<._ - & R <.<.<.<.<.<.w $.l ~ <.<.<.<.K < U a <.<.<.<.<.<.<.<.<.<.<.<.<.<.",
"<.<.<.<.<.<.<.<.<.<.<.] < l B.<.<.<.<.<.y O y.f.<.9.<.<._ - * ] <.<.<.<.<.<.1 j.l / <.<.<.<.) 1 ~ f <.<.<.<.<.<.<.<.<.<.<.<.<.<.",
"<.<.<.<.<.<.<.<.<.<.<.] > L B.0.<.<.<.<.y 2 r.f.<.<.<.<._ - * <.<.<.<.<.<.<.K k.P / <.<.<.<.K < / v J <.<.<.<.<.<.<.<.<.>.9.<.<.",
"<.<.<.<.<.<.<.<.<.<.<.<.> m r.<.<.<.<.<.y 4 p.f.<.<.<.<._ - * >.<.<.<.<.<.<.<.B.^ ( <.<.<.9.K < / 6 t <.<.<.<.<.<.<.<.<.9.<.<.<.",
"<.<.<.<.<.>.9.<.>.9.<.0 2 U Y >.<.<.<.<.y 7 7.9.( <.<.<._ > m h.<.<.<.<.<.<.9.B.3.( <.<.<.<.K ; R Z x <.<.<.<.<.<.<.<.<.<.<.<.<.",
"<.<.<.<.>.;.-.-.:.>.<.>   ( ( <.<.<.<.<.y 4 ^ ( <.<.<.<._ : T B.<.<.<.<.<.<.<.B.0.<.<.<.<.<.<.y e L c <.<.<.<.<.<.<.<.<.<.<.<.<.",
"<.<.<.<.( B $ =.( 9.<.<   / <.<.^ >.<.<.e 4 ^ / 7.9.>.9._ : L w.<.<.<.<.<.<.<.w.<.w _ <.<.<.<.K 1 Z a <.>.9.<.<.<.<.<.<.<.<.<.<.",
"<.<.<.<.<.>.R w.f.t.1.< % ( <.<./ <.<.S 3 v Y p.r.w.9.>._ > T b.<.<.<.<.<.<.<.I ( 6 / <.<.<.<.K 1 U v <.9.<.<.<.<.<.<.<.<.<.<.<.",
"<.<.<.<.<.<.( 7.<.<.<.; % ( <.<.( <.<.S X Z ^ 9.<.<.<.<._ : 4.P.<.<.<.<.<.<.9.e s.l ~ <.<.<.<.J ..&.v <.<.<.<.<.<.<.<.<.<.<.<.<.",
"<.<.<.<.<.<.( / <.<.<.< a ( <.<.w.0.<.S X Z / <.<.<.<.<._ > 4.Y.<.<.<.<.<.<.<.] B.l / <.<.<.<.K X.g.R <.<.<.<.<.<.<.<.<.<.<.<.<.",
"<.<.<.<.<.<.<.<.<.<.<.< c >.<.<.0.w.<.S 3 R <.<.<.<.<.<._ > 4.Y.<.<.<.<.<.<.9.>.B.x ( <.<.<.<.K +.C.L ] 9.<.<.<.<.<.<.<.>.9.<.<.",
"<.<.<.<.<.<.<.<.<.<.<.> f ( <.<.7.w.<.S 4 R <.<.<.<.<.<.] > 4.Y.<.<.<.<.<.<.9.] B.l ~ <.<.<.<.J +.m.7 y >.9.<.<.<.<.<.<.9.<.<.<.",
"<.<.<.<.<.<.<.<.>.9.K : v / <.<./ b.g.O.4 / q.<.<.<.<.<._ > 4.Y.<.<.<.<.<.<.<.R B.c / <.<.<.<.K , / 9 D <.<.<.<.<.<.<.<.<.<.<.<.",
"<.<.<.<.<.<.<.<.9.>.<   / N I L i Z Q r 4 l.c.<.<.<.<.<._ > 4.Y.<.<.<.<.<.<.( ^ B.b ( <.<.<.<._ 8 8.y.f <.<.<.<.<.<.<.<.<.<.<.<.",
"<.<.<.<.<.<.<.<.<.<.<   / >.<.] A p.<.S 4 n.b.<.<.<.<.<._ > 3.Y.<.9.<.<.<.<.<.<.g.R ( <.<.<.<.<.H *.x.Z <.<.<.<.<.<.<.<.<.<.<.<.",
"<.<.<.<.<.<.<.<.<.<.< + 0.0.<.<.7.h.<.F 3 z.b.<.<.<.<.<._ > 4.Y.<.<.<.<.<.<.<.<.<.V ( <.<.<.<.<.J *.x.b <.<.<.<.<.<.<.<.<.<.<.<.",
"<.<.<.<.<.<.<.<.<.<.< j v.w.<.<.7.w.<.S 4 m.V.<.<.<.<.<._ > E J.<.<.<.<.<.<.<.<.>.V >.<.<.<.<.<.F @.y.Z <.<.<.<.<.<.<.<.<.<.<.<.",
"<.<.<.<.<.<.<.<.<.<.< v D.r.<.<.7.0.<.S | b.p.<.<.<.<.<._ ; b J.<.<.<.<.<.<.<.<.^ I D ] <.<.<.<.F | ` I <.<.<.<.<.<.<.<.<.<.<.<.",
"<.<.<.<.<.<.<.<.<.<.1 v L.w.<.<.( 9.) 8 a.v.^ <.<.<.<.<._ ; n I.<.<.<.<.<.<.<.<.e ~ 5 _ <.<.<.<.J ..7.z K <.<.<.<.9.<.<.<.<.<.<.",
"<.<.<.<.9.<.<.<.<.<.< v U.f.<.<.<.<.J 3 n.A.^ 9.<.<.<.9._ # z Z.<.<.<.<.<.<.<.<.< K = ( <.<.<.<.F o.p.4 S <.<.<.9.>.<.<.<.<.<.<.",
"<.<.<.<.<.<.<.<.<.t z M.i.9.>.9.<.<.J 3 r.c.( <.<.<.<.<._ # k B.<.<.<.<.<.<.<.<.< K = / <.<.<.<.F 8 e.W Z <.<.<.<.<.<.<.<.<.<.<.",
"<.<.<.<.<.<.<.<.<., c V.0.9.<.<.<.<.J : z.V.9.<.<.9.<.<.U # j b.<.<.<.<.<.<.<.<.1 K = ( <.<.<.<.] y #.' Z <.<.<.<.<.<.<.<.<.<.<.",
"<.<.<.<.<.<.<.<.<.< c G.p.<.<.<.<.<.J 3 e.c.<.<.<.<.<.<._ ; = w.<.<.<.<.<.<.<.<._ k.l / <.<.<.<.<.S o.' Z <.<.<.<.<.<.<.<.9.<.<.",
"<.<.<.<.<.<.<.<.9.< c b.w.<.<.<.<.<.J 3 e.c.<.<.<.<.<.<._ # j c.<.<.<.<.<.<.9.<.<.B.l ( <.<.<.<.<.F t E ^ <.<.<.<.<.<.<.<.<.<.<."
};
