/* XPM */
static char *result[] = {
/* columns rows colors chars-per-pixel */
"64 64 25 1 ",
"  c #5B4760",
". c #5C4C64",
"X c #5C4F68",
"o c #5E5167",
"O c #5D546C",
"+ c #5E596E",
"@ c #5D5770",
"# c #5E5E76",
"$ c #5E5F78",
"% c #615567",
"& c #625B6D",
"* c #615E71",
"= c #5F6077",
"- c #5F6078",
"; c #65616E",
": c #636374",
"> c #686772",
", c #666976",
"< c #696A74",
"1 c #616478",
"2 c #656979",
"3 c #686E79",
"4 c #6B7076",
"5 c #6C747A",
"6 c #6E797B",
/* pixels */
"-------------=#$OoO#$#XXXO========$$@XXXoXXXX#$===$$+oX@=-@XXX##",
"------------$#=#$$==$$$$===#=-==$-$$$$$=$$=$$$===$$$$$==#-#-=#=#",
"----------#-=-#-====#$#$###==-=-$==-$$$$$$#$###====$$$$$=#$##-##",
"#$-------$$=$=$-====$===-===---=$=$$===$====#$==$$$$$===--------",
"#-$---=##==,=211========#======2=22:====$#$###=1=2=====$=====--=",
"1#$----#=11<+,665222222<===<,,,,=,6632==$$#$#=2<+2665,22=2,,-=-2",
"=#----$-#@+OoO&,:&&++&o&:+++*+&++++&&&++o@$==+++oO&<3*&;;&++&***",
"#=$---##==@####===*=*O.+==+====+###=+####$$#=#$@+###=$#+#+.O*@*=",
"$======$=##=#-$$===#==O=$#$####==$#=$$$$##=#$$$$#=========+@==$$",
"====-==$-#-#$#$$===-==+=#=#===##=##$$$##=$=$-$$$##========*@==$$",
"##$$$===------=======2+=-#--=-==============----==--=-===2;+$$==",
"=$$$$$$=------=======3+=-##-###=$======#$===-----=----===2;+$$==",
"#=+==$$$------#======3@=##=###=#$$==#=$$$$$===----=======3&#$$$#",
"12O@$=$$#----#=#===365O@=####=##==2,22=$$$====----##====36;@====",
"++.oOO###-=-=$$$O+**:&XXOOOOOOOOO+&&;*+O#$#===$---=#=+:>,>XX@@@@",
"+#@$@$$#--===$$$=*@#@*@=@@#@#@#@#+.o+@+####$==----=#@+++O+O@OOOO",
"==$$###=-----=-#$###==####==$$$$==+@==--$$$-------#$--=##=-#=#-#",
"===##=$$#---$####=$$###=-#$#$$$$$=@@$==-$$$-------#---===####$#=",
"=-----=------###-=----------===$$$@@$$====----=-#--#=======-----",
"=-----------#-##$$$---------===$$$O:=-===$----==-#-#======------",
"-===-------$=#+:=#=$--------====$$+:======--====#-@=====---=----",
"-===-----=-#==+<=$=$---------===$=+<====$=--===$$-+>====---=----",
"$$$#$$#####==1;31=$$$-$#-#$$=====,>43=$$$$$$$$==$-=>====##$$#-$#",
"$$$$$$$==#=133+;532=$##-#$$$$-==,3+;53==$$$$$====2=:6===$=$-##-#",
"oOooXXXXXXX+&O  +&&ooooXXXXXXXXO&+ .+&%ooXXXX@$=52oo454=$#=+=##@",
"====$$===$$=$$===,5;<1======$$-=,<5;+<,,=$=$==$$$====13,O=5===#=",
"=$=$$$$$$$$$$$$$==,;==$$$$-$$$$$$=33;2==$$=#==$$$$=====4*,===#=#",
"=$==-==-====-==--=,&#=$$======$$===<*===$$--======-====2*===$===",
"=$========------$$#+$$$==------$===>+===--------===-=$$=O#$$----",
"$$======-=-=--=$$$$$$#$=-------=====+=$=--------==--=$$$$#$$----",
"$$======-===-====$=##===-------====@@#$$==----==----==$#$$$===--",
"$$$#$$$$$$$$$$$$$$$$#===----$=$$=#=@O$$$$$$$##$$$=##$=##$$$$===#",
"==-----$---==###==$$--------$---$#=+@=#=#*#1$######**#$###-----$",
"@@#@@@@@@@@++#@#@@$$$-------###$##*OX##+###@#############$-----$",
"+OOO@O+O+Oo.&;;;#+$$$=-----#=#@XO+&oo+OOOOOOOOOO.X&&&O+#$------$",
"==#$$-##==#O4622=$$$-=-------$##=,<,<=####@#@#*@X>62,1###*-----$",
"=$$$###$=$$+42$$===$$=------=-#=#========#--=##$&<31$$###-------",
"====1$$$$$$+2=$#====$=------#-$#========#####$$$@<1$-$$$-$-----$",
"-===$$==#=#O<==========-------=#=-=-====----=#$$+>1$--$---------",
"-===1===###+<==========-----====--======----===#+>1$------------",
"$$##$#=#$$#+==#$$$=#=$$$$####===###-$$$=#=#$=#=#+:==#-$$#-###$#$",
"$$$$#$$=$=@o+=#$$$==$$$$=#=$##==#-$$==$#$#=#####o+==-##-######$#",
"@@++++++++O.o++++==+++O++#=#=#@@++++++#@#+++++++..++@@*-#+++@@##",
"$#,<<<<*,<<3<<<<,365<+o:*##$#@@@:<<3<+#:>;<,::<,:<:<<<353>OO:*##",
"=32=====----===-==535::,==$#$##=11255313========11111113541,,1##",
"=========---=--=======1==#$$#$==###=-1-===========###$=1#1111###",
"=============-$$--=-=====#$#=#$#==#=-==-=====--=$#==$##$$$##$$#$",
"--=================#-===$=#=#$#$###=--#-========#=####$$#1$$-#--",
"----------======$#--###=-$$$===$#==#=============#$#=----$##$#=#",
"---------#======#-##$-#=-#-#==$$$#$#$===$===#===#-$====#-#=$#-#$",
"==----$$#=======$###$====-======#==$$#==========-1=--====1$#-=-#",
"2==---#$===,662=,21,2=1,13136522###$==2*2663==2221=1212316631--#",
"-=------@+OO*==&&+%&&+++&+@O+*++OO#$$++o+=2*&&&O&&++&&&+++;+&+O@",
"===-----=$$$=====#O@#==$======$$=$$#$$=#===#===X+#$$####=##$=#==",
"------=-===$=====1:@=#$$===-==$$$$#=$$$$$$=====&@$#$=#=###$$$$=$",
"=-===---==-=====-=;$#=--------=-===============>##=-======-==--=",
"==$$$$=#=---$$$===:#=#==#=======$$#====----#-==;##-=========-#--",
"==+##=#=----$$===5<@#=--====1===$=$===---##===3>@===$========##=",
"#;OoO#$$----=#+:<<Oo++OOO@++:>;*O###----=###-25+@@@@#@$@#,,,,@##",
"#+@+#@$$----$##@@@#@@@#@$@++.O#@###$----###@#@+OOO@@@@OOOoo+++##",
"#=$##-#$====#$###=#=##$##=##O$$##$#------##$-##--#=#$$$$=@O=##$#",
"$#=###--==$$#=$=$#$#--#=###=o#$$=#=---=$-#=###=#-==#$$$$=@@###$$",
"====----==#=#=#=----------=$+##=--------##--------===-===@+=$---",
"====------##+=$$----------##+2$$$-----=$####-----========$:=$---"
};
